<?xml version="1.0" encoding="UTF-8" standalone="no"?>
<!DOCTYPE svg PUBLIC "-//W3C//DTD SVG 1.1//EN"
 "http://www.w3.org/Graphics/SVG/1.1/DTD/svg11.dtd">
<!-- Generated by graphviz version 2.43.0 (0)
 -->
<!-- Title: /home/runner/work/doxygen/doxygen/src/docparser_p.h Pages: 1 -->
<svg width="1645pt" height="368pt"
 viewBox="0.00 0.00 1645.00 368.00" xmlns="http://www.w3.org/2000/svg" xmlns:xlink="http://www.w3.org/1999/xlink">
<g id="graph0" class="graph" transform="scale(1 1) rotate(0) translate(4 364)">
<title>/home/runner/work/doxygen/doxygen/src/docparser_p.h</title>
<!-- Node1 -->
<g id="node1" class="node">
<title>Node1</title>
<g id="a_node1"><a xlink:title="Private header shared between docparser.cpp and docnode.cpp.">
<polygon fill="#999999" stroke="#666666" points="605.5,-360 451.5,-360 451.5,-330 605.5,-330 605.5,-360"/>
<text text-anchor="start" x="459.5" y="-348" font-family="Helvetica,sans-Serif" font-size="10.00">/home/runner/work/doxygen</text>
<text text-anchor="middle" x="528.5" y="-337" font-family="Helvetica,sans-Serif" font-size="10.00">/doxygen/src/docparser_p.h</text>
</a>
</g>
</g>
<!-- Node2 -->
<g id="node2" class="node">
<title>Node2</title>
<g id="a_node2"><a xlink:title=" ">
<polygon fill="#e0e0e0" stroke="#999999" points="116.5,-294 64.5,-294 64.5,-275 116.5,-275 116.5,-294"/>
<text text-anchor="middle" x="90.5" y="-282" font-family="Helvetica,sans-Serif" font-size="10.00">cassert</text>
</a>
</g>
</g>
<!-- Node1&#45;&gt;Node2 -->
<g id="edge1" class="edge">
<title>Node1&#45;&gt;Node2</title>
<path fill="none" stroke="#63b8ff" d="M451.18,-336.24C370.77,-327.72 241.4,-312.72 130.5,-294 129.24,-293.79 127.96,-293.56 126.67,-293.33"/>
<polygon fill="#63b8ff" stroke="#63b8ff" points="127.17,-289.86 116.69,-291.4 125.84,-296.73 127.17,-289.86"/>
</g>
<!-- Node3 -->
<g id="node3" class="node">
<title>Node3</title>
<g id="a_node3"><a xlink:title=" ">
<polygon fill="#e0e0e0" stroke="#999999" points="43,-129 0,-129 0,-110 43,-110 43,-129"/>
<text text-anchor="middle" x="21.5" y="-117" font-family="Helvetica,sans-Serif" font-size="10.00">stack</text>
</a>
</g>
</g>
<!-- Node1&#45;&gt;Node3 -->
<g id="edge2" class="edge">
<title>Node1&#45;&gt;Node3</title>
<path fill="none" stroke="#63b8ff" d="M451.17,-330.82C411.55,-322.7 363.03,-310.62 321.5,-294 209.43,-249.15 88.77,-168.04 41.81,-135.05"/>
<polygon fill="#63b8ff" stroke="#63b8ff" points="43.61,-132.03 33.42,-129.11 39.56,-137.75 43.61,-132.03"/>
</g>
<!-- Node4 -->
<g id="node4" class="node">
<title>Node4</title>
<g id="a_node4"><a xlink:title=" ">
<polygon fill="#e0e0e0" stroke="#999999" points="714,-129 661,-129 661,-110 714,-110 714,-129"/>
<text text-anchor="middle" x="687.5" y="-117" font-family="Helvetica,sans-Serif" font-size="10.00">iterator</text>
</a>
</g>
</g>
<!-- Node1&#45;&gt;Node4 -->
<g id="edge3" class="edge">
<title>Node1&#45;&gt;Node4</title>
<path fill="none" stroke="#63b8ff" d="M521.52,-329.62C506.63,-296.62 476.11,-214.52 514.5,-165 515.57,-163.62 600.31,-142.27 650.78,-129.65"/>
<polygon fill="#63b8ff" stroke="#63b8ff" points="651.83,-133 660.68,-127.18 650.13,-126.21 651.83,-133"/>
</g>
<!-- Node5 -->
<g id="node5" class="node">
<title>Node5</title>
<g id="a_node5"><a xlink:title=" ">
<polygon fill="#e0e0e0" stroke="#999999" points="779,-129 732,-129 732,-110 779,-110 779,-129"/>
<text text-anchor="middle" x="755.5" y="-117" font-family="Helvetica,sans-Serif" font-size="10.00">vector</text>
</a>
</g>
</g>
<!-- Node1&#45;&gt;Node5 -->
<g id="edge4" class="edge">
<title>Node1&#45;&gt;Node5</title>
<path fill="none" stroke="#63b8ff" d="M527.71,-329.54C526.7,-295.63 529.19,-210.47 575.5,-165 621.54,-119.79 654.67,-143.22 721.62,-129.22"/>
<polygon fill="#63b8ff" stroke="#63b8ff" points="722.8,-132.54 731.75,-126.87 721.22,-125.72 722.8,-132.54"/>
</g>
<!-- Node6 -->
<g id="node6" class="node">
<title>Node6</title>
<g id="a_node6"><a xlink:title=" ">
<polygon fill="#e0e0e0" stroke="#999999" points="1637,-294 1590,-294 1590,-275 1637,-275 1637,-294"/>
<text text-anchor="middle" x="1613.5" y="-282" font-family="Helvetica,sans-Serif" font-size="10.00">deque</text>
</a>
</g>
</g>
<!-- Node1&#45;&gt;Node6 -->
<g id="edge5" class="edge">
<title>Node1&#45;&gt;Node6</title>
<path fill="none" stroke="#63b8ff" d="M605.75,-344.85C779.75,-345.77 1215.25,-342.52 1575.5,-294 1576.97,-293.8 1578.46,-293.58 1579.96,-293.33"/>
<polygon fill="#63b8ff" stroke="#63b8ff" points="1580.73,-296.75 1589.9,-291.44 1579.42,-289.87 1580.73,-296.75"/>
</g>
<!-- Node7 -->
<g id="node7" class="node">
<title>Node7</title>
<g id="a_node7"><a xlink:title=" ">
<polygon fill="#e0e0e0" stroke="#999999" points="1437.5,-19 1387.5,-19 1387.5,0 1437.5,0 1437.5,-19"/>
<text text-anchor="middle" x="1412.5" y="-7" font-family="Helvetica,sans-Serif" font-size="10.00">cstdint</text>
</a>
</g>
</g>
<!-- Node1&#45;&gt;Node7 -->
<g id="edge6" class="edge">
<title>Node1&#45;&gt;Node7</title>
<path fill="none" stroke="#63b8ff" d="M605.72,-343.6C845.54,-341.37 1561.5,-326.63 1561.5,-230.5 1561.5,-230.5 1561.5,-230.5 1561.5,-118.5 1561.5,-62.48 1491.6,-32.53 1447.55,-19.22"/>
<polygon fill="#63b8ff" stroke="#63b8ff" points="1448.35,-15.81 1437.78,-16.41 1446.42,-22.54 1448.35,-15.81"/>
</g>
<!-- Node8 -->
<g id="node8" class="node">
<title>Node8</title>
<g id="a_node8"><a xlink:href="../../d5/d75/containers_8h.html" target="_top" xlink:title=" ">
<polygon fill="white" stroke="#666666" points="250,-184 173,-184 173,-165 250,-165 250,-184"/>
<text text-anchor="middle" x="211.5" y="-172" font-family="Helvetica,sans-Serif" font-size="10.00">containers.h</text>
</a>
</g>
</g>
<!-- Node1&#45;&gt;Node8 -->
<g id="edge7" class="edge">
<title>Node1&#45;&gt;Node8</title>
<path fill="none" stroke="#63b8ff" d="M470.61,-329.94C414.2,-314.28 327.91,-284.94 264.5,-239 247.11,-226.41 231.96,-206.87 222.36,-192.79"/>
<polygon fill="#63b8ff" stroke="#63b8ff" points="225.05,-190.51 216.64,-184.07 219.2,-194.35 225.05,-190.51"/>
</g>
<!-- Node14 -->
<g id="node14" class="node">
<title>Node14</title>
<g id="a_node14"><a xlink:href="../../de/d9c/docparser_8h.html" target="_top" xlink:title=" ">
<polygon fill="white" stroke="#666666" points="744,-239 671,-239 671,-220 744,-220 744,-239"/>
<text text-anchor="middle" x="707.5" y="-227" font-family="Helvetica,sans-Serif" font-size="10.00">docparser.h</text>
</a>
</g>
</g>
<!-- Node1&#45;&gt;Node14 -->
<g id="edge15" class="edge">
<title>Node1&#45;&gt;Node14</title>
<path fill="none" stroke="#63b8ff" d="M550.81,-329.85C585.07,-308.13 650.31,-266.77 684.8,-244.89"/>
<polygon fill="#63b8ff" stroke="#63b8ff" points="687.1,-247.58 693.67,-239.27 683.35,-241.67 687.1,-247.58"/>
</g>
<!-- Node26 -->
<g id="node26" class="node">
<title>Node26</title>
<g id="a_node26"><a xlink:href="../../de/d2b/docnode_8h.html" target="_top" xlink:title=" ">
<polygon fill="white" stroke="#666666" points="1010,-294 943,-294 943,-275 1010,-275 1010,-294"/>
<text text-anchor="middle" x="976.5" y="-282" font-family="Helvetica,sans-Serif" font-size="10.00">docnode.h</text>
</a>
</g>
</g>
<!-- Node1&#45;&gt;Node26 -->
<g id="edge34" class="edge">
<title>Node1&#45;&gt;Node26</title>
<path fill="none" stroke="#63b8ff" d="M605.51,-333.94C700.01,-321.6 857,-301.1 932.84,-291.2"/>
<polygon fill="#63b8ff" stroke="#63b8ff" points="933.52,-294.64 942.99,-289.88 932.62,-287.7 933.52,-294.64"/>
</g>
<!-- Node33 -->
<g id="node33" class="node">
<title>Node33</title>
<g id="a_node33"><a xlink:href="../../d0/d0c/doctokenizer_8h.html" target="_top" xlink:title=" ">
<polygon fill="white" stroke="#666666" points="852,-239 765,-239 765,-220 852,-220 852,-239"/>
<text text-anchor="middle" x="808.5" y="-227" font-family="Helvetica,sans-Serif" font-size="10.00">doctokenizer.h</text>
</a>
</g>
</g>
<!-- Node1&#45;&gt;Node33 -->
<g id="edge65" class="edge">
<title>Node1&#45;&gt;Node33</title>
<path fill="none" stroke="#63b8ff" d="M563.11,-329.97C618.23,-307.63 725.09,-264.31 777.7,-242.98"/>
<polygon fill="#63b8ff" stroke="#63b8ff" points="779.22,-246.15 787.17,-239.14 776.59,-239.66 779.22,-246.15"/>
</g>
<!-- Node34 -->
<g id="node34" class="node">
<title>Node34</title>
<g id="a_node34"><a xlink:href="../../de/d07/searchindex_8h.html" target="_top" xlink:title="Web server based search engine.">
<polygon fill="white" stroke="#666666" points="462,-184 377,-184 377,-165 462,-165 462,-184"/>
<text text-anchor="middle" x="419.5" y="-172" font-family="Helvetica,sans-Serif" font-size="10.00">searchindex.h</text>
</a>
</g>
</g>
<!-- Node1&#45;&gt;Node34 -->
<g id="edge70" class="edge">
<title>Node1&#45;&gt;Node34</title>
<path fill="none" stroke="#63b8ff" d="M510.54,-329.6C499.72,-320.27 486.2,-307.39 476.5,-294 453.05,-261.61 435,-218.06 425.94,-193.79"/>
<polygon fill="#63b8ff" stroke="#63b8ff" points="429.13,-192.31 422.43,-184.11 422.55,-194.7 429.13,-192.31"/>
</g>
<!-- Node8&#45;&gt;Node3 -->
<g id="edge14" class="edge">
<title>Node8&#45;&gt;Node3</title>
<path fill="none" stroke="#63b8ff" d="M180.97,-164.98C145.84,-155.18 88.43,-139.17 52.92,-129.26"/>
<polygon fill="#63b8ff" stroke="#63b8ff" points="53.66,-125.84 43.09,-126.52 51.78,-132.58 53.66,-125.84"/>
</g>
<!-- Node8&#45;&gt;Node5 -->
<g id="edge8" class="edge">
<title>Node8&#45;&gt;Node5</title>
<path fill="none" stroke="#63b8ff" d="M250.22,-171.01C349.93,-164.45 614.61,-146.16 721.68,-128.99"/>
<polygon fill="#63b8ff" stroke="#63b8ff" points="722.56,-132.39 731.84,-127.27 721.39,-125.48 722.56,-132.39"/>
</g>
<!-- Node9 -->
<g id="node9" class="node">
<title>Node9</title>
<g id="a_node9"><a xlink:title=" ">
<polygon fill="#e0e0e0" stroke="#999999" points="954.5,-19 910.5,-19 910.5,0 954.5,0 954.5,-19"/>
<text text-anchor="middle" x="932.5" y="-7" font-family="Helvetica,sans-Serif" font-size="10.00">string</text>
</a>
</g>
</g>
<!-- Node8&#45;&gt;Node9 -->
<g id="edge9" class="edge">
<title>Node8&#45;&gt;Node9</title>
<path fill="none" stroke="#63b8ff" d="M214.86,-164.6C220.32,-151.22 232.24,-125.78 249.5,-110 291.02,-72.05 309.19,-69.67 363.5,-55 465.94,-27.33 795.22,-14.81 900.1,-11.46"/>
<polygon fill="#63b8ff" stroke="#63b8ff" points="900.48,-14.95 910.37,-11.14 900.26,-7.95 900.48,-14.95"/>
</g>
<!-- Node10 -->
<g id="node10" class="node">
<title>Node10</title>
<g id="a_node10"><a xlink:title=" ">
<polygon fill="#e0e0e0" stroke="#999999" points="93.5,-129 61.5,-129 61.5,-110 93.5,-110 93.5,-129"/>
<text text-anchor="middle" x="77.5" y="-117" font-family="Helvetica,sans-Serif" font-size="10.00">set</text>
</a>
</g>
</g>
<!-- Node8&#45;&gt;Node10 -->
<g id="edge10" class="edge">
<title>Node8&#45;&gt;Node10</title>
<path fill="none" stroke="#63b8ff" d="M189.97,-164.98C166.3,-155.62 128.3,-140.59 103.12,-130.63"/>
<polygon fill="#63b8ff" stroke="#63b8ff" points="104.1,-127.26 93.51,-126.83 101.52,-133.76 104.1,-127.26"/>
</g>
<!-- Node11 -->
<g id="node11" class="node">
<title>Node11</title>
<g id="a_node11"><a xlink:title=" ">
<polygon fill="#e0e0e0" stroke="#999999" points="329.5,-129 291.5,-129 291.5,-110 329.5,-110 329.5,-129"/>
<text text-anchor="middle" x="310.5" y="-117" font-family="Helvetica,sans-Serif" font-size="10.00">map</text>
</a>
</g>
</g>
<!-- Node8&#45;&gt;Node11 -->
<g id="edge11" class="edge">
<title>Node8&#45;&gt;Node11</title>
<path fill="none" stroke="#63b8ff" d="M227.41,-164.98C243.05,-156.61 267.16,-143.7 285.38,-133.95"/>
<polygon fill="#63b8ff" stroke="#63b8ff" points="287.14,-136.98 294.3,-129.17 283.84,-130.8 287.14,-136.98"/>
</g>
<!-- Node12 -->
<g id="node12" class="node">
<title>Node12</title>
<g id="a_node12"><a xlink:title=" ">
<polygon fill="#e0e0e0" stroke="#999999" points="197.5,-129 111.5,-129 111.5,-110 197.5,-110 197.5,-129"/>
<text text-anchor="middle" x="154.5" y="-117" font-family="Helvetica,sans-Serif" font-size="10.00">unordered_set</text>
</a>
</g>
</g>
<!-- Node8&#45;&gt;Node12 -->
<g id="edge12" class="edge">
<title>Node8&#45;&gt;Node12</title>
<path fill="none" stroke="#63b8ff" d="M202.34,-164.98C194,-157.23 181.47,-145.58 171.32,-136.14"/>
<polygon fill="#63b8ff" stroke="#63b8ff" points="173.53,-133.42 163.82,-129.17 168.76,-138.54 173.53,-133.42"/>
</g>
<!-- Node13 -->
<g id="node13" class="node">
<title>Node13</title>
<g id="a_node13"><a xlink:title=" ">
<polygon fill="#e0e0e0" stroke="#999999" points="890,-129 797,-129 797,-110 890,-110 890,-129"/>
<text text-anchor="middle" x="843.5" y="-117" font-family="Helvetica,sans-Serif" font-size="10.00">unordered_map</text>
</a>
</g>
</g>
<!-- Node8&#45;&gt;Node13 -->
<g id="edge13" class="edge">
<title>Node8&#45;&gt;Node13</title>
<path fill="none" stroke="#63b8ff" d="M250.09,-171.54C341.5,-166.69 578.59,-152.83 786.53,-129.15"/>
<polygon fill="#63b8ff" stroke="#63b8ff" points="787.19,-132.6 796.73,-127.98 786.39,-125.64 787.19,-132.6"/>
</g>
<!-- Node15 -->
<g id="node15" class="node">
<title>Node15</title>
<g id="a_node15"><a xlink:title=" ">
<polygon fill="#e0e0e0" stroke="#999999" points="780.5,-184 730.5,-184 730.5,-165 780.5,-165 780.5,-184"/>
<text text-anchor="middle" x="755.5" y="-172" font-family="Helvetica,sans-Serif" font-size="10.00">stdio.h</text>
</a>
</g>
</g>
<!-- Node14&#45;&gt;Node15 -->
<g id="edge16" class="edge">
<title>Node14&#45;&gt;Node15</title>
<path fill="none" stroke="#63b8ff" d="M715.43,-219.75C722.35,-212.11 732.57,-200.82 740.95,-191.56"/>
<polygon fill="#63b8ff" stroke="#63b8ff" points="743.6,-193.85 747.72,-184.09 738.41,-189.15 743.6,-193.85"/>
</g>
<!-- Node16 -->
<g id="node16" class="node">
<title>Node16</title>
<g id="a_node16"><a xlink:title=" ">
<polygon fill="#e0e0e0" stroke="#999999" points="966.5,-129 908.5,-129 908.5,-110 966.5,-110 966.5,-129"/>
<text text-anchor="middle" x="937.5" y="-117" font-family="Helvetica,sans-Serif" font-size="10.00">memory</text>
</a>
</g>
</g>
<!-- Node14&#45;&gt;Node16 -->
<g id="edge17" class="edge">
<title>Node14&#45;&gt;Node16</title>
<path fill="none" stroke="#63b8ff" d="M706.68,-219.71C705.93,-205.99 706.68,-179.56 721.5,-165 776.82,-110.64 817.29,-143.03 898.37,-129.01"/>
<polygon fill="#63b8ff" stroke="#63b8ff" points="899.31,-132.39 908.47,-127.06 897.98,-125.52 899.31,-132.39"/>
</g>
<!-- Node17 -->
<g id="node17" class="node">
<title>Node17</title>
<g id="a_node17"><a xlink:href="../../d7/d5c/qcstring_8h.html" target="_top" xlink:title=" ">
<polygon fill="white" stroke="#666666" points="1225,-129 1160,-129 1160,-110 1225,-110 1225,-129"/>
<text text-anchor="middle" x="1192.5" y="-117" font-family="Helvetica,sans-Serif" font-size="10.00">qcstring.h</text>
</a>
</g>
</g>
<!-- Node14&#45;&gt;Node17 -->
<g id="edge18" class="edge">
<title>Node14&#45;&gt;Node17</title>
<path fill="none" stroke="#63b8ff" d="M744.1,-221.79C748.28,-221.13 752.48,-220.52 756.5,-220 803.83,-213.92 1150.06,-217.04 1184.5,-184 1196.14,-172.83 1197.15,-153.91 1195.84,-139.62"/>
<polygon fill="#63b8ff" stroke="#63b8ff" points="1199.27,-138.82 1194.46,-129.38 1192.33,-139.76 1199.27,-138.82"/>
</g>
<!-- Node25 -->
<g id="node25" class="node">
<title>Node25</title>
<g id="a_node25"><a xlink:href="../../d7/d50/growvector_8h.html" target="_top" xlink:title=" ">
<polygon fill="white" stroke="#666666" points="674.5,-184 594.5,-184 594.5,-165 674.5,-165 674.5,-184"/>
<text text-anchor="middle" x="634.5" y="-172" font-family="Helvetica,sans-Serif" font-size="10.00">growvector.h</text>
</a>
</g>
</g>
<!-- Node14&#45;&gt;Node25 -->
<g id="edge30" class="edge">
<title>Node14&#45;&gt;Node25</title>
<path fill="none" stroke="#63b8ff" d="M695.77,-219.98C684.77,-212 668.08,-199.88 654.9,-190.31"/>
<polygon fill="#63b8ff" stroke="#63b8ff" points="656.59,-187.21 646.44,-184.17 652.48,-192.88 656.59,-187.21"/>
</g>
<!-- Node17&#45;&gt;Node7 -->
<g id="edge25" class="edge">
<title>Node17&#45;&gt;Node7</title>
<path fill="none" stroke="#63b8ff" d="M1209.76,-109.99C1227.89,-101.05 1257.22,-86.57 1282.5,-74 1299.41,-65.59 1303.56,-63.33 1320.5,-55 1342.23,-44.31 1366.94,-32.37 1385.27,-23.56"/>
<polygon fill="#63b8ff" stroke="#63b8ff" points="1386.99,-26.61 1394.48,-19.13 1383.96,-20.3 1386.99,-26.61"/>
</g>
<!-- Node17&#45;&gt;Node9 -->
<g id="edge19" class="edge">
<title>Node17&#45;&gt;Node9</title>
<path fill="none" stroke="#63b8ff" d="M1183.11,-109.74C1167.95,-96.07 1136.61,-69.69 1105.5,-55 1059.25,-33.16 1000.78,-20.99 965.04,-15.1"/>
<polygon fill="#63b8ff" stroke="#63b8ff" points="965.14,-11.57 954.72,-13.46 964.05,-18.48 965.14,-11.57"/>
</g>
<!-- Node18 -->
<g id="node18" class="node">
<title>Node18</title>
<g id="a_node18"><a xlink:title=" ">
<polygon fill="#e0e0e0" stroke="#999999" points="1393.5,-74 1329.5,-74 1329.5,-55 1393.5,-55 1393.5,-74"/>
<text text-anchor="middle" x="1361.5" y="-62" font-family="Helvetica,sans-Serif" font-size="10.00">algorithm</text>
</a>
</g>
</g>
<!-- Node17&#45;&gt;Node18 -->
<g id="edge20" class="edge">
<title>Node17&#45;&gt;Node18</title>
<path fill="none" stroke="#63b8ff" d="M1219.65,-109.98C1248.03,-101.09 1292.73,-87.07 1324.36,-77.15"/>
<polygon fill="#63b8ff" stroke="#63b8ff" points="1325.64,-80.41 1334.13,-74.08 1323.55,-73.73 1325.64,-80.41"/>
</g>
<!-- Node19 -->
<g id="node19" class="node">
<title>Node19</title>
<g id="a_node19"><a xlink:title=" ">
<polygon fill="#e0e0e0" stroke="#999999" points="1096,-74 1047,-74 1047,-55 1096,-55 1096,-74"/>
<text text-anchor="middle" x="1071.5" y="-62" font-family="Helvetica,sans-Serif" font-size="10.00">cctype</text>
</a>
</g>
</g>
<!-- Node17&#45;&gt;Node19 -->
<g id="edge21" class="edge">
<title>Node17&#45;&gt;Node19</title>
<path fill="none" stroke="#63b8ff" d="M1173.06,-109.98C1153.51,-101.42 1123.12,-88.11 1100.68,-78.28"/>
<polygon fill="#63b8ff" stroke="#63b8ff" points="1101.86,-74.98 1091.29,-74.17 1099.05,-81.39 1101.86,-74.98"/>
</g>
<!-- Node20 -->
<g id="node20" class="node">
<title>Node20</title>
<g id="a_node20"><a xlink:title=" ">
<polygon fill="#e0e0e0" stroke="#999999" points="878.5,-74 828.5,-74 828.5,-55 878.5,-55 878.5,-74"/>
<text text-anchor="middle" x="853.5" y="-62" font-family="Helvetica,sans-Serif" font-size="10.00">cstring</text>
</a>
</g>
</g>
<!-- Node17&#45;&gt;Node20 -->
<g id="edge22" class="edge">
<title>Node17&#45;&gt;Node20</title>
<path fill="none" stroke="#63b8ff" d="M1160,-113.42C1096.13,-103.43 954.76,-81.33 888.74,-71.01"/>
<polygon fill="#63b8ff" stroke="#63b8ff" points="889.24,-67.55 878.82,-69.46 888.16,-74.46 889.24,-67.55"/>
</g>
<!-- Node21 -->
<g id="node21" class="node">
<title>Node21</title>
<g id="a_node21"><a xlink:title=" ">
<polygon fill="#e0e0e0" stroke="#999999" points="1457.5,-74 1411.5,-74 1411.5,-55 1457.5,-55 1457.5,-74"/>
<text text-anchor="middle" x="1434.5" y="-62" font-family="Helvetica,sans-Serif" font-size="10.00">cstdio</text>
</a>
</g>
</g>
<!-- Node17&#45;&gt;Node21 -->
<g id="edge23" class="edge">
<title>Node17&#45;&gt;Node21</title>
<path fill="none" stroke="#63b8ff" d="M1225.35,-112.08C1264.84,-104.24 1333.34,-90.27 1401.42,-74.16"/>
<polygon fill="#63b8ff" stroke="#63b8ff" points="1402.55,-77.49 1411.46,-71.77 1400.92,-70.68 1402.55,-77.49"/>
</g>
<!-- Node22 -->
<g id="node22" class="node">
<title>Node22</title>
<g id="a_node22"><a xlink:title=" ">
<polygon fill="#e0e0e0" stroke="#999999" points="1029,-74 980,-74 980,-55 1029,-55 1029,-74"/>
<text text-anchor="middle" x="1004.5" y="-62" font-family="Helvetica,sans-Serif" font-size="10.00">cstdlib</text>
</a>
</g>
</g>
<!-- Node17&#45;&gt;Node22 -->
<g id="edge24" class="edge">
<title>Node17&#45;&gt;Node22</title>
<path fill="none" stroke="#63b8ff" d="M1162.29,-109.98C1128.66,-100.5 1074.4,-85.21 1039.09,-75.25"/>
<polygon fill="#63b8ff" stroke="#63b8ff" points="1039.8,-71.82 1029.23,-72.47 1037.9,-78.55 1039.8,-71.82"/>
</g>
<!-- Node23 -->
<g id="node23" class="node">
<title>Node23</title>
<g id="a_node23"><a xlink:title=" ">
<polygon fill="#e0e0e0" stroke="#999999" points="1210,-74 1153,-74 1153,-55 1210,-55 1210,-74"/>
<text text-anchor="middle" x="1181.5" y="-62" font-family="Helvetica,sans-Serif" font-size="10.00">ostream</text>
</a>
</g>
</g>
<!-- Node17&#45;&gt;Node23 -->
<g id="edge26" class="edge">
<title>Node17&#45;&gt;Node23</title>
<path fill="none" stroke="#63b8ff" d="M1190.68,-109.75C1189.24,-102.8 1187.18,-92.85 1185.37,-84.13"/>
<polygon fill="#63b8ff" stroke="#63b8ff" points="1188.74,-83.17 1183.28,-74.09 1181.89,-84.59 1188.74,-83.17"/>
</g>
<!-- Node24 -->
<g id="node24" class="node">
<title>Node24</title>
<g id="a_node24"><a xlink:href="../../db/d7c/utf8_8h.html" target="_top" xlink:title="Various UTF8 related helper functions.">
<polygon fill="white" stroke="#666666" points="1273,-74 1228,-74 1228,-55 1273,-55 1273,-74"/>
<text text-anchor="middle" x="1250.5" y="-62" font-family="Helvetica,sans-Serif" font-size="10.00">utf8.h</text>
</a>
</g>
</g>
<!-- Node17&#45;&gt;Node24 -->
<g id="edge27" class="edge">
<title>Node17&#45;&gt;Node24</title>
<path fill="none" stroke="#63b8ff" d="M1201.82,-109.98C1210.31,-102.23 1223.06,-90.58 1233.38,-81.14"/>
<polygon fill="#63b8ff" stroke="#63b8ff" points="1235.99,-83.5 1241.01,-74.17 1231.27,-78.33 1235.99,-83.5"/>
</g>
<!-- Node24&#45;&gt;Node7 -->
<g id="edge28" class="edge">
<title>Node24&#45;&gt;Node7</title>
<path fill="none" stroke="#63b8ff" d="M1273.03,-56.13C1300.09,-47.28 1345.81,-32.32 1377.49,-21.96"/>
<polygon fill="#63b8ff" stroke="#63b8ff" points="1378.82,-25.2 1387.24,-18.76 1376.64,-18.55 1378.82,-25.2"/>
</g>
<!-- Node24&#45;&gt;Node9 -->
<g id="edge29" class="edge">
<title>Node24&#45;&gt;Node9</title>
<path fill="none" stroke="#63b8ff" d="M1227.89,-56.98C1225.07,-56.26 1222.23,-55.58 1219.5,-55 1127.93,-35.41 1018.19,-20.83 964.82,-14.29"/>
<polygon fill="#63b8ff" stroke="#63b8ff" points="964.97,-10.79 954.62,-13.06 964.13,-17.73 964.97,-10.79"/>
</g>
<!-- Node25&#45;&gt;Node4 -->
<g id="edge33" class="edge">
<title>Node25&#45;&gt;Node4</title>
<path fill="none" stroke="#63b8ff" d="M643.25,-164.75C650.97,-157.03 662.4,-145.6 671.72,-136.28"/>
<polygon fill="#63b8ff" stroke="#63b8ff" points="674.31,-138.64 678.91,-129.09 669.36,-133.69 674.31,-138.64"/>
</g>
<!-- Node25&#45;&gt;Node5 -->
<g id="edge31" class="edge">
<title>Node25&#45;&gt;Node5</title>
<path fill="none" stroke="#63b8ff" d="M653.94,-164.98C673.49,-156.42 703.88,-143.11 726.32,-133.28"/>
<polygon fill="#63b8ff" stroke="#63b8ff" points="727.95,-136.39 735.71,-129.17 725.14,-129.98 727.95,-136.39"/>
</g>
<!-- Node25&#45;&gt;Node16 -->
<g id="edge32" class="edge">
<title>Node25&#45;&gt;Node16</title>
<path fill="none" stroke="#63b8ff" d="M674.57,-167.04C733.8,-157.45 842.88,-139.62 898.44,-129.1"/>
<polygon fill="#63b8ff" stroke="#63b8ff" points="899.33,-132.49 908.49,-127.16 898.01,-125.62 899.33,-132.49"/>
</g>
<!-- Node26&#45;&gt;Node5 -->
<g id="edge37" class="edge">
<title>Node26&#45;&gt;Node5</title>
<path fill="none" stroke="#63b8ff" d="M942.83,-281.68C868.97,-277.26 695.11,-264.41 642.5,-239 610.8,-223.69 599.26,-216.4 585.5,-184 553.18,-107.89 651.15,-141.82 721.57,-129.06"/>
<polygon fill="#63b8ff" stroke="#63b8ff" points="722.72,-132.39 731.74,-126.82 721.22,-125.56 722.72,-132.39"/>
</g>
<!-- Node26&#45;&gt;Node7 -->
<g id="edge36" class="edge">
<title>Node26&#45;&gt;Node7</title>
<path fill="none" stroke="#63b8ff" d="M1010.3,-284.05C1129.56,-285.11 1523.5,-280.65 1523.5,-175.5 1523.5,-175.5 1523.5,-175.5 1523.5,-118.5 1523.5,-72.98 1474.96,-40.44 1442.08,-23.61"/>
<polygon fill="#63b8ff" stroke="#63b8ff" points="1443.38,-20.35 1432.86,-19.09 1440.3,-26.64 1443.38,-20.35"/>
</g>
<!-- Node26&#45;&gt;Node14 -->
<g id="edge44" class="edge">
<title>Node26&#45;&gt;Node14</title>
<path fill="none" stroke="#63b8ff" d="M942.97,-276.89C895.34,-267.51 807.89,-250.28 754.01,-239.66"/>
<polygon fill="#63b8ff" stroke="#63b8ff" points="754.52,-236.2 744.03,-237.7 753.17,-243.06 754.52,-236.2"/>
</g>
<!-- Node26&#45;&gt;Node16 -->
<g id="edge38" class="edge">
<title>Node26&#45;&gt;Node16</title>
<path fill="none" stroke="#63b8ff" d="M974.4,-274.74C968.29,-249.2 950.4,-174.43 941.98,-139.23"/>
<polygon fill="#63b8ff" stroke="#63b8ff" points="945.34,-138.22 939.61,-129.31 938.53,-139.85 945.34,-138.22"/>
</g>
<!-- Node26&#45;&gt;Node17 -->
<g id="edge40" class="edge">
<title>Node26&#45;&gt;Node17</title>
<path fill="none" stroke="#63b8ff" d="M1010.06,-280.31C1096.5,-271.3 1322.95,-242.45 1364.5,-184 1398.14,-136.66 1296.47,-124.55 1235.27,-121.49"/>
<polygon fill="#63b8ff" stroke="#63b8ff" points="1235.23,-117.99 1225.09,-121.05 1234.93,-124.98 1235.23,-117.99"/>
</g>
<!-- Node26&#45;&gt;Node21 -->
<g id="edge35" class="edge">
<title>Node26&#45;&gt;Node21</title>
<path fill="none" stroke="#63b8ff" d="M1010.12,-283.4C1069.39,-282.24 1195.58,-275.27 1294.5,-239 1337.45,-223.25 1351.55,-218.58 1381.5,-184 1407.48,-154.01 1422.79,-109.23 1429.82,-84.18"/>
<polygon fill="#63b8ff" stroke="#63b8ff" points="1433.29,-84.75 1432.48,-74.19 1426.53,-82.95 1433.29,-84.75"/>
</g>
<!-- Node26&#45;&gt;Node25 -->
<g id="edge52" class="edge">
<title>Node26&#45;&gt;Node25</title>
<path fill="none" stroke="#63b8ff" d="M942.96,-282.77C871.27,-280.6 706.12,-272.03 662.5,-239 648.26,-228.22 641.13,-208.64 637.64,-194.06"/>
<polygon fill="#63b8ff" stroke="#63b8ff" points="641.04,-193.22 635.63,-184.11 634.18,-194.61 641.04,-193.22"/>
</g>
<!-- Node27 -->
<g id="node27" class="node">
<title>Node27</title>
<g id="a_node27"><a xlink:title=" ">
<polygon fill="#e0e0e0" stroke="#999999" points="437,-74 386,-74 386,-55 437,-55 437,-74"/>
<text text-anchor="middle" x="411.5" y="-62" font-family="Helvetica,sans-Serif" font-size="10.00">variant</text>
</a>
</g>
</g>
<!-- Node26&#45;&gt;Node27 -->
<g id="edge39" class="edge">
<title>Node26&#45;&gt;Node27</title>
<path fill="none" stroke="#63b8ff" d="M942.61,-282.24C812.32,-276.53 347.63,-247.96 282.5,-129 278.44,-121.59 277.6,-116.88 282.5,-110 293.56,-94.48 341.65,-80.9 375.87,-72.94"/>
<polygon fill="#63b8ff" stroke="#63b8ff" points="377.01,-76.27 385.99,-70.66 375.47,-69.45 377.01,-76.27"/>
</g>
<!-- Node28 -->
<g id="node28" class="node">
<title>Node28</title>
<g id="a_node28"><a xlink:href="../../d2/d3c/docvisitor_8h.html" target="_top" xlink:title=" ">
<polygon fill="white" stroke="#666666" points="1305,-184 1232,-184 1232,-165 1305,-165 1305,-184"/>
<text text-anchor="middle" x="1268.5" y="-172" font-family="Helvetica,sans-Serif" font-size="10.00">docvisitor.h</text>
</a>
</g>
</g>
<!-- Node26&#45;&gt;Node28 -->
<g id="edge41" class="edge">
<title>Node26&#45;&gt;Node28</title>
<path fill="none" stroke="#63b8ff" d="M1010.28,-280C1051.07,-274.88 1121.08,-263.19 1176.5,-239 1204.78,-226.66 1233.42,-205.15 1251.06,-190.63"/>
<polygon fill="#63b8ff" stroke="#63b8ff" points="1253.39,-193.24 1258.79,-184.13 1248.88,-187.89 1253.39,-193.24"/>
</g>
<!-- Node29 -->
<g id="node29" class="node">
<title>Node29</title>
<g id="a_node29"><a xlink:href="../../d0/d73/htmlattrib_8h.html" target="_top" xlink:title=" ">
<polygon fill="white" stroke="#666666" points="910.5,-184 836.5,-184 836.5,-165 910.5,-165 910.5,-184"/>
<text text-anchor="middle" x="873.5" y="-172" font-family="Helvetica,sans-Serif" font-size="10.00">htmlattrib.h</text>
</a>
</g>
</g>
<!-- Node26&#45;&gt;Node29 -->
<g id="edge45" class="edge">
<title>Node26&#45;&gt;Node29</title>
<path fill="none" stroke="#63b8ff" d="M968.07,-274.66C950.71,-256.46 910.74,-214.55 888.73,-191.47"/>
<polygon fill="#63b8ff" stroke="#63b8ff" points="891.19,-188.98 881.76,-184.16 886.13,-193.81 891.19,-188.98"/>
</g>
<!-- Node30 -->
<g id="node30" class="node">
<title>Node30</title>
<g id="a_node30"><a xlink:href="../../db/dc6/htmlentity_8h.html" target="_top" xlink:title=" ">
<polygon fill="white" stroke="#666666" points="1080,-184 1005,-184 1005,-165 1080,-165 1080,-184"/>
<text text-anchor="middle" x="1042.5" y="-172" font-family="Helvetica,sans-Serif" font-size="10.00">htmlentity.h</text>
</a>
</g>
</g>
<!-- Node26&#45;&gt;Node30 -->
<g id="edge48" class="edge">
<title>Node26&#45;&gt;Node30</title>
<path fill="none" stroke="#63b8ff" d="M981.9,-274.66C992.83,-256.77 1017.75,-216 1031.99,-192.69"/>
<polygon fill="#63b8ff" stroke="#63b8ff" points="1034.98,-194.52 1037.21,-184.16 1029.01,-190.87 1034.98,-194.52"/>
</g>
<!-- Node31 -->
<g id="node31" class="node">
<title>Node31</title>
<g id="a_node31"><a xlink:href="../../d1/d2a/section_8h.html" target="_top" xlink:title=" ">
<polygon fill="white" stroke="#666666" points="1167,-239 1106,-239 1106,-220 1167,-220 1167,-239"/>
<text text-anchor="middle" x="1136.5" y="-227" font-family="Helvetica,sans-Serif" font-size="10.00">section.h</text>
</a>
</g>
</g>
<!-- Node26&#45;&gt;Node31 -->
<g id="edge53" class="edge">
<title>Node26&#45;&gt;Node31</title>
<path fill="none" stroke="#63b8ff" d="M1002.21,-274.98C1028.95,-266.13 1071.03,-252.19 1100.95,-242.28"/>
<polygon fill="#63b8ff" stroke="#63b8ff" points="1102.2,-245.55 1110.59,-239.08 1100,-238.9 1102.2,-245.55"/>
</g>
<!-- Node28&#45;&gt;Node16 -->
<g id="edge42" class="edge">
<title>Node28&#45;&gt;Node16</title>
<path fill="none" stroke="#63b8ff" d="M1231.81,-167.63C1168.99,-157.57 1041.37,-137.13 976.8,-126.79"/>
<polygon fill="#63b8ff" stroke="#63b8ff" points="977.05,-123.29 966.62,-125.16 975.95,-130.2 977.05,-123.29"/>
</g>
<!-- Node28&#45;&gt;Node17 -->
<g id="edge43" class="edge">
<title>Node28&#45;&gt;Node17</title>
<path fill="none" stroke="#63b8ff" d="M1256.29,-164.98C1244.72,-156.92 1227.12,-144.65 1213.34,-135.03"/>
<polygon fill="#63b8ff" stroke="#63b8ff" points="1215.14,-132.02 1204.93,-129.17 1211.13,-137.76 1215.14,-132.02"/>
</g>
<!-- Node29&#45;&gt;Node5 -->
<g id="edge46" class="edge">
<title>Node29&#45;&gt;Node5</title>
<path fill="none" stroke="#63b8ff" d="M854.54,-164.98C835.47,-156.42 805.84,-143.11 783.95,-133.28"/>
<polygon fill="#63b8ff" stroke="#63b8ff" points="785.36,-130.07 774.8,-129.17 782.49,-136.46 785.36,-130.07"/>
</g>
<!-- Node29&#45;&gt;Node17 -->
<g id="edge47" class="edge">
<title>Node29&#45;&gt;Node17</title>
<path fill="none" stroke="#63b8ff" d="M910.72,-167.32C970.35,-157.41 1086.96,-138.04 1149.85,-127.59"/>
<polygon fill="#63b8ff" stroke="#63b8ff" points="1150.55,-131.02 1159.84,-125.93 1149.4,-124.11 1150.55,-131.02"/>
</g>
<!-- Node30&#45;&gt;Node9 -->
<g id="edge50" class="edge">
<title>Node30&#45;&gt;Node9</title>
<path fill="none" stroke="#63b8ff" d="M1033.18,-164.67C1007.48,-140.32 937.5,-74 937.5,-74 930.87,-60.11 929.97,-42.55 930.53,-29.41"/>
<polygon fill="#63b8ff" stroke="#63b8ff" points="934.04,-29.45 931.29,-19.22 927.06,-28.93 934.04,-29.45"/>
</g>
<!-- Node30&#45;&gt;Node13 -->
<g id="edge49" class="edge">
<title>Node30&#45;&gt;Node13</title>
<path fill="none" stroke="#63b8ff" d="M1010.53,-164.98C976.68,-155.97 923.1,-141.7 885.79,-131.76"/>
<polygon fill="#63b8ff" stroke="#63b8ff" points="886.29,-128.27 875.72,-129.08 884.49,-135.04 886.29,-128.27"/>
</g>
<!-- Node30&#45;&gt;Node17 -->
<g id="edge51" class="edge">
<title>Node30&#45;&gt;Node17</title>
<path fill="none" stroke="#63b8ff" d="M1066.6,-164.98C1091.38,-156.23 1130.2,-142.51 1158.19,-132.62"/>
<polygon fill="#63b8ff" stroke="#63b8ff" points="1159.7,-135.8 1167.96,-129.17 1157.37,-129.2 1159.7,-135.8"/>
</g>
<!-- Node31&#45;&gt;Node9 -->
<g id="edge54" class="edge">
<title>Node31&#45;&gt;Node9</title>
<path fill="none" stroke="#63b8ff" d="M1167.32,-228.42C1213.15,-227.05 1300.72,-219.5 1364.5,-184 1428.36,-148.45 1515.99,-108.79 1466.5,-55 1432.48,-18.02 1075.53,-11.76 964.96,-10.71"/>
<polygon fill="#63b8ff" stroke="#63b8ff" points="964.79,-7.21 954.76,-10.62 964.73,-14.21 964.79,-7.21"/>
</g>
<!-- Node31&#45;&gt;Node13 -->
<g id="edge55" class="edge">
<title>Node31&#45;&gt;Node13</title>
<path fill="none" stroke="#63b8ff" d="M1107.03,-219.93C1078.52,-211.46 1034.23,-197.8 996.5,-184 952.39,-167.87 902.29,-146.47 871.79,-133.1"/>
<polygon fill="#63b8ff" stroke="#63b8ff" points="873.18,-129.88 862.61,-129.05 870.35,-136.29 873.18,-129.88"/>
</g>
<!-- Node31&#45;&gt;Node17 -->
<g id="edge56" class="edge">
<title>Node31&#45;&gt;Node17</title>
<path fill="none" stroke="#63b8ff" d="M1167.29,-226.63C1220.27,-222.7 1325.15,-211.55 1347.5,-184 1380.27,-143.6 1291.58,-128.66 1235.16,-123.32"/>
<polygon fill="#63b8ff" stroke="#63b8ff" points="1235.3,-119.82 1225.04,-122.43 1234.69,-126.79 1235.3,-119.82"/>
</g>
<!-- Node32 -->
<g id="node32" class="node">
<title>Node32</title>
<g id="a_node32"><a xlink:href="../../da/de1/linkedmap_8h.html" target="_top" xlink:title=" ">
<polygon fill="white" stroke="#666666" points="1175,-184 1098,-184 1098,-165 1175,-165 1175,-184"/>
<text text-anchor="middle" x="1136.5" y="-172" font-family="Helvetica,sans-Serif" font-size="10.00">linkedmap.h</text>
</a>
</g>
</g>
<!-- Node31&#45;&gt;Node32 -->
<g id="edge57" class="edge">
<title>Node31&#45;&gt;Node32</title>
<path fill="none" stroke="#63b8ff" d="M1136.5,-219.75C1136.5,-212.8 1136.5,-202.85 1136.5,-194.13"/>
<polygon fill="#63b8ff" stroke="#63b8ff" points="1140,-194.09 1136.5,-184.09 1133,-194.09 1140,-194.09"/>
</g>
<!-- Node32&#45;&gt;Node5 -->
<g id="edge59" class="edge">
<title>Node32&#45;&gt;Node5</title>
<path fill="none" stroke="#63b8ff" d="M1097.8,-166.31C1095,-165.85 1092.21,-165.41 1089.5,-165 959.51,-145.49 922.7,-153.44 789.4,-128.91"/>
<polygon fill="#63b8ff" stroke="#63b8ff" points="789.68,-125.4 779.21,-127.01 788.4,-132.29 789.68,-125.4"/>
</g>
<!-- Node32&#45;&gt;Node9 -->
<g id="edge61" class="edge">
<title>Node32&#45;&gt;Node9</title>
<path fill="none" stroke="#63b8ff" d="M1115.87,-164.96C1082.4,-150.31 1015.56,-117.7 971.5,-74 958.18,-60.79 947.43,-42.16 940.62,-28.5"/>
<polygon fill="#63b8ff" stroke="#63b8ff" points="943.65,-26.73 936.2,-19.19 937.33,-29.73 943.65,-26.73"/>
</g>
<!-- Node32&#45;&gt;Node13 -->
<g id="edge58" class="edge">
<title>Node32&#45;&gt;Node13</title>
<path fill="none" stroke="#63b8ff" d="M1097.89,-166.52C1047.47,-157.39 958.77,-141.35 900.57,-130.82"/>
<polygon fill="#63b8ff" stroke="#63b8ff" points="900.89,-127.32 890.43,-128.99 899.65,-134.21 900.89,-127.32"/>
</g>
<!-- Node32&#45;&gt;Node16 -->
<g id="edge60" class="edge">
<title>Node32&#45;&gt;Node16</title>
<path fill="none" stroke="#63b8ff" d="M1104.53,-164.98C1069.78,-155.73 1014.23,-140.94 976.83,-130.98"/>
<polygon fill="#63b8ff" stroke="#63b8ff" points="977.36,-127.49 966.8,-128.3 975.56,-134.26 977.36,-127.49"/>
</g>
<!-- Node32&#45;&gt;Node17 -->
<g id="edge64" class="edge">
<title>Node32&#45;&gt;Node17</title>
<path fill="none" stroke="#63b8ff" d="M1145.5,-164.98C1153.69,-157.23 1166.01,-145.58 1175.97,-136.14"/>
<polygon fill="#63b8ff" stroke="#63b8ff" points="1178.48,-138.59 1183.34,-129.17 1173.67,-133.5 1178.48,-138.59"/>
</g>
<!-- Node32&#45;&gt;Node18 -->
<g id="edge62" class="edge">
<title>Node32&#45;&gt;Node18</title>
<path fill="none" stroke="#63b8ff" d="M1156.12,-164.85C1175.98,-156.03 1207.51,-141.87 1234.5,-129 1269.82,-112.16 1310.16,-91.79 1335.72,-78.74"/>
<polygon fill="#63b8ff" stroke="#63b8ff" points="1337.44,-81.79 1344.75,-74.12 1334.26,-75.56 1337.44,-81.79"/>
</g>
<!-- Node32&#45;&gt;Node19 -->
<g id="edge63" class="edge">
<title>Node32&#45;&gt;Node19</title>
<path fill="none" stroke="#63b8ff" d="M1131.18,-164.66C1120.46,-146.85 1096.1,-106.37 1082.04,-83.01"/>
<polygon fill="#63b8ff" stroke="#63b8ff" points="1084.87,-80.92 1076.71,-74.16 1078.87,-84.53 1084.87,-80.92"/>
</g>
<!-- Node33&#45;&gt;Node15 -->
<g id="edge66" class="edge">
<title>Node33&#45;&gt;Node15</title>
<path fill="none" stroke="#63b8ff" d="M799.75,-219.75C792.03,-212.03 780.6,-200.6 771.28,-191.28"/>
<polygon fill="#63b8ff" stroke="#63b8ff" points="773.64,-188.69 764.09,-184.09 768.69,-193.64 773.64,-188.69"/>
</g>
<!-- Node33&#45;&gt;Node16 -->
<g id="edge67" class="edge">
<title>Node33&#45;&gt;Node16</title>
<path fill="none" stroke="#63b8ff" d="M808.78,-219.97C809.67,-206.61 813.25,-180.66 827.5,-165 837.54,-153.98 871.38,-141.19 898.91,-132.17"/>
<polygon fill="#63b8ff" stroke="#63b8ff" points="900.26,-135.41 908.71,-129.02 898.12,-128.74 900.26,-135.41"/>
</g>
<!-- Node33&#45;&gt;Node17 -->
<g id="edge69" class="edge">
<title>Node33&#45;&gt;Node17</title>
<path fill="none" stroke="#63b8ff" d="M852.35,-227.95C969.6,-226.04 1283.56,-217.78 1314.5,-184 1341.64,-154.37 1280.39,-136.26 1235.22,-127.32"/>
<polygon fill="#63b8ff" stroke="#63b8ff" points="1235.77,-123.86 1225.29,-125.45 1234.47,-130.74 1235.77,-123.86"/>
</g>
<!-- Node33&#45;&gt;Node29 -->
<g id="edge68" class="edge">
<title>Node33&#45;&gt;Node29</title>
<path fill="none" stroke="#63b8ff" d="M818.94,-219.98C828.65,-212.07 843.32,-200.11 855,-190.58"/>
<polygon fill="#63b8ff" stroke="#63b8ff" points="857.33,-193.2 862.87,-184.17 852.9,-187.78 857.33,-193.2"/>
</g>
<!-- Node34&#45;&gt;Node5 -->
<g id="edge72" class="edge">
<title>Node34&#45;&gt;Node5</title>
<path fill="none" stroke="#63b8ff" d="M462.06,-168.83C519.14,-162.22 623.77,-148.91 721.74,-129.17"/>
<polygon fill="#63b8ff" stroke="#63b8ff" points="722.71,-132.55 731.81,-127.12 721.31,-125.69 722.71,-132.55"/>
</g>
<!-- Node34&#45;&gt;Node9 -->
<g id="edge75" class="edge">
<title>Node34&#45;&gt;Node9</title>
<path fill="none" stroke="#63b8ff" d="M411.27,-164.87C391.9,-143.54 347.3,-87.72 377.5,-55 413.07,-16.47 787.12,-11.29 900.26,-10.6"/>
<polygon fill="#63b8ff" stroke="#63b8ff" points="900.39,-14.1 910.37,-10.55 900.36,-7.1 900.39,-14.1"/>
</g>
<!-- Node34&#45;&gt;Node11 -->
<g id="edge73" class="edge">
<title>Node34&#45;&gt;Node11</title>
<path fill="none" stroke="#63b8ff" d="M401.99,-164.98C384.53,-156.5 357.49,-143.35 337.33,-133.54"/>
<polygon fill="#63b8ff" stroke="#63b8ff" points="338.86,-130.4 328.33,-129.17 335.79,-136.69 338.86,-130.4"/>
</g>
<!-- Node34&#45;&gt;Node13 -->
<g id="edge74" class="edge">
<title>Node34&#45;&gt;Node13</title>
<path fill="none" stroke="#63b8ff" d="M462.17,-168.82C529.14,-161.38 663.25,-146.06 786.7,-129.21"/>
<polygon fill="#63b8ff" stroke="#63b8ff" points="787.28,-132.67 796.71,-127.84 786.32,-125.73 787.28,-132.67"/>
</g>
<!-- Node34&#45;&gt;Node16 -->
<g id="edge71" class="edge">
<title>Node34&#45;&gt;Node16</title>
<path fill="none" stroke="#63b8ff" d="M462.1,-171.38C544.52,-166.88 731.62,-154.75 898.18,-129.02"/>
<polygon fill="#63b8ff" stroke="#63b8ff" points="898.77,-132.47 908.11,-127.46 897.69,-125.55 898.77,-132.47"/>
</g>
<!-- Node34&#45;&gt;Node17 -->
<g id="edge78" class="edge">
<title>Node34&#45;&gt;Node17</title>
<path fill="none" stroke="#63b8ff" d="M462.16,-170.57C597.14,-161.32 1013.93,-132.74 1149.45,-123.45"/>
<polygon fill="#63b8ff" stroke="#63b8ff" points="1150.09,-126.92 1159.83,-122.74 1149.61,-119.93 1150.09,-126.92"/>
</g>
<!-- Node34&#45;&gt;Node27 -->
<g id="edge77" class="edge">
<title>Node34&#45;&gt;Node27</title>
<path fill="none" stroke="#63b8ff" d="M418.38,-164.98C417.24,-156.04 415.5,-141.55 414.5,-129 413.3,-114.01 412.53,-96.98 412.07,-84.34"/>
<polygon fill="#63b8ff" stroke="#63b8ff" points="415.56,-84.02 411.73,-74.14 408.57,-84.25 415.56,-84.02"/>
</g>
<!-- Node35 -->
<g id="node35" class="node">
<title>Node35</title>
<g id="a_node35"><a xlink:title=" ">
<polygon fill="#e0e0e0" stroke="#999999" points="465.5,-129 423.5,-129 423.5,-110 465.5,-110 465.5,-129"/>
<text text-anchor="middle" x="444.5" y="-117" font-family="Helvetica,sans-Serif" font-size="10.00">array</text>
</a>
</g>
</g>
<!-- Node34&#45;&gt;Node35 -->
<g id="edge76" class="edge">
<title>Node34&#45;&gt;Node35</title>
<path fill="none" stroke="#63b8ff" d="M423.63,-164.75C427.01,-157.57 431.92,-147.18 436.12,-138.27"/>
<polygon fill="#63b8ff" stroke="#63b8ff" points="439.35,-139.63 440.45,-129.09 433.02,-136.64 439.35,-139.63"/>
</g>
<!-- Node36 -->
<g id="node36" class="node">
<title>Node36</title>
<g id="a_node36"><a xlink:href="../../dd/d72/growbuf_8h.html" target="_top" xlink:title=" ">
<polygon fill="white" stroke="#666666" points="643,-129 578,-129 578,-110 643,-110 643,-129"/>
<text text-anchor="middle" x="610.5" y="-117" font-family="Helvetica,sans-Serif" font-size="10.00">growbuf.h</text>
</a>
</g>
</g>
<!-- Node34&#45;&gt;Node36 -->
<g id="edge79" class="edge">
<title>Node34&#45;&gt;Node36</title>
<path fill="none" stroke="#63b8ff" d="M450.19,-164.98C482.67,-155.97 534.1,-141.7 569.91,-131.76"/>
<polygon fill="#63b8ff" stroke="#63b8ff" points="570.87,-135.13 579.57,-129.08 569,-128.38 570.87,-135.13"/>
</g>
<!-- Node38 -->
<g id="node38" class="node">
<title>Node38</title>
<g id="a_node38"><a xlink:href="../../da/d73/dispatcher_8h.html" target="_top" xlink:title=" ">
<polygon fill="white" stroke="#666666" points="559.5,-129 483.5,-129 483.5,-110 559.5,-110 559.5,-129"/>
<text text-anchor="middle" x="521.5" y="-117" font-family="Helvetica,sans-Serif" font-size="10.00">dispatcher.h</text>
</a>
</g>
</g>
<!-- Node34&#45;&gt;Node38 -->
<g id="edge84" class="edge">
<title>Node34&#45;&gt;Node38</title>
<path fill="none" stroke="#63b8ff" d="M435.89,-164.98C452.07,-156.57 477.07,-143.59 495.88,-133.81"/>
<polygon fill="#63b8ff" stroke="#63b8ff" points="497.55,-136.89 504.81,-129.17 494.33,-130.68 497.55,-136.89"/>
</g>
<!-- Node36&#45;&gt;Node9 -->
<g id="edge83" class="edge">
<title>Node36&#45;&gt;Node9</title>
<path fill="none" stroke="#63b8ff" d="M638.2,-109.95C666.5,-101.15 711.67,-86.94 750.5,-74 803.46,-56.35 864.68,-34.74 900.91,-21.82"/>
<polygon fill="#63b8ff" stroke="#63b8ff" points="902.19,-25.08 910.44,-18.42 899.84,-18.49 902.19,-25.08"/>
</g>
<!-- Node36&#45;&gt;Node20 -->
<g id="edge82" class="edge">
<title>Node36&#45;&gt;Node20</title>
<path fill="none" stroke="#63b8ff" d="M643.02,-111.41C688.59,-101.47 771.12,-83.47 818.16,-73.21"/>
<polygon fill="#63b8ff" stroke="#63b8ff" points="819.17,-76.57 828.19,-71.02 817.68,-69.73 819.17,-76.57"/>
</g>
<!-- Node36&#45;&gt;Node22 -->
<g id="edge81" class="edge">
<title>Node36&#45;&gt;Node22</title>
<path fill="none" stroke="#63b8ff" d="M643.02,-111.67C646.21,-111.08 649.42,-110.51 652.5,-110 767.99,-91.04 905.96,-75.71 969.41,-69.07"/>
<polygon fill="#63b8ff" stroke="#63b8ff" points="970.07,-72.52 979.66,-68 969.35,-65.55 970.07,-72.52"/>
</g>
<!-- Node37 -->
<g id="node37" class="node">
<title>Node37</title>
<g id="a_node37"><a xlink:title=" ">
<polygon fill="#e0e0e0" stroke="#999999" points="741,-74 696,-74 696,-55 741,-55 741,-74"/>
<text text-anchor="middle" x="718.5" y="-62" font-family="Helvetica,sans-Serif" font-size="10.00">utility</text>
</a>
</g>
</g>
<!-- Node36&#45;&gt;Node37 -->
<g id="edge80" class="edge">
<title>Node36&#45;&gt;Node37</title>
<path fill="none" stroke="#63b8ff" d="M627.85,-109.98C645.07,-101.54 671.7,-88.47 691.65,-78.68"/>
<polygon fill="#63b8ff" stroke="#63b8ff" points="693.4,-81.72 700.83,-74.17 690.31,-75.43 693.4,-81.72"/>
</g>
<!-- Node38&#45;&gt;Node27 -->
<g id="edge88" class="edge">
<title>Node38&#45;&gt;Node27</title>
<path fill="none" stroke="#63b8ff" d="M503.83,-109.98C486.21,-101.5 458.92,-88.35 438.57,-78.54"/>
<polygon fill="#63b8ff" stroke="#63b8ff" points="440.02,-75.36 429.49,-74.17 436.98,-81.66 440.02,-75.36"/>
</g>
<!-- Node38&#45;&gt;Node37 -->
<g id="edge86" class="edge">
<title>Node38&#45;&gt;Node37</title>
<path fill="none" stroke="#63b8ff" d="M553.65,-109.94C585.07,-101.56 634.54,-88.33 685.87,-74.43"/>
<polygon fill="#63b8ff" stroke="#63b8ff" points="687.08,-77.73 695.82,-71.74 685.25,-70.97 687.08,-77.73"/>
</g>
<!-- Node39 -->
<g id="node39" class="node">
<title>Node39</title>
<g id="a_node39"><a xlink:title=" ">
<polygon fill="#e0e0e0" stroke="#999999" points="508,-74 455,-74 455,-55 508,-55 508,-74"/>
<text text-anchor="middle" x="481.5" y="-62" font-family="Helvetica,sans-Serif" font-size="10.00">cstddef</text>
</a>
</g>
</g>
<!-- Node38&#45;&gt;Node39 -->
<g id="edge85" class="edge">
<title>Node38&#45;&gt;Node39</title>
<path fill="none" stroke="#63b8ff" d="M514.89,-109.75C509.24,-102.26 500.96,-91.28 494.05,-82.13"/>
<polygon fill="#63b8ff" stroke="#63b8ff" points="496.8,-79.96 487.98,-74.09 491.21,-84.18 496.8,-79.96"/>
</g>
<!-- Node40 -->
<g id="node40" class="node">
<title>Node40</title>
<g id="a_node40"><a xlink:title=" ">
<polygon fill="#e0e0e0" stroke="#999999" points="591,-74 526,-74 526,-55 591,-55 591,-74"/>
<text text-anchor="middle" x="558.5" y="-62" font-family="Helvetica,sans-Serif" font-size="10.00">functional</text>
</a>
</g>
</g>
<!-- Node38&#45;&gt;Node40 -->
<g id="edge87" class="edge">
<title>Node38&#45;&gt;Node40</title>
<path fill="none" stroke="#63b8ff" d="M527.61,-109.75C532.78,-102.34 540.35,-91.5 546.69,-82.41"/>
<polygon fill="#63b8ff" stroke="#63b8ff" points="549.65,-84.29 552.5,-74.09 543.91,-80.29 549.65,-84.29"/>
</g>
<!-- Node41 -->
<g id="node41" class="node">
<title>Node41</title>
<g id="a_node41"><a xlink:title=" ">
<polygon fill="#e0e0e0" stroke="#999999" points="678,-74 609,-74 609,-55 678,-55 678,-74"/>
<text text-anchor="middle" x="643.5" y="-62" font-family="Helvetica,sans-Serif" font-size="10.00">type_traits</text>
</a>
</g>
</g>
<!-- Node38&#45;&gt;Node41 -->
<g id="edge89" class="edge">
<title>Node38&#45;&gt;Node41</title>
<path fill="none" stroke="#63b8ff" d="M541.1,-109.98C560.82,-101.42 591.45,-88.11 614.08,-78.28"/>
<polygon fill="#63b8ff" stroke="#63b8ff" points="615.76,-81.37 623.54,-74.17 612.98,-74.94 615.76,-81.37"/>
</g>
</g>
</svg>
