<?xml version="1.0" encoding="UTF-8" standalone="no"?>
<!DOCTYPE svg PUBLIC "-//W3C//DTD SVG 1.1//EN"
 "http://www.w3.org/Graphics/SVG/1.1/DTD/svg11.dtd">
<!-- Generated by graphviz version 2.43.0 (0)
 -->
<!-- Title: /home/runner/work/doxygen/doxygen/libxml/xml.l Pages: 1 -->
<svg width="465pt" height="148pt"
 viewBox="0.00 0.00 464.50 148.00" xmlns="http://www.w3.org/2000/svg" xmlns:xlink="http://www.w3.org/1999/xlink">
<g id="graph0" class="graph" transform="scale(1 1) rotate(0) translate(4 144)">
<title>/home/runner/work/doxygen/doxygen/libxml/xml.l</title>
<!-- Node1 -->
<g id="node1" class="node">
<title>Node1</title>
<g id="a_node1"><a xlink:title=" ">
<polygon fill="#999999" stroke="#666666" points="236,-140 82,-140 82,-110 236,-110 236,-140"/>
<text text-anchor="start" x="90" y="-128" font-family="Helvetica,sans-Serif" font-size="10.00">/home/runner/work/doxygen</text>
<text text-anchor="middle" x="159" y="-117" font-family="Helvetica,sans-Serif" font-size="10.00">/doxygen/libxml/xml.l</text>
</a>
</g>
</g>
<!-- Node2 -->
<g id="node2" class="node">
<title>Node2</title>
<g id="a_node2"><a xlink:title=" ">
<polygon fill="#e0e0e0" stroke="#999999" points="50,-74 0,-74 0,-55 50,-55 50,-74"/>
<text text-anchor="middle" x="25" y="-62" font-family="Helvetica,sans-Serif" font-size="10.00">cstdint</text>
</a>
</g>
</g>
<!-- Node1&#45;&gt;Node2 -->
<g id="edge1" class="edge">
<title>Node1&#45;&gt;Node2</title>
<path fill="none" stroke="#63b8ff" d="M126.9,-109.99C104.75,-100.31 75.52,-87.56 54.05,-78.18"/>
<polygon fill="#63b8ff" stroke="#63b8ff" points="55.35,-74.93 44.79,-74.14 52.55,-81.35 55.35,-74.93"/>
</g>
<!-- Node3 -->
<g id="node3" class="node">
<title>Node3</title>
<g id="a_node3"><a xlink:title=" ">
<polygon fill="#e0e0e0" stroke="#999999" points="117.5,-74 68.5,-74 68.5,-55 117.5,-55 117.5,-74"/>
<text text-anchor="middle" x="93" y="-62" font-family="Helvetica,sans-Serif" font-size="10.00">cctype</text>
</a>
</g>
</g>
<!-- Node1&#45;&gt;Node3 -->
<g id="edge2" class="edge">
<title>Node1&#45;&gt;Node3</title>
<path fill="none" stroke="#63b8ff" d="M143.02,-109.84C133.25,-101.17 120.73,-90.08 110.66,-81.15"/>
<polygon fill="#63b8ff" stroke="#63b8ff" points="112.69,-78.28 102.89,-74.27 108.05,-83.52 112.69,-78.28"/>
</g>
<!-- Node4 -->
<g id="node4" class="node">
<title>Node4</title>
<g id="a_node4"><a xlink:title=" ">
<polygon fill="#e0e0e0" stroke="#999999" points="182.5,-74 135.5,-74 135.5,-55 182.5,-55 182.5,-74"/>
<text text-anchor="middle" x="159" y="-62" font-family="Helvetica,sans-Serif" font-size="10.00">vector</text>
</a>
</g>
</g>
<!-- Node1&#45;&gt;Node4 -->
<g id="edge3" class="edge">
<title>Node1&#45;&gt;Node4</title>
<path fill="none" stroke="#63b8ff" d="M159,-109.84C159,-102.21 159,-92.7 159,-84.45"/>
<polygon fill="#63b8ff" stroke="#63b8ff" points="162.5,-84.27 159,-74.27 155.5,-84.27 162.5,-84.27"/>
</g>
<!-- Node5 -->
<g id="node5" class="node">
<title>Node5</title>
<g id="a_node5"><a xlink:title=" ">
<polygon fill="#e0e0e0" stroke="#999999" points="247,-74 201,-74 201,-55 247,-55 247,-74"/>
<text text-anchor="middle" x="224" y="-62" font-family="Helvetica,sans-Serif" font-size="10.00">cstdio</text>
</a>
</g>
</g>
<!-- Node1&#45;&gt;Node5 -->
<g id="edge4" class="edge">
<title>Node1&#45;&gt;Node5</title>
<path fill="none" stroke="#63b8ff" d="M174.73,-109.84C184.36,-101.17 196.69,-90.08 206.61,-81.15"/>
<polygon fill="#63b8ff" stroke="#63b8ff" points="209.17,-83.56 214.26,-74.27 204.49,-78.35 209.17,-83.56"/>
</g>
<!-- Node6 -->
<g id="node6" class="node">
<title>Node6</title>
<g id="a_node6"><a xlink:href="../../d0/d62/xml_8h.html" target="_top" xlink:title=" ">
<polygon fill="white" stroke="#666666" points="309,-74 265,-74 265,-55 309,-55 309,-74"/>
<text text-anchor="middle" x="287" y="-62" font-family="Helvetica,sans-Serif" font-size="10.00">xml.h</text>
</a>
</g>
</g>
<!-- Node1&#45;&gt;Node6 -->
<g id="edge5" class="edge">
<title>Node1&#45;&gt;Node6</title>
<path fill="none" stroke="#63b8ff" d="M189.66,-109.99C210.73,-100.36 238.49,-87.67 258.97,-78.31"/>
<polygon fill="#63b8ff" stroke="#63b8ff" points="260.46,-81.48 268.1,-74.14 257.55,-75.11 260.46,-81.48"/>
</g>
<!-- Node7 -->
<g id="node7" class="node">
<title>Node7</title>
<g id="a_node7"><a xlink:title=" ">
<polygon fill="#e0e0e0" stroke="#999999" points="199,-19 141,-19 141,0 199,0 199,-19"/>
<text text-anchor="middle" x="170" y="-7" font-family="Helvetica,sans-Serif" font-size="10.00">memory</text>
</a>
</g>
</g>
<!-- Node6&#45;&gt;Node7 -->
<g id="edge6" class="edge">
<title>Node6&#45;&gt;Node7</title>
<path fill="none" stroke="#63b8ff" d="M268.2,-54.98C249.38,-46.46 220.18,-33.23 198.5,-23.41"/>
<polygon fill="#63b8ff" stroke="#63b8ff" points="199.69,-20.11 189.14,-19.17 196.8,-26.48 199.69,-20.11"/>
</g>
<!-- Node8 -->
<g id="node8" class="node">
<title>Node8</title>
<g id="a_node8"><a xlink:title=" ">
<polygon fill="#e0e0e0" stroke="#999999" points="282.5,-19 217.5,-19 217.5,0 282.5,0 282.5,-19"/>
<text text-anchor="middle" x="250" y="-7" font-family="Helvetica,sans-Serif" font-size="10.00">functional</text>
</a>
</g>
</g>
<!-- Node6&#45;&gt;Node8 -->
<g id="edge7" class="edge">
<title>Node6&#45;&gt;Node8</title>
<path fill="none" stroke="#63b8ff" d="M280.89,-54.75C275.72,-47.34 268.15,-36.5 261.81,-27.41"/>
<polygon fill="#63b8ff" stroke="#63b8ff" points="264.59,-25.29 256,-19.09 258.85,-29.29 264.59,-25.29"/>
</g>
<!-- Node9 -->
<g id="node9" class="node">
<title>Node9</title>
<g id="a_node9"><a xlink:title=" ">
<polygon fill="#e0e0e0" stroke="#999999" points="345,-19 301,-19 301,0 345,0 345,-19"/>
<text text-anchor="middle" x="323" y="-7" font-family="Helvetica,sans-Serif" font-size="10.00">string</text>
</a>
</g>
</g>
<!-- Node6&#45;&gt;Node9 -->
<g id="edge8" class="edge">
<title>Node6&#45;&gt;Node9</title>
<path fill="none" stroke="#63b8ff" d="M292.94,-54.75C297.98,-47.34 305.34,-36.5 311.51,-27.41"/>
<polygon fill="#63b8ff" stroke="#63b8ff" points="314.44,-29.33 317.17,-19.09 308.65,-25.39 314.44,-29.33"/>
</g>
<!-- Node10 -->
<g id="node10" class="node">
<title>Node10</title>
<g id="a_node10"><a xlink:title=" ">
<polygon fill="#e0e0e0" stroke="#999999" points="456.5,-19 363.5,-19 363.5,0 456.5,0 456.5,-19"/>
<text text-anchor="middle" x="410" y="-7" font-family="Helvetica,sans-Serif" font-size="10.00">unordered_map</text>
</a>
</g>
</g>
<!-- Node6&#45;&gt;Node10 -->
<g id="edge9" class="edge">
<title>Node6&#45;&gt;Node10</title>
<path fill="none" stroke="#63b8ff" d="M306.76,-54.98C326.73,-46.38 357.8,-32.99 380.65,-23.15"/>
<polygon fill="#63b8ff" stroke="#63b8ff" points="382.08,-26.34 389.88,-19.17 379.31,-19.91 382.08,-26.34"/>
</g>
</g>
</svg>
