<?xml version="1.0" encoding="UTF-8" standalone="no"?>
<!DOCTYPE svg PUBLIC "-//W3C//DTD SVG 1.1//EN"
 "http://www.w3.org/Graphics/SVG/1.1/DTD/svg11.dtd">
<!-- Generated by graphviz version 2.43.0 (0)
 -->
<!-- Title: /home/runner/work/doxygen/doxygen/src/searchindex.h Pages: 1 -->
<!--zoomable 203 -->
<svg id="main" version="1.1" xmlns="http://www.w3.org/2000/svg" xmlns:xlink="http://www.w3.org/1999/xlink" xml:space="preserve" onload="init(evt)">
<style type="text/css"><![CDATA[
.edge:hover path { stroke: red; }
.edge:hover polygon { stroke: red; fill: red; }
]]></style>
<script type="text/javascript"><![CDATA[
var edges = document.getElementsByTagName('g');
if (edges && edges.length) {
  for (var i=0;i<edges.length;i++) {
    if (edges[i].id.substr(0,4)=='edge') {
      edges[i].setAttribute('class','edge');
    }
  }
}
]]></script>
        <defs>
                <circle id="rim" cx="0" cy="0" r="7"/>
                <circle id="rim2" cx="0" cy="0" r="3.5"/>
                <g id="zoomPlus">
                        <use xlink:href="#rim" fill="#404040">
                                <set attributeName="fill" to="#808080" begin="zoomplus.mouseover" end="zoomplus.mouseout"/>
                        </use>
                        <path d="M-4,0h8M0,-4v8" fill="none" stroke="white" stroke-width="1.5" pointer-events="none"/>
                </g>
                <g id="zoomMin">
                        <use xlink:href="#rim" fill="#404040">
                                <set attributeName="fill" to="#808080" begin="zoomminus.mouseover" end="zoomminus.mouseout"/>
                        </use>
                        <path d="M-4,0h8" fill="none" stroke="white" stroke-width="1.5" pointer-events="none"/>
                </g>
                <g id="dirArrow">
                        <path fill="none" stroke="white" stroke-width="1.5" d="M0,-3.0v7 M-2.5,-0.5L0,-3.0L2.5,-0.5"/>
                </g>
               <g id="resetDef">
                       <use xlink:href="#rim2" fill="#404040">
                               <set attributeName="fill" to="#808080" begin="reset.mouseover" end="reset.mouseout"/>
                       </use>
               </g>
        </defs>

<script type="text/javascript">
var viewWidth = 980;
var viewHeight = 203;
var sectionId = 'dynsection-0';
</script>
<script xlink:href="../../svgpan.js"/>
<svg id="graph" class="graph">
<g id="viewport">
<title>/home/runner/work/doxygen/doxygen/src/searchindex.h</title>
<!-- Node1 -->
<g id="node1" class="node">
<title>Node1</title>
<g id="a_node1"><a xlink:title="Web server based search engine.">
<polygon fill="#999999" stroke="#666666" points="477.86,-195 323.86,-195 323.86,-165 477.86,-165 477.86,-195"/>
<text text-anchor="start" x="331.86" y="-183" font-family="Helvetica,sans-Serif" font-size="10.00">/home/runner/work/doxygen</text>
<text text-anchor="middle" x="400.86" y="-172" font-family="Helvetica,sans-Serif" font-size="10.00">/doxygen/src/searchindex.h</text>
</a>
</g>
</g>
<!-- Node2 -->
<g id="node2" class="node">
<title>Node2</title>
<g id="a_node2"><a xlink:title=" ">
<polygon fill="#e0e0e0" stroke="#999999" points="80.86,-129 22.86,-129 22.86,-110 80.86,-110 80.86,-129"/>
<text text-anchor="middle" x="51.86" y="-117" font-family="Helvetica,sans-Serif" font-size="10.00">memory</text>
</a>
</g>
</g>
<!-- Node1&#45;&gt;Node2 -->
<g id="edge1" class="edge">
<title>Node1&#45;&gt;Node2</title>
<path fill="none" stroke="#63b8ff" d="M323.63,-167.91C262.9,-158.89 175.95,-145.29 90.72,-129.07"/>
<polygon fill="#63b8ff" stroke="#63b8ff" points="91.35,-125.62 80.87,-127.18 90.03,-132.5 91.35,-125.62"/>
</g>
<!-- Node3 -->
<g id="node3" class="node">
<title>Node3</title>
<g id="a_node3"><a xlink:title=" ">
<polygon fill="#e0e0e0" stroke="#999999" points="146.36,-129 99.36,-129 99.36,-110 146.36,-110 146.36,-129"/>
<text text-anchor="middle" x="122.86" y="-117" font-family="Helvetica,sans-Serif" font-size="10.00">vector</text>
</a>
</g>
</g>
<!-- Node1&#45;&gt;Node3 -->
<g id="edge2" class="edge">
<title>Node1&#45;&gt;Node3</title>
<path fill="none" stroke="#63b8ff" d="M327.22,-164.98C280.94,-155.94 219.77,-143.56 156.75,-129.11"/>
<polygon fill="#63b8ff" stroke="#63b8ff" points="157.15,-125.61 146.62,-126.77 155.58,-132.43 157.15,-125.61"/>
</g>
<!-- Node4 -->
<g id="node4" class="node">
<title>Node4</title>
<g id="a_node4"><a xlink:title=" ">
<polygon fill="#e0e0e0" stroke="#999999" points="202.86,-129 164.86,-129 164.86,-110 202.86,-110 202.86,-129"/>
<text text-anchor="middle" x="183.86" y="-117" font-family="Helvetica,sans-Serif" font-size="10.00">map</text>
</a>
</g>
</g>
<!-- Node1&#45;&gt;Node4 -->
<g id="edge3" class="edge">
<title>Node1&#45;&gt;Node4</title>
<path fill="none" stroke="#63b8ff" d="M346.47,-164.92C308.87,-155.09 257.75,-141.55 212.86,-129 212.76,-128.97 212.66,-128.94 212.56,-128.92"/>
<polygon fill="#63b8ff" stroke="#63b8ff" points="213.45,-125.53 202.88,-126.15 211.53,-132.26 213.45,-125.53"/>
</g>
<!-- Node5 -->
<g id="node5" class="node">
<title>Node5</title>
<g id="a_node5"><a xlink:title=" ">
<polygon fill="#e0e0e0" stroke="#999999" points="314.36,-129 221.36,-129 221.36,-110 314.36,-110 314.36,-129"/>
<text text-anchor="middle" x="267.86" y="-117" font-family="Helvetica,sans-Serif" font-size="10.00">unordered_map</text>
</a>
</g>
</g>
<!-- Node1&#45;&gt;Node5 -->
<g id="edge4" class="edge">
<title>Node1&#45;&gt;Node5</title>
<path fill="none" stroke="#63b8ff" d="M369.01,-164.99C347.01,-155.31 318.01,-142.56 296.7,-133.18"/>
<polygon fill="#63b8ff" stroke="#63b8ff" points="298.07,-129.96 287.5,-129.14 295.25,-136.37 298.07,-129.96"/>
</g>
<!-- Node6 -->
<g id="node6" class="node">
<title>Node6</title>
<g id="a_node6"><a xlink:title=" ">
<polygon fill="#e0e0e0" stroke="#999999" points="485.86,-19 441.86,-19 441.86,0 485.86,0 485.86,-19"/>
<text text-anchor="middle" x="463.86" y="-7" font-family="Helvetica,sans-Serif" font-size="10.00">string</text>
</a>
</g>
</g>
<!-- Node1&#45;&gt;Node6 -->
<g id="edge5" class="edge">
<title>Node1&#45;&gt;Node6</title>
<path fill="none" stroke="#63b8ff" d="M477.88,-171.84C505.48,-165.12 533.93,-152.49 550.86,-129 559.34,-117.24 565.53,-83.76 546.86,-55 535.22,-37.06 513.81,-25.84 495.66,-19.15"/>
<polygon fill="#63b8ff" stroke="#63b8ff" points="496.58,-15.77 485.99,-15.89 494.34,-22.4 496.58,-15.77"/>
</g>
<!-- Node7 -->
<g id="node7" class="node">
<title>Node7</title>
<g id="a_node7"><a xlink:title=" ">
<polygon fill="#e0e0e0" stroke="#999999" points="457.86,-129 415.86,-129 415.86,-110 457.86,-110 457.86,-129"/>
<text text-anchor="middle" x="436.86" y="-117" font-family="Helvetica,sans-Serif" font-size="10.00">array</text>
</a>
</g>
</g>
<!-- Node1&#45;&gt;Node7 -->
<g id="edge6" class="edge">
<title>Node1&#45;&gt;Node7</title>
<path fill="none" stroke="#63b8ff" d="M409.58,-164.84C414.54,-156.78 420.79,-146.62 426.06,-138.06"/>
<polygon fill="#63b8ff" stroke="#63b8ff" points="429.21,-139.62 431.47,-129.27 423.25,-135.95 429.21,-139.62"/>
</g>
<!-- Node8 -->
<g id="node8" class="node">
<title>Node8</title>
<g id="a_node8"><a xlink:title=" ">
<polygon fill="#e0e0e0" stroke="#999999" points="731.36,-74 680.36,-74 680.36,-55 731.36,-55 731.36,-74"/>
<text text-anchor="middle" x="705.86" y="-62" font-family="Helvetica,sans-Serif" font-size="10.00">variant</text>
</a>
</g>
</g>
<!-- Node1&#45;&gt;Node8 -->
<g id="edge7" class="edge">
<title>Node1&#45;&gt;Node8</title>
<path fill="none" stroke="#63b8ff" d="M477.96,-165.77C516.4,-157.72 563.06,-145.72 602.86,-129 633.77,-116.02 666.16,-94.55 686.18,-80.22"/>
<polygon fill="#63b8ff" stroke="#63b8ff" points="688.44,-82.91 694.46,-74.19 684.32,-77.25 688.44,-82.91"/>
</g>
<!-- Node9 -->
<g id="node9" class="node">
<title>Node9</title>
<g id="a_node9"><a xlink:href="../../d7/d5c/qcstring_8h.html" target="_top" xlink:title=" ">
<polygon fill="white" stroke="#666666" points="397.36,-129 332.36,-129 332.36,-110 397.36,-110 397.36,-129"/>
<text text-anchor="middle" x="364.86" y="-117" font-family="Helvetica,sans-Serif" font-size="10.00">qcstring.h</text>
</a>
</g>
</g>
<!-- Node1&#45;&gt;Node9 -->
<g id="edge8" class="edge">
<title>Node1&#45;&gt;Node9</title>
<path fill="none" stroke="#63b8ff" d="M392.15,-164.84C387.19,-156.78 380.94,-146.62 375.67,-138.06"/>
<polygon fill="#63b8ff" stroke="#63b8ff" points="378.48,-135.95 370.26,-129.27 372.52,-139.62 378.48,-135.95"/>
</g>
<!-- Node18 -->
<g id="node18" class="node">
<title>Node18</title>
<g id="a_node18"><a xlink:href="../../dd/d72/growbuf_8h.html" target="_top" xlink:title=" ">
<polygon fill="white" stroke="#666666" points="541.36,-129 476.36,-129 476.36,-110 541.36,-110 541.36,-129"/>
<text text-anchor="middle" x="508.86" y="-117" font-family="Helvetica,sans-Serif" font-size="10.00">growbuf.h</text>
</a>
</g>
</g>
<!-- Node1&#45;&gt;Node18 -->
<g id="edge20" class="edge">
<title>Node1&#45;&gt;Node18</title>
<path fill="none" stroke="#63b8ff" d="M426.73,-164.99C444.11,-155.58 466.87,-143.24 484.03,-133.95"/>
<polygon fill="#63b8ff" stroke="#63b8ff" points="485.79,-136.98 492.91,-129.14 482.45,-130.82 485.79,-136.98"/>
</g>
<!-- Node20 -->
<g id="node20" class="node">
<title>Node20</title>
<g id="a_node20"><a xlink:href="../../da/d73/dispatcher_8h.html" target="_top" xlink:title=" ">
<polygon fill="white" stroke="#666666" points="778.86,-129 702.86,-129 702.86,-110 778.86,-110 778.86,-129"/>
<text text-anchor="middle" x="740.86" y="-117" font-family="Helvetica,sans-Serif" font-size="10.00">dispatcher.h</text>
</a>
</g>
</g>
<!-- Node1&#45;&gt;Node20 -->
<g id="edge25" class="edge">
<title>Node1&#45;&gt;Node20</title>
<path fill="none" stroke="#63b8ff" d="M478.01,-165.73C543.86,-154.4 636.52,-138.45 692.42,-128.84"/>
<polygon fill="#63b8ff" stroke="#63b8ff" points="693.15,-132.26 702.41,-127.12 691.96,-125.36 693.15,-132.26"/>
</g>
<!-- Node9&#45;&gt;Node6 -->
<g id="edge9" class="edge">
<title>Node9&#45;&gt;Node6</title>
<path fill="none" stroke="#63b8ff" d="M367.43,-109.85C371.66,-96.78 381.1,-71.75 395.86,-55 407.16,-42.19 422.98,-31.54 436.52,-23.88"/>
<polygon fill="#63b8ff" stroke="#63b8ff" points="438.31,-26.89 445.44,-19.06 434.98,-20.73 438.31,-26.89"/>
</g>
<!-- Node10 -->
<g id="node10" class="node">
<title>Node10</title>
<g id="a_node10"><a xlink:title=" ">
<polygon fill="#e0e0e0" stroke="#999999" points="216.86,-74 152.86,-74 152.86,-55 216.86,-55 216.86,-74"/>
<text text-anchor="middle" x="184.86" y="-62" font-family="Helvetica,sans-Serif" font-size="10.00">algorithm</text>
</a>
</g>
</g>
<!-- Node9&#45;&gt;Node10 -->
<g id="edge10" class="edge">
<title>Node9&#45;&gt;Node10</title>
<path fill="none" stroke="#63b8ff" d="M335.94,-109.98C305.59,-101.05 257.69,-86.94 223.98,-77.02"/>
<polygon fill="#63b8ff" stroke="#63b8ff" points="224.59,-73.55 214.01,-74.08 222.61,-80.26 224.59,-73.55"/>
</g>
<!-- Node11 -->
<g id="node11" class="node">
<title>Node11</title>
<g id="a_node11"><a xlink:title=" ">
<polygon fill="#e0e0e0" stroke="#999999" points="284.36,-74 235.36,-74 235.36,-55 284.36,-55 284.36,-74"/>
<text text-anchor="middle" x="259.86" y="-62" font-family="Helvetica,sans-Serif" font-size="10.00">cctype</text>
</a>
</g>
</g>
<!-- Node9&#45;&gt;Node11 -->
<g id="edge11" class="edge">
<title>Node9&#45;&gt;Node11</title>
<path fill="none" stroke="#63b8ff" d="M347.99,-109.98C331.25,-101.54 305.37,-88.47 285.97,-78.68"/>
<polygon fill="#63b8ff" stroke="#63b8ff" points="287.54,-75.55 277.04,-74.17 284.39,-81.8 287.54,-75.55"/>
</g>
<!-- Node12 -->
<g id="node12" class="node">
<title>Node12</title>
<g id="a_node12"><a xlink:title=" ">
<polygon fill="#e0e0e0" stroke="#999999" points="454.86,-74 404.86,-74 404.86,-55 454.86,-55 454.86,-74"/>
<text text-anchor="middle" x="429.86" y="-62" font-family="Helvetica,sans-Serif" font-size="10.00">cstring</text>
</a>
</g>
</g>
<!-- Node9&#45;&gt;Node12 -->
<g id="edge12" class="edge">
<title>Node9&#45;&gt;Node12</title>
<path fill="none" stroke="#63b8ff" d="M375.31,-109.98C385.01,-102.07 399.68,-90.11 411.36,-80.58"/>
<polygon fill="#63b8ff" stroke="#63b8ff" points="413.69,-83.2 419.23,-74.17 409.27,-77.78 413.69,-83.2"/>
</g>
<!-- Node13 -->
<g id="node13" class="node">
<title>Node13</title>
<g id="a_node13"><a xlink:title=" ">
<polygon fill="#e0e0e0" stroke="#999999" points="348.86,-74 302.86,-74 302.86,-55 348.86,-55 348.86,-74"/>
<text text-anchor="middle" x="325.86" y="-62" font-family="Helvetica,sans-Serif" font-size="10.00">cstdio</text>
</a>
</g>
</g>
<!-- Node9&#45;&gt;Node13 -->
<g id="edge13" class="edge">
<title>Node9&#45;&gt;Node13</title>
<path fill="none" stroke="#63b8ff" d="M358.42,-109.75C352.97,-102.34 345,-91.5 338.31,-82.41"/>
<polygon fill="#63b8ff" stroke="#63b8ff" points="340.93,-80.07 332.18,-74.09 335.29,-84.22 340.93,-80.07"/>
</g>
<!-- Node14 -->
<g id="node14" class="node">
<title>Node14</title>
<g id="a_node14"><a xlink:title=" ">
<polygon fill="#e0e0e0" stroke="#999999" points="522.36,-74 473.36,-74 473.36,-55 522.36,-55 522.36,-74"/>
<text text-anchor="middle" x="497.86" y="-62" font-family="Helvetica,sans-Serif" font-size="10.00">cstdlib</text>
</a>
</g>
</g>
<!-- Node9&#45;&gt;Node14 -->
<g id="edge14" class="edge">
<title>Node9&#45;&gt;Node14</title>
<path fill="none" stroke="#63b8ff" d="M386.23,-109.98C408.01,-101.3 442.02,-87.75 466.79,-77.88"/>
<polygon fill="#63b8ff" stroke="#63b8ff" points="468.11,-81.12 476.11,-74.17 465.52,-74.62 468.11,-81.12"/>
</g>
<!-- Node15 -->
<g id="node15" class="node">
<title>Node15</title>
<g id="a_node15"><a xlink:title=" ">
<polygon fill="#e0e0e0" stroke="#999999" points="73.86,-19 23.86,-19 23.86,0 73.86,0 73.86,-19"/>
<text text-anchor="middle" x="48.86" y="-7" font-family="Helvetica,sans-Serif" font-size="10.00">cstdint</text>
</a>
</g>
</g>
<!-- Node9&#45;&gt;Node15 -->
<g id="edge15" class="edge">
<title>Node9&#45;&gt;Node15</title>
<path fill="none" stroke="#63b8ff" d="M332.24,-111.45C329.41,-110.93 326.59,-110.44 323.86,-110 253.42,-98.75 52.4,-127.2 4.86,-74 -8.96,-58.53 9.99,-38.57 27.15,-25.2"/>
<polygon fill="#63b8ff" stroke="#63b8ff" points="29.3,-27.96 35.28,-19.21 25.15,-22.32 29.3,-27.96"/>
</g>
<!-- Node16 -->
<g id="node16" class="node">
<title>Node16</title>
<g id="a_node16"><a xlink:title=" ">
<polygon fill="#e0e0e0" stroke="#999999" points="71.36,-74 14.36,-74 14.36,-55 71.36,-55 71.36,-74"/>
<text text-anchor="middle" x="42.86" y="-62" font-family="Helvetica,sans-Serif" font-size="10.00">ostream</text>
</a>
</g>
</g>
<!-- Node9&#45;&gt;Node16 -->
<g id="edge16" class="edge">
<title>Node9&#45;&gt;Node16</title>
<path fill="none" stroke="#63b8ff" d="M332.22,-111.56C329.4,-111.01 326.58,-110.48 323.86,-110 219.09,-91.43 189.32,-94.11 81.48,-74.18"/>
<polygon fill="#63b8ff" stroke="#63b8ff" points="81.97,-70.71 71.5,-72.31 80.69,-77.59 81.97,-70.71"/>
</g>
<!-- Node17 -->
<g id="node17" class="node">
<title>Node17</title>
<g id="a_node17"><a xlink:href="../../db/d7c/utf8_8h.html" target="_top" xlink:title="Various UTF8 related helper functions.">
<polygon fill="white" stroke="#666666" points="134.36,-74 89.36,-74 89.36,-55 134.36,-55 134.36,-74"/>
<text text-anchor="middle" x="111.86" y="-62" font-family="Helvetica,sans-Serif" font-size="10.00">utf8.h</text>
</a>
</g>
</g>
<!-- Node9&#45;&gt;Node17 -->
<g id="edge17" class="edge">
<title>Node9&#45;&gt;Node17</title>
<path fill="none" stroke="#63b8ff" d="M332.19,-111.71C329.38,-111.13 326.57,-110.55 323.86,-110 247.04,-94.36 225.03,-92.6 144.65,-74.06"/>
<polygon fill="#63b8ff" stroke="#63b8ff" points="145.08,-70.57 134.55,-71.71 143.49,-77.38 145.08,-70.57"/>
</g>
<!-- Node17&#45;&gt;Node6 -->
<g id="edge19" class="edge">
<title>Node17&#45;&gt;Node6</title>
<path fill="none" stroke="#63b8ff" d="M134.51,-57.12C137.64,-56.35 140.82,-55.61 143.86,-55 248.17,-33.98 373.59,-19.68 431.57,-13.68"/>
<polygon fill="#63b8ff" stroke="#63b8ff" points="432,-17.15 441.59,-12.66 431.29,-10.19 432,-17.15"/>
</g>
<!-- Node17&#45;&gt;Node15 -->
<g id="edge18" class="edge">
<title>Node17&#45;&gt;Node15</title>
<path fill="none" stroke="#63b8ff" d="M101.74,-54.98C92.43,-47.15 78.4,-35.34 67.13,-25.86"/>
<polygon fill="#63b8ff" stroke="#63b8ff" points="69.08,-22.93 59.17,-19.17 64.57,-28.29 69.08,-22.93"/>
</g>
<!-- Node18&#45;&gt;Node6 -->
<g id="edge24" class="edge">
<title>Node18&#45;&gt;Node6</title>
<path fill="none" stroke="#63b8ff" d="M516.4,-109.94C526.45,-97.42 541.9,-73.57 531.86,-55 524.01,-40.48 509.13,-29.94 495.29,-22.77"/>
<polygon fill="#63b8ff" stroke="#63b8ff" points="496.51,-19.47 485.97,-18.34 493.5,-25.79 496.51,-19.47"/>
</g>
<!-- Node18&#45;&gt;Node12 -->
<g id="edge23" class="edge">
<title>Node18&#45;&gt;Node12</title>
<path fill="none" stroke="#63b8ff" d="M496.17,-109.98C484.03,-101.84 465.51,-89.41 451.12,-79.76"/>
<polygon fill="#63b8ff" stroke="#63b8ff" points="453.04,-76.84 442.79,-74.17 449.14,-82.65 453.04,-76.84"/>
</g>
<!-- Node18&#45;&gt;Node14 -->
<g id="edge22" class="edge">
<title>Node18&#45;&gt;Node14</title>
<path fill="none" stroke="#63b8ff" d="M507.05,-109.75C505.61,-102.8 503.54,-92.85 501.73,-84.13"/>
<polygon fill="#63b8ff" stroke="#63b8ff" points="505.11,-83.17 499.65,-74.09 498.25,-84.59 505.11,-83.17"/>
</g>
<!-- Node19 -->
<g id="node19" class="node">
<title>Node19</title>
<g id="a_node19"><a xlink:title=" ">
<polygon fill="#e0e0e0" stroke="#999999" points="662.36,-74 617.36,-74 617.36,-55 662.36,-55 662.36,-74"/>
<text text-anchor="middle" x="639.86" y="-62" font-family="Helvetica,sans-Serif" font-size="10.00">utility</text>
</a>
</g>
</g>
<!-- Node18&#45;&gt;Node19 -->
<g id="edge21" class="edge">
<title>Node18&#45;&gt;Node19</title>
<path fill="none" stroke="#63b8ff" d="M529.91,-109.98C551.27,-101.34 584.57,-87.87 608.93,-78.02"/>
<polygon fill="#63b8ff" stroke="#63b8ff" points="610.48,-81.17 618.43,-74.17 607.85,-74.68 610.48,-81.17"/>
</g>
<!-- Node20&#45;&gt;Node8 -->
<g id="edge29" class="edge">
<title>Node20&#45;&gt;Node8</title>
<path fill="none" stroke="#63b8ff" d="M735.08,-109.75C730.24,-102.42 723.18,-91.73 717.22,-82.7"/>
<polygon fill="#63b8ff" stroke="#63b8ff" points="719.97,-80.5 711.54,-74.09 714.13,-84.36 719.97,-80.5"/>
</g>
<!-- Node20&#45;&gt;Node19 -->
<g id="edge27" class="edge">
<title>Node20&#45;&gt;Node19</title>
<path fill="none" stroke="#63b8ff" d="M724.64,-109.98C708.68,-101.61 684.08,-88.7 665.49,-78.95"/>
<polygon fill="#63b8ff" stroke="#63b8ff" points="666.87,-75.72 656.39,-74.17 663.61,-81.92 666.87,-75.72"/>
</g>
<!-- Node21 -->
<g id="node21" class="node">
<title>Node21</title>
<g id="a_node21"><a xlink:title=" ">
<polygon fill="#e0e0e0" stroke="#999999" points="802.36,-74 749.36,-74 749.36,-55 802.36,-55 802.36,-74"/>
<text text-anchor="middle" x="775.86" y="-62" font-family="Helvetica,sans-Serif" font-size="10.00">cstddef</text>
</a>
</g>
</g>
<!-- Node20&#45;&gt;Node21 -->
<g id="edge26" class="edge">
<title>Node20&#45;&gt;Node21</title>
<path fill="none" stroke="#63b8ff" d="M746.64,-109.75C751.48,-102.42 758.54,-91.73 764.51,-82.7"/>
<polygon fill="#63b8ff" stroke="#63b8ff" points="767.6,-84.36 770.19,-74.09 761.76,-80.5 767.6,-84.36"/>
</g>
<!-- Node22 -->
<g id="node22" class="node">
<title>Node22</title>
<g id="a_node22"><a xlink:title=" ">
<polygon fill="#e0e0e0" stroke="#999999" points="885.36,-74 820.36,-74 820.36,-55 885.36,-55 885.36,-74"/>
<text text-anchor="middle" x="852.86" y="-62" font-family="Helvetica,sans-Serif" font-size="10.00">functional</text>
</a>
</g>
</g>
<!-- Node20&#45;&gt;Node22 -->
<g id="edge28" class="edge">
<title>Node20&#45;&gt;Node22</title>
<path fill="none" stroke="#63b8ff" d="M758.86,-109.98C776.79,-101.5 804.58,-88.35 825.3,-78.54"/>
<polygon fill="#63b8ff" stroke="#63b8ff" points="827,-81.61 834.54,-74.17 824.01,-75.28 827,-81.61"/>
</g>
<!-- Node23 -->
<g id="node23" class="node">
<title>Node23</title>
<g id="a_node23"><a xlink:title=" ">
<polygon fill="#e0e0e0" stroke="#999999" points="972.36,-74 903.36,-74 903.36,-55 972.36,-55 972.36,-74"/>
<text text-anchor="middle" x="937.86" y="-62" font-family="Helvetica,sans-Serif" font-size="10.00">type_traits</text>
</a>
</g>
</g>
<!-- Node20&#45;&gt;Node23 -->
<g id="edge30" class="edge">
<title>Node20&#45;&gt;Node23</title>
<path fill="none" stroke="#63b8ff" d="M772.51,-109.98C806.02,-100.97 859.06,-86.7 896,-76.76"/>
<polygon fill="#63b8ff" stroke="#63b8ff" points="897.22,-80.06 905.96,-74.08 895.4,-73.3 897.22,-80.06"/>
</g>
</g>
</svg>
        <g id="navigator" transform="translate(0 0)" fill="#404254">
                <rect fill="#f2f5e9" fill-opacity="0.5" stroke="#606060" stroke-width=".5" x="0" y="0" width="60" height="60"/>
                <use id="zoomplus" xlink:href="#zoomPlus" x="17" y="9" onmousedown="handleZoom(evt,'in')"/>
                <use id="zoomminus" xlink:href="#zoomMin" x="42" y="9" onmousedown="handleZoom(evt,'out')"/>
                <use id="reset" xlink:href="#resetDef" x="30" y="36" onmousedown="handleReset()"/>
                <g id="arrowUp" xlink:href="#dirArrow" transform="translate(30 24)" onmousedown="handlePan(0,-1)">
                  <use xlink:href="#rim" fill="#404040">
                        <set attributeName="fill" to="#808080" begin="arrowUp.mouseover" end="arrowUp.mouseout"/>
                  </use>
                  <path fill="none" stroke="white" stroke-width="1.5" d="M0,-3.0v7 M-2.5,-0.5L0,-3.0L2.5,-0.5"/>
                </g>
                <g id="arrowRight" xlink:href="#dirArrow" transform="rotate(90) translate(36 -43)" onmousedown="handlePan(1,0)">
                  <use xlink:href="#rim" fill="#404040">
                        <set attributeName="fill" to="#808080" begin="arrowRight.mouseover" end="arrowRight.mouseout"/>
                  </use>
                  <path fill="none" stroke="white" stroke-width="1.5" d="M0,-3.0v7 M-2.5,-0.5L0,-3.0L2.5,-0.5"/>
                </g>
                <g id="arrowDown" xlink:href="#dirArrow" transform="rotate(180) translate(-30 -48)" onmousedown="handlePan(0,1)">
                  <use xlink:href="#rim" fill="#404040">
                        <set attributeName="fill" to="#808080" begin="arrowDown.mouseover" end="arrowDown.mouseout"/>
                  </use>
                  <path fill="none" stroke="white" stroke-width="1.5" d="M0,-3.0v7 M-2.5,-0.5L0,-3.0L2.5,-0.5"/>
                </g>
                <g id="arrowLeft" xlink:href="#dirArrow" transform="rotate(270) translate(-36 17)" onmousedown="handlePan(-1,0)">
                  <use xlink:href="#rim" fill="#404040">
                        <set attributeName="fill" to="#808080" begin="arrowLeft.mouseover" end="arrowLeft.mouseout"/>
                  </use>
                  <path fill="none" stroke="white" stroke-width="1.5" d="M0,-3.0v7 M-2.5,-0.5L0,-3.0L2.5,-0.5"/>
                </g>
        </g>
        <svg viewBox="0 0 15 15" width="100%" height="30px" preserveAspectRatio="xMaxYMin meet">
         <g id="arrow_out" transform="scale(0.3 0.3)">
          <a xlink:href="searchindex_8h__incl_org.svg" target="_base">
           <rect id="button" ry="5" rx="5" y="6" x="6" height="38" width="38"
                fill="#f2f5e9" fill-opacity="0.5" stroke="#606060" stroke-width="1.0"/>
           <path id="arrow"
             d="M 11.500037,31.436501 C 11.940474,20.09759 22.043105,11.32322 32.158766,21.979434 L 37.068811,17.246167 C 37.068811,17.246167 37.088388,32 37.088388,32 L 22.160133,31.978069 C 22.160133,31.978069 26.997745,27.140456 26.997745,27.140456 C 18.528582,18.264221 13.291696,25.230495 11.500037,31.436501 z"
             style="fill:#404040;"/>
          </a>
         </g>
        </svg>
</svg>
