<?xml version="1.0" encoding="UTF-8" standalone="no"?>
<!DOCTYPE svg PUBLIC "-//W3C//DTD SVG 1.1//EN"
 "http://www.w3.org/Graphics/SVG/1.1/DTD/svg11.dtd">
<!-- Generated by graphviz version 2.43.0 (0)
 -->
<!-- Title: /home/runner/work/doxygen/doxygen/src/constexp.l Pages: 1 -->
<!--zoomable 258 -->
<svg id="main" version="1.1" xmlns="http://www.w3.org/2000/svg" xmlns:xlink="http://www.w3.org/1999/xlink" xml:space="preserve" onload="init(evt)">
<style type="text/css"><![CDATA[
.edge:hover path { stroke: red; }
.edge:hover polygon { stroke: red; fill: red; }
]]></style>
<script type="text/javascript"><![CDATA[
var edges = document.getElementsByTagName('g');
if (edges && edges.length) {
  for (var i=0;i<edges.length;i++) {
    if (edges[i].id.substr(0,4)=='edge') {
      edges[i].setAttribute('class','edge');
    }
  }
}
]]></script>
        <defs>
                <circle id="rim" cx="0" cy="0" r="7"/>
                <circle id="rim2" cx="0" cy="0" r="3.5"/>
                <g id="zoomPlus">
                        <use xlink:href="#rim" fill="#404040">
                                <set attributeName="fill" to="#808080" begin="zoomplus.mouseover" end="zoomplus.mouseout"/>
                        </use>
                        <path d="M-4,0h8M0,-4v8" fill="none" stroke="white" stroke-width="1.5" pointer-events="none"/>
                </g>
                <g id="zoomMin">
                        <use xlink:href="#rim" fill="#404040">
                                <set attributeName="fill" to="#808080" begin="zoomminus.mouseover" end="zoomminus.mouseout"/>
                        </use>
                        <path d="M-4,0h8" fill="none" stroke="white" stroke-width="1.5" pointer-events="none"/>
                </g>
                <g id="dirArrow">
                        <path fill="none" stroke="white" stroke-width="1.5" d="M0,-3.0v7 M-2.5,-0.5L0,-3.0L2.5,-0.5"/>
                </g>
               <g id="resetDef">
                       <use xlink:href="#rim2" fill="#404040">
                               <set attributeName="fill" to="#808080" begin="reset.mouseover" end="reset.mouseout"/>
                       </use>
               </g>
        </defs>

<script type="text/javascript">
var viewWidth = 923;
var viewHeight = 258;
var sectionId = 'dynsection-0';
</script>
<script xlink:href="../../svgpan.js"/>
<svg id="graph" class="graph">
<g id="viewport">
<title>/home/runner/work/doxygen/doxygen/src/constexp.l</title>
<!-- Node1 -->
<g id="node1" class="node">
<title>Node1</title>
<g id="a_node1"><a xlink:title=" ">
<polygon fill="#999999" stroke="#666666" points="622,-250 468,-250 468,-220 622,-220 622,-250"/>
<text text-anchor="start" x="476" y="-238" font-family="Helvetica,sans-Serif" font-size="10.00">/home/runner/work/doxygen</text>
<text text-anchor="middle" x="545" y="-227" font-family="Helvetica,sans-Serif" font-size="10.00">/doxygen/src/constexp.l</text>
</a>
</g>
</g>
<!-- Node2 -->
<g id="node2" class="node">
<title>Node2</title>
<g id="a_node2"><a xlink:title=" ">
<polygon fill="#e0e0e0" stroke="#999999" points="50,-19 0,-19 0,0 50,0 50,-19"/>
<text text-anchor="middle" x="25" y="-7" font-family="Helvetica,sans-Serif" font-size="10.00">cstdint</text>
</a>
</g>
</g>
<!-- Node1&#45;&gt;Node2 -->
<g id="edge1" class="edge">
<title>Node1&#45;&gt;Node2</title>
<path fill="none" stroke="#63b8ff" d="M467.68,-230.9C370.85,-223.93 202.78,-201.44 80,-129 50.76,-111.75 40.19,-105.28 27,-74 21.03,-59.85 20.96,-42.31 22.14,-29.25"/>
<polygon fill="#63b8ff" stroke="#63b8ff" points="25.64,-29.48 23.38,-19.13 18.69,-28.63 25.64,-29.48"/>
</g>
<!-- Node3 -->
<g id="node3" class="node">
<title>Node3</title>
<g id="a_node3"><a xlink:href="../../da/d12/constexp__p_8h.html" target="_top" xlink:title="Private interface between Parser (constexp.y) and Lexer (constexp.l)">
<polygon fill="white" stroke="#666666" points="620.5,-184 539.5,-184 539.5,-165 620.5,-165 620.5,-184"/>
<text text-anchor="middle" x="580" y="-172" font-family="Helvetica,sans-Serif" font-size="10.00">constexp_p.h</text>
</a>
</g>
</g>
<!-- Node1&#45;&gt;Node3 -->
<g id="edge2" class="edge">
<title>Node1&#45;&gt;Node3</title>
<path fill="none" stroke="#63b8ff" d="M553.47,-219.84C558.29,-211.78 564.37,-201.62 569.5,-193.06"/>
<polygon fill="#63b8ff" stroke="#63b8ff" points="572.62,-194.64 574.76,-184.27 566.62,-191.05 572.62,-194.64"/>
</g>
<!-- Node5 -->
<g id="node5" class="node">
<title>Node5</title>
<g id="a_node5"><a xlink:href="../../d6/dcc/cppvalue_8h.html" target="_top" xlink:title=" ">
<polygon fill="white" stroke="#666666" points="605,-129 535,-129 535,-110 605,-110 605,-129"/>
<text text-anchor="middle" x="570" y="-117" font-family="Helvetica,sans-Serif" font-size="10.00">cppvalue.h</text>
</a>
</g>
</g>
<!-- Node1&#45;&gt;Node5 -->
<g id="edge10" class="edge">
<title>Node1&#45;&gt;Node5</title>
<path fill="none" stroke="#63b8ff" d="M537.67,-219.89C531.3,-205.68 524.11,-183.3 531,-165 535.18,-153.89 543.52,-143.75 551.43,-135.96"/>
<polygon fill="#63b8ff" stroke="#63b8ff" points="554.01,-138.35 559.01,-129.01 549.28,-133.19 554.01,-138.35"/>
</g>
<!-- Node7 -->
<g id="node7" class="node">
<title>Node7</title>
<g id="a_node7"><a xlink:href="../../d6/dd8/constexp_8h.html" target="_top" xlink:title=" ">
<polygon fill="white" stroke="#666666" points="709,-184 639,-184 639,-165 709,-165 709,-184"/>
<text text-anchor="middle" x="674" y="-172" font-family="Helvetica,sans-Serif" font-size="10.00">constexp.h</text>
</a>
</g>
</g>
<!-- Node1&#45;&gt;Node7 -->
<g id="edge7" class="edge">
<title>Node1&#45;&gt;Node7</title>
<path fill="none" stroke="#63b8ff" d="M575.9,-219.99C597.13,-210.36 625.11,-197.67 645.75,-188.31"/>
<polygon fill="#63b8ff" stroke="#63b8ff" points="647.29,-191.46 654.95,-184.14 644.4,-185.08 647.29,-191.46"/>
</g>
<!-- Node9 -->
<g id="node9" class="node">
<title>Node9</title>
<g id="a_node9"><a xlink:title=" ">
<polygon fill="#e0e0e0" stroke="#999999" points="808.5,-184 727.5,-184 727.5,-165 808.5,-165 808.5,-184"/>
<text text-anchor="middle" x="768" y="-172" font-family="Helvetica,sans-Serif" font-size="10.00">ce_parse.hpp</text>
</a>
</g>
</g>
<!-- Node1&#45;&gt;Node9 -->
<g id="edge11" class="edge">
<title>Node1&#45;&gt;Node9</title>
<path fill="none" stroke="#63b8ff" d="M598.41,-219.99C637.4,-209.76 689.53,-196.09 725.65,-186.61"/>
<polygon fill="#63b8ff" stroke="#63b8ff" points="726.61,-189.98 735.39,-184.05 724.83,-183.21 726.61,-189.98"/>
</g>
<!-- Node10 -->
<g id="node10" class="node">
<title>Node10</title>
<g id="a_node10"><a xlink:href="../../d2/d0d/message_8h.html" target="_top" xlink:title=" ">
<polygon fill="white" stroke="#666666" points="452,-184 382,-184 382,-165 452,-165 452,-184"/>
<text text-anchor="middle" x="417" y="-172" font-family="Helvetica,sans-Serif" font-size="10.00">message.h</text>
</a>
</g>
</g>
<!-- Node1&#45;&gt;Node10 -->
<g id="edge12" class="edge">
<title>Node1&#45;&gt;Node10</title>
<path fill="none" stroke="#63b8ff" d="M514.34,-219.99C493.27,-210.36 465.51,-197.67 445.03,-188.31"/>
<polygon fill="#63b8ff" stroke="#63b8ff" points="446.45,-185.11 435.9,-184.14 443.54,-191.48 446.45,-185.11"/>
</g>
<!-- Node19 -->
<g id="node19" class="node">
<title>Node19</title>
<g id="a_node19"><a xlink:href="../../db/d16/debug_8h.html" target="_top" xlink:title=" ">
<polygon fill="white" stroke="#666666" points="350,-184 294,-184 294,-165 350,-165 350,-184"/>
<text text-anchor="middle" x="322" y="-172" font-family="Helvetica,sans-Serif" font-size="10.00">debug.h</text>
</a>
</g>
</g>
<!-- Node1&#45;&gt;Node19 -->
<g id="edge26" class="edge">
<title>Node1&#45;&gt;Node19</title>
<path fill="none" stroke="#63b8ff" d="M491.59,-219.99C450.95,-209.33 396.04,-194.92 359.85,-185.43"/>
<polygon fill="#63b8ff" stroke="#63b8ff" points="360.73,-182.04 350.17,-182.89 358.95,-188.81 360.73,-182.04"/>
</g>
<!-- Node20 -->
<g id="node20" class="node">
<title>Node20</title>
<g id="a_node20"><a xlink:href="../../d6/da5/doxygen__lex_8h.html" target="_top" xlink:title=" ">
<polygon fill="white" stroke="#666666" points="915,-184 827,-184 827,-165 915,-165 915,-184"/>
<text text-anchor="middle" x="871" y="-172" font-family="Helvetica,sans-Serif" font-size="10.00">doxygen_lex.h</text>
</a>
</g>
</g>
<!-- Node1&#45;&gt;Node20 -->
<g id="edge29" class="edge">
<title>Node1&#45;&gt;Node20</title>
<path fill="none" stroke="#63b8ff" d="M622.26,-220.14C682.22,-209.38 763.83,-194.73 816.95,-185.2"/>
<polygon fill="#63b8ff" stroke="#63b8ff" points="817.63,-188.63 826.86,-183.42 816.4,-181.74 817.63,-188.63"/>
</g>
<!-- Node4 -->
<g id="node4" class="node">
<title>Node4</title>
<g id="a_node4"><a xlink:title=" ">
<polygon fill="#e0e0e0" stroke="#999999" points="630,-19 586,-19 586,0 630,0 630,-19"/>
<text text-anchor="middle" x="608" y="-7" font-family="Helvetica,sans-Serif" font-size="10.00">string</text>
</a>
</g>
</g>
<!-- Node3&#45;&gt;Node4 -->
<g id="edge3" class="edge">
<title>Node3&#45;&gt;Node4</title>
<path fill="none" stroke="#63b8ff" d="M589.61,-164.69C597.87,-156.41 609.2,-143.18 614,-129 625.45,-95.14 618.62,-52.74 613.03,-28.93"/>
<polygon fill="#63b8ff" stroke="#63b8ff" points="616.4,-27.96 610.55,-19.13 609.61,-29.68 616.4,-27.96"/>
</g>
<!-- Node3&#45;&gt;Node5 -->
<g id="edge4" class="edge">
<title>Node3&#45;&gt;Node5</title>
<path fill="none" stroke="#63b8ff" d="M578.35,-164.75C577.04,-157.8 575.16,-147.85 573.52,-139.13"/>
<polygon fill="#63b8ff" stroke="#63b8ff" points="576.91,-138.27 571.62,-129.09 570.04,-139.56 576.91,-138.27"/>
</g>
<!-- Node5&#45;&gt;Node4 -->
<g id="edge6" class="edge">
<title>Node5&#45;&gt;Node4</title>
<path fill="none" stroke="#63b8ff" d="M574.08,-109.75C578.15,-100.86 584.43,-86.64 589,-74 594.39,-59.1 599.48,-41.86 603.03,-29.11"/>
<polygon fill="#63b8ff" stroke="#63b8ff" points="606.47,-29.8 605.72,-19.23 599.72,-27.96 606.47,-29.8"/>
</g>
<!-- Node6 -->
<g id="node6" class="node">
<title>Node6</title>
<g id="a_node6"><a xlink:title=" ">
<polygon fill="#e0e0e0" stroke="#999999" points="580,-74 534,-74 534,-55 580,-55 580,-74"/>
<text text-anchor="middle" x="557" y="-62" font-family="Helvetica,sans-Serif" font-size="10.00">cstdio</text>
</a>
</g>
</g>
<!-- Node5&#45;&gt;Node6 -->
<g id="edge5" class="edge">
<title>Node5&#45;&gt;Node6</title>
<path fill="none" stroke="#63b8ff" d="M567.85,-109.75C566.13,-102.72 563.65,-92.62 561.5,-83.84"/>
<polygon fill="#63b8ff" stroke="#63b8ff" points="564.89,-82.97 559.11,-74.09 558.09,-84.63 564.89,-82.97"/>
</g>
<!-- Node7&#45;&gt;Node4 -->
<g id="edge8" class="edge">
<title>Node7&#45;&gt;Node4</title>
<path fill="none" stroke="#63b8ff" d="M671.48,-164.99C665.54,-145.28 649.79,-95.1 632,-55 627.95,-45.87 622.76,-36.07 618.24,-28"/>
<polygon fill="#63b8ff" stroke="#63b8ff" points="621.2,-26.11 613.19,-19.16 615.12,-29.58 621.2,-26.11"/>
</g>
<!-- Node8 -->
<g id="node8" class="node">
<title>Node8</title>
<g id="a_node8"><a xlink:title=" ">
<polygon fill="#e0e0e0" stroke="#999999" points="770,-129 712,-129 712,-110 770,-110 770,-129"/>
<text text-anchor="middle" x="741" y="-117" font-family="Helvetica,sans-Serif" font-size="10.00">memory</text>
</a>
</g>
</g>
<!-- Node7&#45;&gt;Node8 -->
<g id="edge9" class="edge">
<title>Node7&#45;&gt;Node8</title>
<path fill="none" stroke="#63b8ff" d="M684.76,-164.98C694.77,-157.07 709.89,-145.11 721.93,-135.58"/>
<polygon fill="#63b8ff" stroke="#63b8ff" points="724.37,-138.12 730.04,-129.17 720.03,-132.63 724.37,-138.12"/>
</g>
<!-- Node11 -->
<g id="node11" class="node">
<title>Node11</title>
<g id="a_node11"><a xlink:title=" ">
<polygon fill="#e0e0e0" stroke="#999999" points="443.5,-129 390.5,-129 390.5,-110 443.5,-110 443.5,-129"/>
<text text-anchor="middle" x="417" y="-117" font-family="Helvetica,sans-Serif" font-size="10.00">cstdarg</text>
</a>
</g>
</g>
<!-- Node10&#45;&gt;Node11 -->
<g id="edge13" class="edge">
<title>Node10&#45;&gt;Node11</title>
<path fill="none" stroke="#63b8ff" d="M417,-164.75C417,-157.8 417,-147.85 417,-139.13"/>
<polygon fill="#63b8ff" stroke="#63b8ff" points="420.5,-139.09 417,-129.09 413.5,-139.09 420.5,-139.09"/>
</g>
<!-- Node12 -->
<g id="node12" class="node">
<title>Node12</title>
<g id="a_node12"><a xlink:href="../../d7/d5c/qcstring_8h.html" target="_top" xlink:title=" ">
<polygon fill="white" stroke="#666666" points="354.5,-129 289.5,-129 289.5,-110 354.5,-110 354.5,-129"/>
<text text-anchor="middle" x="322" y="-117" font-family="Helvetica,sans-Serif" font-size="10.00">qcstring.h</text>
</a>
</g>
</g>
<!-- Node10&#45;&gt;Node12 -->
<g id="edge14" class="edge">
<title>Node10&#45;&gt;Node12</title>
<path fill="none" stroke="#63b8ff" d="M401.74,-164.98C386.87,-156.69 364.02,-143.94 346.58,-134.22"/>
<polygon fill="#63b8ff" stroke="#63b8ff" points="347.98,-130.99 337.54,-129.17 344.57,-137.1 347.98,-130.99"/>
</g>
<!-- Node12&#45;&gt;Node2 -->
<g id="edge21" class="edge">
<title>Node12&#45;&gt;Node2</title>
<path fill="none" stroke="#63b8ff" d="M289.26,-116.26C228.08,-111.54 99.32,-98.89 63,-74 47.14,-63.13 36.83,-43.26 31.01,-28.64"/>
<polygon fill="#63b8ff" stroke="#63b8ff" points="34.26,-27.32 27.55,-19.12 27.68,-29.71 34.26,-27.32"/>
</g>
<!-- Node12&#45;&gt;Node4 -->
<g id="edge15" class="edge">
<title>Node12&#45;&gt;Node4</title>
<path fill="none" stroke="#63b8ff" d="M354.61,-111.93C388.39,-104.61 442.39,-91.48 487,-74 496.75,-70.18 550.61,-41.42 583.1,-23.94"/>
<polygon fill="#63b8ff" stroke="#63b8ff" points="584.89,-26.95 592.03,-19.13 581.57,-20.79 584.89,-26.95"/>
</g>
<!-- Node12&#45;&gt;Node6 -->
<g id="edge19" class="edge">
<title>Node12&#45;&gt;Node6</title>
<path fill="none" stroke="#63b8ff" d="M354.59,-111.22C393.85,-102.45 461.77,-87.23 520,-74 521.27,-73.71 522.55,-73.42 523.86,-73.12"/>
<polygon fill="#63b8ff" stroke="#63b8ff" points="524.94,-76.46 533.91,-70.82 523.38,-69.64 524.94,-76.46"/>
</g>
<!-- Node13 -->
<g id="node13" class="node">
<title>Node13</title>
<g id="a_node13"><a xlink:title=" ">
<polygon fill="#e0e0e0" stroke="#999999" points="136,-74 72,-74 72,-55 136,-55 136,-74"/>
<text text-anchor="middle" x="104" y="-62" font-family="Helvetica,sans-Serif" font-size="10.00">algorithm</text>
</a>
</g>
</g>
<!-- Node12&#45;&gt;Node13 -->
<g id="edge16" class="edge">
<title>Node12&#45;&gt;Node13</title>
<path fill="none" stroke="#63b8ff" d="M289.36,-110.57C251.18,-101.28 187.86,-85.89 146.03,-75.72"/>
<polygon fill="#63b8ff" stroke="#63b8ff" points="146.69,-72.28 136.15,-73.32 145.04,-79.08 146.69,-72.28"/>
</g>
<!-- Node14 -->
<g id="node14" class="node">
<title>Node14</title>
<g id="a_node14"><a xlink:title=" ">
<polygon fill="#e0e0e0" stroke="#999999" points="203.5,-74 154.5,-74 154.5,-55 203.5,-55 203.5,-74"/>
<text text-anchor="middle" x="179" y="-62" font-family="Helvetica,sans-Serif" font-size="10.00">cctype</text>
</a>
</g>
</g>
<!-- Node12&#45;&gt;Node14 -->
<g id="edge17" class="edge">
<title>Node12&#45;&gt;Node14</title>
<path fill="none" stroke="#63b8ff" d="M299.02,-109.98C275.5,-101.27 238.71,-87.63 212.06,-77.75"/>
<polygon fill="#63b8ff" stroke="#63b8ff" points="212.99,-74.36 202.39,-74.17 210.55,-80.93 212.99,-74.36"/>
</g>
<!-- Node15 -->
<g id="node15" class="node">
<title>Node15</title>
<g id="a_node15"><a xlink:title=" ">
<polygon fill="#e0e0e0" stroke="#999999" points="272,-74 222,-74 222,-55 272,-55 272,-74"/>
<text text-anchor="middle" x="247" y="-62" font-family="Helvetica,sans-Serif" font-size="10.00">cstring</text>
</a>
</g>
</g>
<!-- Node12&#45;&gt;Node15 -->
<g id="edge18" class="edge">
<title>Node12&#45;&gt;Node15</title>
<path fill="none" stroke="#63b8ff" d="M309.95,-109.98C298.54,-101.92 281.17,-89.65 267.57,-80.03"/>
<polygon fill="#63b8ff" stroke="#63b8ff" points="269.46,-77.08 259.27,-74.17 265.42,-82.8 269.46,-77.08"/>
</g>
<!-- Node16 -->
<g id="node16" class="node">
<title>Node16</title>
<g id="a_node16"><a xlink:title=" ">
<polygon fill="#e0e0e0" stroke="#999999" points="339.5,-74 290.5,-74 290.5,-55 339.5,-55 339.5,-74"/>
<text text-anchor="middle" x="315" y="-62" font-family="Helvetica,sans-Serif" font-size="10.00">cstdlib</text>
</a>
</g>
</g>
<!-- Node12&#45;&gt;Node16 -->
<g id="edge20" class="edge">
<title>Node12&#45;&gt;Node16</title>
<path fill="none" stroke="#63b8ff" d="M320.84,-109.75C319.93,-102.8 318.61,-92.85 317.46,-84.13"/>
<polygon fill="#63b8ff" stroke="#63b8ff" points="320.91,-83.54 316.13,-74.09 313.97,-84.46 320.91,-83.54"/>
</g>
<!-- Node17 -->
<g id="node17" class="node">
<title>Node17</title>
<g id="a_node17"><a xlink:title=" ">
<polygon fill="#e0e0e0" stroke="#999999" points="414.5,-74 357.5,-74 357.5,-55 414.5,-55 414.5,-74"/>
<text text-anchor="middle" x="386" y="-62" font-family="Helvetica,sans-Serif" font-size="10.00">ostream</text>
</a>
</g>
</g>
<!-- Node12&#45;&gt;Node17 -->
<g id="edge22" class="edge">
<title>Node12&#45;&gt;Node17</title>
<path fill="none" stroke="#63b8ff" d="M332.28,-109.98C341.84,-102.07 356.28,-90.11 367.78,-80.58"/>
<polygon fill="#63b8ff" stroke="#63b8ff" points="370.06,-83.24 375.53,-74.17 365.6,-77.85 370.06,-83.24"/>
</g>
<!-- Node18 -->
<g id="node18" class="node">
<title>Node18</title>
<g id="a_node18"><a xlink:href="../../db/d7c/utf8_8h.html" target="_top" xlink:title="Various UTF8 related helper functions.">
<polygon fill="white" stroke="#666666" points="477.5,-74 432.5,-74 432.5,-55 477.5,-55 477.5,-74"/>
<text text-anchor="middle" x="455" y="-62" font-family="Helvetica,sans-Serif" font-size="10.00">utf8.h</text>
</a>
</g>
</g>
<!-- Node12&#45;&gt;Node18 -->
<g id="edge23" class="edge">
<title>Node12&#45;&gt;Node18</title>
<path fill="none" stroke="#63b8ff" d="M343.37,-109.98C365.15,-101.3 399.16,-87.75 423.92,-77.88"/>
<polygon fill="#63b8ff" stroke="#63b8ff" points="425.25,-81.12 433.24,-74.17 422.66,-74.62 425.25,-81.12"/>
</g>
<!-- Node18&#45;&gt;Node2 -->
<g id="edge24" class="edge">
<title>Node18&#45;&gt;Node2</title>
<path fill="none" stroke="#63b8ff" d="M432.41,-56.87C429.59,-56.17 426.74,-55.53 424,-55 291.17,-29.54 130.47,-17.11 60.46,-12.59"/>
<polygon fill="#63b8ff" stroke="#63b8ff" points="60.62,-9.09 50.41,-11.95 60.17,-16.07 60.62,-9.09"/>
</g>
<!-- Node18&#45;&gt;Node4 -->
<g id="edge25" class="edge">
<title>Node18&#45;&gt;Node4</title>
<path fill="none" stroke="#63b8ff" d="M477.58,-55.68C503.6,-46.66 546.57,-31.78 576.02,-21.58"/>
<polygon fill="#63b8ff" stroke="#63b8ff" points="577.53,-24.76 585.83,-18.18 575.23,-18.15 577.53,-24.76"/>
</g>
<!-- Node19&#45;&gt;Node2 -->
<g id="edge27" class="edge">
<title>Node19&#45;&gt;Node2</title>
<path fill="none" stroke="#63b8ff" d="M293.75,-171.99C237.08,-167.39 109.12,-148.81 41,-74 30,-61.92 26.31,-43.38 25.18,-29.45"/>
<polygon fill="#63b8ff" stroke="#63b8ff" points="28.66,-28.92 24.74,-19.07 21.67,-29.21 28.66,-28.92"/>
</g>
<!-- Node19&#45;&gt;Node12 -->
<g id="edge28" class="edge">
<title>Node19&#45;&gt;Node12</title>
<path fill="none" stroke="#63b8ff" d="M322,-164.75C322,-157.8 322,-147.85 322,-139.13"/>
<polygon fill="#63b8ff" stroke="#63b8ff" points="325.5,-139.09 322,-129.09 318.5,-139.09 325.5,-139.09"/>
</g>
</g>
</svg>
        <g id="navigator" transform="translate(0 0)" fill="#404254">
                <rect fill="#f2f5e9" fill-opacity="0.5" stroke="#606060" stroke-width=".5" x="0" y="0" width="60" height="60"/>
                <use id="zoomplus" xlink:href="#zoomPlus" x="17" y="9" onmousedown="handleZoom(evt,'in')"/>
                <use id="zoomminus" xlink:href="#zoomMin" x="42" y="9" onmousedown="handleZoom(evt,'out')"/>
                <use id="reset" xlink:href="#resetDef" x="30" y="36" onmousedown="handleReset()"/>
                <g id="arrowUp" xlink:href="#dirArrow" transform="translate(30 24)" onmousedown="handlePan(0,-1)">
                  <use xlink:href="#rim" fill="#404040">
                        <set attributeName="fill" to="#808080" begin="arrowUp.mouseover" end="arrowUp.mouseout"/>
                  </use>
                  <path fill="none" stroke="white" stroke-width="1.5" d="M0,-3.0v7 M-2.5,-0.5L0,-3.0L2.5,-0.5"/>
                </g>
                <g id="arrowRight" xlink:href="#dirArrow" transform="rotate(90) translate(36 -43)" onmousedown="handlePan(1,0)">
                  <use xlink:href="#rim" fill="#404040">
                        <set attributeName="fill" to="#808080" begin="arrowRight.mouseover" end="arrowRight.mouseout"/>
                  </use>
                  <path fill="none" stroke="white" stroke-width="1.5" d="M0,-3.0v7 M-2.5,-0.5L0,-3.0L2.5,-0.5"/>
                </g>
                <g id="arrowDown" xlink:href="#dirArrow" transform="rotate(180) translate(-30 -48)" onmousedown="handlePan(0,1)">
                  <use xlink:href="#rim" fill="#404040">
                        <set attributeName="fill" to="#808080" begin="arrowDown.mouseover" end="arrowDown.mouseout"/>
                  </use>
                  <path fill="none" stroke="white" stroke-width="1.5" d="M0,-3.0v7 M-2.5,-0.5L0,-3.0L2.5,-0.5"/>
                </g>
                <g id="arrowLeft" xlink:href="#dirArrow" transform="rotate(270) translate(-36 17)" onmousedown="handlePan(-1,0)">
                  <use xlink:href="#rim" fill="#404040">
                        <set attributeName="fill" to="#808080" begin="arrowLeft.mouseover" end="arrowLeft.mouseout"/>
                  </use>
                  <path fill="none" stroke="white" stroke-width="1.5" d="M0,-3.0v7 M-2.5,-0.5L0,-3.0L2.5,-0.5"/>
                </g>
        </g>
        <svg viewBox="0 0 15 15" width="100%" height="30px" preserveAspectRatio="xMaxYMin meet">
         <g id="arrow_out" transform="scale(0.3 0.3)">
          <a xlink:href="constexp_8l__incl_org.svg" target="_base">
           <rect id="button" ry="5" rx="5" y="6" x="6" height="38" width="38"
                fill="#f2f5e9" fill-opacity="0.5" stroke="#606060" stroke-width="1.0"/>
           <path id="arrow"
             d="M 11.500037,31.436501 C 11.940474,20.09759 22.043105,11.32322 32.158766,21.979434 L 37.068811,17.246167 C 37.068811,17.246167 37.088388,32 37.088388,32 L 22.160133,31.978069 C 22.160133,31.978069 26.997745,27.140456 26.997745,27.140456 C 18.528582,18.264221 13.291696,25.230495 11.500037,31.436501 z"
             style="fill:#404040;"/>
          </a>
         </g>
        </svg>
</svg>
