<?xml version="1.0" encoding="UTF-8" standalone="no"?>
<!DOCTYPE svg PUBLIC "-//W3C//DTD SVG 1.1//EN"
 "http://www.w3.org/Graphics/SVG/1.1/DTD/svg11.dtd">
<!-- Generated by graphviz version 2.43.0 (0)
 -->
<!-- Title: /home/runner/work/doxygen/doxygen/src/debug.cpp Pages: 1 -->
<!--zoomable 258 -->
<svg id="main" version="1.1" xmlns="http://www.w3.org/2000/svg" xmlns:xlink="http://www.w3.org/1999/xlink" xml:space="preserve" onload="init(evt)">
<style type="text/css"><![CDATA[
.edge:hover path { stroke: red; }
.edge:hover polygon { stroke: red; fill: red; }
]]></style>
<script type="text/javascript"><![CDATA[
var edges = document.getElementsByTagName('g');
if (edges && edges.length) {
  for (var i=0;i<edges.length;i++) {
    if (edges[i].id.substr(0,4)=='edge') {
      edges[i].setAttribute('class','edge');
    }
  }
}
]]></script>
        <defs>
                <circle id="rim" cx="0" cy="0" r="7"/>
                <circle id="rim2" cx="0" cy="0" r="3.5"/>
                <g id="zoomPlus">
                        <use xlink:href="#rim" fill="#404040">
                                <set attributeName="fill" to="#808080" begin="zoomplus.mouseover" end="zoomplus.mouseout"/>
                        </use>
                        <path d="M-4,0h8M0,-4v8" fill="none" stroke="white" stroke-width="1.5" pointer-events="none"/>
                </g>
                <g id="zoomMin">
                        <use xlink:href="#rim" fill="#404040">
                                <set attributeName="fill" to="#808080" begin="zoomminus.mouseover" end="zoomminus.mouseout"/>
                        </use>
                        <path d="M-4,0h8" fill="none" stroke="white" stroke-width="1.5" pointer-events="none"/>
                </g>
                <g id="dirArrow">
                        <path fill="none" stroke="white" stroke-width="1.5" d="M0,-3.0v7 M-2.5,-0.5L0,-3.0L2.5,-0.5"/>
                </g>
               <g id="resetDef">
                       <use xlink:href="#rim2" fill="#404040">
                               <set attributeName="fill" to="#808080" begin="reset.mouseover" end="reset.mouseout"/>
                       </use>
               </g>
        </defs>

<script type="text/javascript">
var viewWidth = 590;
var viewHeight = 258;
var sectionId = 'dynsection-0';
</script>
<script xlink:href="../../svgpan.js"/>
<svg id="graph" class="graph">
<g id="viewport">
<title>/home/runner/work/doxygen/doxygen/src/debug.cpp</title>
<!-- Node1 -->
<g id="node1" class="node">
<title>Node1</title>
<g id="a_node1"><a xlink:title=" ">
<polygon fill="#999999" stroke="#666666" points="262.99,-250 108.99,-250 108.99,-220 262.99,-220 262.99,-250"/>
<text text-anchor="start" x="116.99" y="-238" font-family="Helvetica,sans-Serif" font-size="10.00">/home/runner/work/doxygen</text>
<text text-anchor="middle" x="185.99" y="-227" font-family="Helvetica,sans-Serif" font-size="10.00">/doxygen/src/debug.cpp</text>
</a>
</g>
</g>
<!-- Node2 -->
<g id="node2" class="node">
<title>Node2</title>
<g id="a_node2"><a xlink:title=" ">
<polygon fill="#e0e0e0" stroke="#999999" points="250.49,-129 197.49,-129 197.49,-110 250.49,-110 250.49,-129"/>
<text text-anchor="middle" x="223.99" y="-117" font-family="Helvetica,sans-Serif" font-size="10.00">cstdarg</text>
</a>
</g>
</g>
<!-- Node1&#45;&gt;Node2 -->
<g id="edge1" class="edge">
<title>Node1&#45;&gt;Node2</title>
<path fill="none" stroke="#63b8ff" d="M189.3,-219.82C192.73,-205.75 198.48,-183.65 204.99,-165 208.11,-156.08 212.16,-146.4 215.71,-138.36"/>
<polygon fill="#63b8ff" stroke="#63b8ff" points="218.91,-139.78 219.85,-129.23 212.54,-136.89 218.91,-139.78"/>
</g>
<!-- Node3 -->
<g id="node3" class="node">
<title>Node3</title>
<g id="a_node3"><a xlink:title=" ">
<polygon fill="#e0e0e0" stroke="#999999" points="85.99,-74 21.99,-74 21.99,-55 85.99,-55 85.99,-74"/>
<text text-anchor="middle" x="53.99" y="-62" font-family="Helvetica,sans-Serif" font-size="10.00">algorithm</text>
</a>
</g>
</g>
<!-- Node1&#45;&gt;Node3 -->
<g id="edge2" class="edge">
<title>Node1&#45;&gt;Node3</title>
<path fill="none" stroke="#63b8ff" d="M150.83,-219.87C133.87,-211.56 114.36,-199.6 100.99,-184 75.65,-154.41 62.93,-109.48 57.47,-84.3"/>
<polygon fill="#63b8ff" stroke="#63b8ff" points="60.85,-83.36 55.44,-74.25 53.98,-84.74 60.85,-83.36"/>
</g>
<!-- Node4 -->
<g id="node4" class="node">
<title>Node4</title>
<g id="a_node4"><a xlink:title=" ">
<polygon fill="#e0e0e0" stroke="#999999" points="149.99,-74 103.99,-74 103.99,-55 149.99,-55 149.99,-74"/>
<text text-anchor="middle" x="126.99" y="-62" font-family="Helvetica,sans-Serif" font-size="10.00">cstdio</text>
</a>
</g>
</g>
<!-- Node1&#45;&gt;Node4 -->
<g id="edge3" class="edge">
<title>Node1&#45;&gt;Node4</title>
<path fill="none" stroke="#63b8ff" d="M150.92,-219.85C135.76,-211.77 119.56,-200 110.99,-184 93.76,-151.79 107.77,-107.88 118.22,-83.56"/>
<polygon fill="#63b8ff" stroke="#63b8ff" points="121.55,-84.71 122.52,-74.16 115.18,-81.8 121.55,-84.71"/>
</g>
<!-- Node5 -->
<g id="node5" class="node">
<title>Node5</title>
<g id="a_node5"><a xlink:title=" ">
<polygon fill="#e0e0e0" stroke="#999999" points="157.99,-184 119.99,-184 119.99,-165 157.99,-165 157.99,-184"/>
<text text-anchor="middle" x="138.99" y="-172" font-family="Helvetica,sans-Serif" font-size="10.00">map</text>
</a>
</g>
</g>
<!-- Node1&#45;&gt;Node5 -->
<g id="edge4" class="edge">
<title>Node1&#45;&gt;Node5</title>
<path fill="none" stroke="#63b8ff" d="M174.62,-219.84C167.93,-211.52 159.45,-200.96 152.44,-192.23"/>
<polygon fill="#63b8ff" stroke="#63b8ff" points="155.03,-189.87 146.04,-184.27 149.57,-194.25 155.03,-189.87"/>
</g>
<!-- Node6 -->
<g id="node6" class="node">
<title>Node6</title>
<g id="a_node6"><a xlink:title=" ">
<polygon fill="#e0e0e0" stroke="#999999" points="267.99,-19 223.99,-19 223.99,0 267.99,0 267.99,-19"/>
<text text-anchor="middle" x="245.99" y="-7" font-family="Helvetica,sans-Serif" font-size="10.00">string</text>
</a>
</g>
</g>
<!-- Node1&#45;&gt;Node6 -->
<g id="edge5" class="edge">
<title>Node1&#45;&gt;Node6</title>
<path fill="none" stroke="#63b8ff" d="M153.04,-219.87C89.1,-190.52 -40.99,-120.27 12.99,-55 38.14,-24.6 156.13,-14.78 213.93,-11.76"/>
<polygon fill="#63b8ff" stroke="#63b8ff" points="214.17,-15.25 223.98,-11.27 213.83,-8.26 214.17,-15.25"/>
</g>
<!-- Node7 -->
<g id="node7" class="node">
<title>Node7</title>
<g id="a_node7"><a xlink:title=" ">
<polygon fill="#e0e0e0" stroke="#999999" points="263.99,-184 213.99,-184 213.99,-165 263.99,-165 263.99,-184"/>
<text text-anchor="middle" x="238.99" y="-172" font-family="Helvetica,sans-Serif" font-size="10.00">chrono</text>
</a>
</g>
</g>
<!-- Node1&#45;&gt;Node7 -->
<g id="edge6" class="edge">
<title>Node1&#45;&gt;Node7</title>
<path fill="none" stroke="#63b8ff" d="M198.82,-219.84C206.52,-211.35 216.33,-200.52 224.33,-191.69"/>
<polygon fill="#63b8ff" stroke="#63b8ff" points="226.93,-194.03 231.05,-184.27 221.74,-189.33 226.93,-194.03"/>
</g>
<!-- Node8 -->
<g id="node8" class="node">
<title>Node8</title>
<g id="a_node8"><a xlink:href="../../db/d16/debug_8h.html" target="_top" xlink:title=" ">
<polygon fill="white" stroke="#666666" points="463.99,-184 407.99,-184 407.99,-165 463.99,-165 463.99,-184"/>
<text text-anchor="middle" x="435.99" y="-172" font-family="Helvetica,sans-Serif" font-size="10.00">debug.h</text>
</a>
</g>
</g>
<!-- Node1&#45;&gt;Node8 -->
<g id="edge7" class="edge">
<title>Node1&#45;&gt;Node8</title>
<path fill="none" stroke="#63b8ff" d="M245.87,-219.99C293.05,-208.95 357.39,-193.89 397.81,-184.44"/>
<polygon fill="#63b8ff" stroke="#63b8ff" points="398.85,-187.79 407.79,-182.1 397.26,-180.97 398.85,-187.79"/>
</g>
<!-- Node10 -->
<g id="node10" class="node">
<title>Node10</title>
<g id="a_node10"><a xlink:href="../../d7/d5c/qcstring_8h.html" target="_top" xlink:title=" ">
<polygon fill="white" stroke="#666666" points="371.49,-129 306.49,-129 306.49,-110 371.49,-110 371.49,-129"/>
<text text-anchor="middle" x="338.99" y="-117" font-family="Helvetica,sans-Serif" font-size="10.00">qcstring.h</text>
</a>
</g>
</g>
<!-- Node1&#45;&gt;Node10 -->
<g id="edge24" class="edge">
<title>Node1&#45;&gt;Node10</title>
<path fill="none" stroke="#63b8ff" d="M263.41,-221.31C304.38,-212.84 348.72,-200.27 360.99,-184 371.48,-170.09 362.26,-150.81 352.74,-137.15"/>
<polygon fill="#63b8ff" stroke="#63b8ff" points="355.47,-134.96 346.65,-129.1 349.89,-139.19 355.47,-134.96"/>
</g>
<!-- Node16 -->
<g id="node16" class="node">
<title>Node16</title>
<g id="a_node16"><a xlink:href="../../d2/d0d/message_8h.html" target="_top" xlink:title=" ">
<polygon fill="white" stroke="#666666" points="351.99,-184 281.99,-184 281.99,-165 351.99,-165 351.99,-184"/>
<text text-anchor="middle" x="316.99" y="-172" font-family="Helvetica,sans-Serif" font-size="10.00">message.h</text>
</a>
</g>
</g>
<!-- Node1&#45;&gt;Node16 -->
<g id="edge21" class="edge">
<title>Node1&#45;&gt;Node16</title>
<path fill="none" stroke="#63b8ff" d="M217.37,-219.99C238.93,-210.36 267.34,-197.67 288.31,-188.31"/>
<polygon fill="#63b8ff" stroke="#63b8ff" points="289.94,-191.41 297.65,-184.14 287.09,-185.02 289.94,-191.41"/>
</g>
<!-- Node9 -->
<g id="node9" class="node">
<title>Node9</title>
<g id="a_node9"><a xlink:title=" ">
<polygon fill="#e0e0e0" stroke="#999999" points="581.99,-19 531.99,-19 531.99,0 581.99,0 581.99,-19"/>
<text text-anchor="middle" x="556.99" y="-7" font-family="Helvetica,sans-Serif" font-size="10.00">cstdint</text>
</a>
</g>
</g>
<!-- Node8&#45;&gt;Node9 -->
<g id="edge8" class="edge">
<title>Node8&#45;&gt;Node9</title>
<path fill="none" stroke="#63b8ff" d="M454.71,-164.82C483.04,-150.51 535.74,-119 556.99,-74 563.55,-60.12 562.97,-42.56 561.09,-29.42"/>
<polygon fill="#63b8ff" stroke="#63b8ff" points="564.46,-28.44 559.23,-19.22 557.58,-29.69 564.46,-28.44"/>
</g>
<!-- Node8&#45;&gt;Node10 -->
<g id="edge9" class="edge">
<title>Node8&#45;&gt;Node10</title>
<path fill="none" stroke="#63b8ff" d="M420.41,-164.98C405.23,-156.69 381.9,-143.94 364.09,-134.22"/>
<polygon fill="#63b8ff" stroke="#63b8ff" points="365.32,-130.89 354.86,-129.17 361.96,-137.04 365.32,-130.89"/>
</g>
<!-- Node10&#45;&gt;Node3 -->
<g id="edge11" class="edge">
<title>Node10&#45;&gt;Node3</title>
<path fill="none" stroke="#63b8ff" d="M306.19,-112.78C261.13,-104.86 177.32,-89.92 96.1,-74.18"/>
<polygon fill="#63b8ff" stroke="#63b8ff" points="96.69,-70.73 86.21,-72.25 95.36,-77.6 96.69,-70.73"/>
</g>
<!-- Node10&#45;&gt;Node4 -->
<g id="edge14" class="edge">
<title>Node10&#45;&gt;Node4</title>
<path fill="none" stroke="#63b8ff" d="M306.43,-110.63C272.32,-102.34 216.92,-88.78 159.95,-74.21"/>
<polygon fill="#63b8ff" stroke="#63b8ff" points="160.61,-70.77 150.05,-71.68 158.87,-77.55 160.61,-70.77"/>
</g>
<!-- Node10&#45;&gt;Node6 -->
<g id="edge10" class="edge">
<title>Node10&#45;&gt;Node6</title>
<path fill="none" stroke="#63b8ff" d="M316.53,-109.91C300.32,-102.64 279.08,-90.71 265.99,-74 255.86,-61.06 250.82,-42.9 248.33,-29.32"/>
<polygon fill="#63b8ff" stroke="#63b8ff" points="251.75,-28.56 246.79,-19.2 244.83,-29.61 251.75,-28.56"/>
</g>
<!-- Node10&#45;&gt;Node9 -->
<g id="edge16" class="edge">
<title>Node10&#45;&gt;Node9</title>
<path fill="none" stroke="#63b8ff" d="M371.71,-115.19C421.79,-109.48 514.16,-96.2 537.99,-74 550.22,-62.61 554.69,-43.72 556.27,-29.49"/>
<polygon fill="#63b8ff" stroke="#63b8ff" points="559.77,-29.55 557.01,-19.32 552.79,-29.04 559.77,-29.55"/>
</g>
<!-- Node11 -->
<g id="node11" class="node">
<title>Node11</title>
<g id="a_node11"><a xlink:title=" ">
<polygon fill="#e0e0e0" stroke="#999999" points="528.49,-74 479.49,-74 479.49,-55 528.49,-55 528.49,-74"/>
<text text-anchor="middle" x="503.99" y="-62" font-family="Helvetica,sans-Serif" font-size="10.00">cctype</text>
</a>
</g>
</g>
<!-- Node10&#45;&gt;Node11 -->
<g id="edge12" class="edge">
<title>Node10&#45;&gt;Node11</title>
<path fill="none" stroke="#63b8ff" d="M365.5,-109.98C393.86,-100.88 438.93,-86.4 469.91,-76.45"/>
<polygon fill="#63b8ff" stroke="#63b8ff" points="470.98,-79.78 479.43,-73.39 468.84,-73.11 470.98,-79.78"/>
</g>
<!-- Node12 -->
<g id="node12" class="node">
<title>Node12</title>
<g id="a_node12"><a xlink:title=" ">
<polygon fill="#e0e0e0" stroke="#999999" points="217.99,-74 167.99,-74 167.99,-55 217.99,-55 217.99,-74"/>
<text text-anchor="middle" x="192.99" y="-62" font-family="Helvetica,sans-Serif" font-size="10.00">cstring</text>
</a>
</g>
</g>
<!-- Node10&#45;&gt;Node12 -->
<g id="edge13" class="edge">
<title>Node10&#45;&gt;Node12</title>
<path fill="none" stroke="#63b8ff" d="M315.54,-109.98C291.41,-101.23 253.63,-87.51 226.39,-77.62"/>
<polygon fill="#63b8ff" stroke="#63b8ff" points="227.47,-74.29 216.88,-74.17 225.08,-80.87 227.47,-74.29"/>
</g>
<!-- Node13 -->
<g id="node13" class="node">
<title>Node13</title>
<g id="a_node13"><a xlink:title=" ">
<polygon fill="#e0e0e0" stroke="#999999" points="386.49,-74 337.49,-74 337.49,-55 386.49,-55 386.49,-74"/>
<text text-anchor="middle" x="361.99" y="-62" font-family="Helvetica,sans-Serif" font-size="10.00">cstdlib</text>
</a>
</g>
</g>
<!-- Node10&#45;&gt;Node13 -->
<g id="edge15" class="edge">
<title>Node10&#45;&gt;Node13</title>
<path fill="none" stroke="#63b8ff" d="M342.79,-109.75C345.91,-102.57 350.42,-92.18 354.28,-83.27"/>
<polygon fill="#63b8ff" stroke="#63b8ff" points="357.5,-84.66 358.27,-74.09 351.07,-81.87 357.5,-84.66"/>
</g>
<!-- Node14 -->
<g id="node14" class="node">
<title>Node14</title>
<g id="a_node14"><a xlink:title=" ">
<polygon fill="#e0e0e0" stroke="#999999" points="461.49,-74 404.49,-74 404.49,-55 461.49,-55 461.49,-74"/>
<text text-anchor="middle" x="432.99" y="-62" font-family="Helvetica,sans-Serif" font-size="10.00">ostream</text>
</a>
</g>
</g>
<!-- Node10&#45;&gt;Node14 -->
<g id="edge17" class="edge">
<title>Node10&#45;&gt;Node14</title>
<path fill="none" stroke="#63b8ff" d="M354.1,-109.98C368.81,-101.69 391.42,-88.94 408.67,-79.22"/>
<polygon fill="#63b8ff" stroke="#63b8ff" points="410.62,-82.13 417.62,-74.17 407.19,-76.03 410.62,-82.13"/>
</g>
<!-- Node15 -->
<g id="node15" class="node">
<title>Node15</title>
<g id="a_node15"><a xlink:href="../../db/d7c/utf8_8h.html" target="_top" xlink:title="Various UTF8 related helper functions.">
<polygon fill="white" stroke="#666666" points="319.49,-74 274.49,-74 274.49,-55 319.49,-55 319.49,-74"/>
<text text-anchor="middle" x="296.99" y="-62" font-family="Helvetica,sans-Serif" font-size="10.00">utf8.h</text>
</a>
</g>
</g>
<!-- Node10&#45;&gt;Node15 -->
<g id="edge18" class="edge">
<title>Node10&#45;&gt;Node15</title>
<path fill="none" stroke="#63b8ff" d="M332.06,-109.75C326.13,-102.26 317.42,-91.28 310.17,-82.13"/>
<polygon fill="#63b8ff" stroke="#63b8ff" points="312.75,-79.75 303.8,-74.09 307.27,-84.1 312.75,-79.75"/>
</g>
<!-- Node15&#45;&gt;Node6 -->
<g id="edge20" class="edge">
<title>Node15&#45;&gt;Node6</title>
<path fill="none" stroke="#63b8ff" d="M288.57,-54.75C281.22,-47.11 270.36,-35.82 261.45,-26.56"/>
<polygon fill="#63b8ff" stroke="#63b8ff" points="263.71,-23.87 254.26,-19.09 258.67,-28.72 263.71,-23.87"/>
</g>
<!-- Node15&#45;&gt;Node9 -->
<g id="edge19" class="edge">
<title>Node15&#45;&gt;Node9</title>
<path fill="none" stroke="#63b8ff" d="M319.67,-57.28C322.8,-56.48 325.97,-55.7 328.99,-55 396.85,-39.38 476.89,-24.59 521.81,-16.61"/>
<polygon fill="#63b8ff" stroke="#63b8ff" points="522.67,-20.01 531.91,-14.83 521.46,-13.12 522.67,-20.01"/>
</g>
<!-- Node16&#45;&gt;Node2 -->
<g id="edge22" class="edge">
<title>Node16&#45;&gt;Node2</title>
<path fill="none" stroke="#63b8ff" d="M302.05,-164.98C287.49,-156.69 265.13,-143.94 248.06,-134.22"/>
<polygon fill="#63b8ff" stroke="#63b8ff" points="249.63,-131.08 239.21,-129.17 246.16,-137.16 249.63,-131.08"/>
</g>
<!-- Node16&#45;&gt;Node10 -->
<g id="edge23" class="edge">
<title>Node16&#45;&gt;Node10</title>
<path fill="none" stroke="#63b8ff" d="M320.63,-164.75C323.57,-157.65 327.83,-147.4 331.5,-138.56"/>
<polygon fill="#63b8ff" stroke="#63b8ff" points="334.83,-139.67 335.43,-129.09 328.36,-136.98 334.83,-139.67"/>
</g>
</g>
</svg>
        <g id="navigator" transform="translate(0 0)" fill="#404254">
                <rect fill="#f2f5e9" fill-opacity="0.5" stroke="#606060" stroke-width=".5" x="0" y="0" width="60" height="60"/>
                <use id="zoomplus" xlink:href="#zoomPlus" x="17" y="9" onmousedown="handleZoom(evt,'in')"/>
                <use id="zoomminus" xlink:href="#zoomMin" x="42" y="9" onmousedown="handleZoom(evt,'out')"/>
                <use id="reset" xlink:href="#resetDef" x="30" y="36" onmousedown="handleReset()"/>
                <g id="arrowUp" xlink:href="#dirArrow" transform="translate(30 24)" onmousedown="handlePan(0,-1)">
                  <use xlink:href="#rim" fill="#404040">
                        <set attributeName="fill" to="#808080" begin="arrowUp.mouseover" end="arrowUp.mouseout"/>
                  </use>
                  <path fill="none" stroke="white" stroke-width="1.5" d="M0,-3.0v7 M-2.5,-0.5L0,-3.0L2.5,-0.5"/>
                </g>
                <g id="arrowRight" xlink:href="#dirArrow" transform="rotate(90) translate(36 -43)" onmousedown="handlePan(1,0)">
                  <use xlink:href="#rim" fill="#404040">
                        <set attributeName="fill" to="#808080" begin="arrowRight.mouseover" end="arrowRight.mouseout"/>
                  </use>
                  <path fill="none" stroke="white" stroke-width="1.5" d="M0,-3.0v7 M-2.5,-0.5L0,-3.0L2.5,-0.5"/>
                </g>
                <g id="arrowDown" xlink:href="#dirArrow" transform="rotate(180) translate(-30 -48)" onmousedown="handlePan(0,1)">
                  <use xlink:href="#rim" fill="#404040">
                        <set attributeName="fill" to="#808080" begin="arrowDown.mouseover" end="arrowDown.mouseout"/>
                  </use>
                  <path fill="none" stroke="white" stroke-width="1.5" d="M0,-3.0v7 M-2.5,-0.5L0,-3.0L2.5,-0.5"/>
                </g>
                <g id="arrowLeft" xlink:href="#dirArrow" transform="rotate(270) translate(-36 17)" onmousedown="handlePan(-1,0)">
                  <use xlink:href="#rim" fill="#404040">
                        <set attributeName="fill" to="#808080" begin="arrowLeft.mouseover" end="arrowLeft.mouseout"/>
                  </use>
                  <path fill="none" stroke="white" stroke-width="1.5" d="M0,-3.0v7 M-2.5,-0.5L0,-3.0L2.5,-0.5"/>
                </g>
        </g>
        <svg viewBox="0 0 15 15" width="100%" height="30px" preserveAspectRatio="xMaxYMin meet">
         <g id="arrow_out" transform="scale(0.3 0.3)">
          <a xlink:href="debug_8cpp__incl_org.svg" target="_base">
           <rect id="button" ry="5" rx="5" y="6" x="6" height="38" width="38"
                fill="#f2f5e9" fill-opacity="0.5" stroke="#606060" stroke-width="1.0"/>
           <path id="arrow"
             d="M 11.500037,31.436501 C 11.940474,20.09759 22.043105,11.32322 32.158766,21.979434 L 37.068811,17.246167 C 37.068811,17.246167 37.088388,32 37.088388,32 L 22.160133,31.978069 C 22.160133,31.978069 26.997745,27.140456 26.997745,27.140456 C 18.528582,18.264221 13.291696,25.230495 11.500037,31.436501 z"
             style="fill:#404040;"/>
          </a>
         </g>
        </svg>
</svg>
