<?xml version="1.0" encoding="UTF-8" standalone="no"?>
<!DOCTYPE svg PUBLIC "-//W3C//DTD SVG 1.1//EN"
 "http://www.w3.org/Graphics/SVG/1.1/DTD/svg11.dtd">
<!-- Generated by graphviz version 2.43.0 (0)
 -->
<!-- Title: /home/runner/work/doxygen/doxygen/src/cppvalue.cpp Pages: 1 -->
<svg width="250pt" height="148pt"
 viewBox="0.00 0.00 249.50 148.00" xmlns="http://www.w3.org/2000/svg" xmlns:xlink="http://www.w3.org/1999/xlink">
<g id="graph0" class="graph" transform="scale(1 1) rotate(0) translate(4 144)">
<title>/home/runner/work/doxygen/doxygen/src/cppvalue.cpp</title>
<!-- Node1 -->
<g id="node1" class="node">
<title>Node1</title>
<g id="a_node1"><a xlink:title=" ">
<polygon fill="#999999" stroke="#666666" points="179.5,-140 25.5,-140 25.5,-110 179.5,-110 179.5,-140"/>
<text text-anchor="start" x="33.5" y="-128" font-family="Helvetica,sans-Serif" font-size="10.00">/home/runner/work/doxygen</text>
<text text-anchor="middle" x="102.5" y="-117" font-family="Helvetica,sans-Serif" font-size="10.00">/doxygen/src/cppvalue.cpp</text>
</a>
</g>
</g>
<!-- Node2 -->
<g id="node2" class="node">
<title>Node2</title>
<g id="a_node2"><a xlink:title=" ">
<polygon fill="#e0e0e0" stroke="#999999" points="49,-74 0,-74 0,-55 49,-55 49,-74"/>
<text text-anchor="middle" x="24.5" y="-62" font-family="Helvetica,sans-Serif" font-size="10.00">cstdlib</text>
</a>
</g>
</g>
<!-- Node1&#45;&gt;Node2 -->
<g id="edge1" class="edge">
<title>Node1&#45;&gt;Node2</title>
<path fill="none" stroke="#63b8ff" d="M83.62,-109.84C71.72,-100.91 56.38,-89.41 44.3,-80.35"/>
<polygon fill="#63b8ff" stroke="#63b8ff" points="46.29,-77.47 36.19,-74.27 42.09,-83.07 46.29,-77.47"/>
</g>
<!-- Node3 -->
<g id="node3" class="node">
<title>Node3</title>
<g id="a_node3"><a xlink:href="../../d6/dcc/cppvalue_8h.html" target="_top" xlink:title=" ">
<polygon fill="white" stroke="#666666" points="137.5,-74 67.5,-74 67.5,-55 137.5,-55 137.5,-74"/>
<text text-anchor="middle" x="102.5" y="-62" font-family="Helvetica,sans-Serif" font-size="10.00">cppvalue.h</text>
</a>
</g>
</g>
<!-- Node1&#45;&gt;Node3 -->
<g id="edge2" class="edge">
<title>Node1&#45;&gt;Node3</title>
<path fill="none" stroke="#63b8ff" d="M102.5,-109.84C102.5,-102.21 102.5,-92.7 102.5,-84.45"/>
<polygon fill="#63b8ff" stroke="#63b8ff" points="106,-84.27 102.5,-74.27 99,-84.27 106,-84.27"/>
</g>
<!-- Node6 -->
<g id="node6" class="node">
<title>Node6</title>
<g id="a_node6"><a xlink:href="../../d6/dd8/constexp_8h.html" target="_top" xlink:title=" ">
<polygon fill="white" stroke="#666666" points="225.5,-74 155.5,-74 155.5,-55 225.5,-55 225.5,-74"/>
<text text-anchor="middle" x="190.5" y="-62" font-family="Helvetica,sans-Serif" font-size="10.00">constexp.h</text>
</a>
</g>
</g>
<!-- Node1&#45;&gt;Node6 -->
<g id="edge5" class="edge">
<title>Node1&#45;&gt;Node6</title>
<path fill="none" stroke="#63b8ff" d="M123.8,-109.84C137.57,-100.68 155.43,-88.82 169.2,-79.66"/>
<polygon fill="#63b8ff" stroke="#63b8ff" points="171.18,-82.55 177.57,-74.09 167.31,-76.72 171.18,-82.55"/>
</g>
<!-- Node4 -->
<g id="node4" class="node">
<title>Node4</title>
<g id="a_node4"><a xlink:title=" ">
<polygon fill="#e0e0e0" stroke="#999999" points="103.5,-19 57.5,-19 57.5,0 103.5,0 103.5,-19"/>
<text text-anchor="middle" x="80.5" y="-7" font-family="Helvetica,sans-Serif" font-size="10.00">cstdio</text>
</a>
</g>
</g>
<!-- Node3&#45;&gt;Node4 -->
<g id="edge3" class="edge">
<title>Node3&#45;&gt;Node4</title>
<path fill="none" stroke="#63b8ff" d="M98.87,-54.75C95.92,-47.65 91.67,-37.4 87.99,-28.56"/>
<polygon fill="#63b8ff" stroke="#63b8ff" points="91.13,-26.98 84.07,-19.09 84.67,-29.67 91.13,-26.98"/>
</g>
<!-- Node5 -->
<g id="node5" class="node">
<title>Node5</title>
<g id="a_node5"><a xlink:title=" ">
<polygon fill="#e0e0e0" stroke="#999999" points="165.5,-19 121.5,-19 121.5,0 165.5,0 165.5,-19"/>
<text text-anchor="middle" x="143.5" y="-7" font-family="Helvetica,sans-Serif" font-size="10.00">string</text>
</a>
</g>
</g>
<!-- Node3&#45;&gt;Node5 -->
<g id="edge4" class="edge">
<title>Node3&#45;&gt;Node5</title>
<path fill="none" stroke="#63b8ff" d="M109.27,-54.75C115.06,-47.26 123.56,-36.28 130.64,-27.13"/>
<polygon fill="#63b8ff" stroke="#63b8ff" points="133.51,-29.14 136.86,-19.09 127.97,-24.86 133.51,-29.14"/>
</g>
<!-- Node6&#45;&gt;Node5 -->
<g id="edge6" class="edge">
<title>Node6&#45;&gt;Node5</title>
<path fill="none" stroke="#63b8ff" d="M182.74,-54.75C176.03,-47.18 166.16,-36.05 157.99,-26.84"/>
<polygon fill="#63b8ff" stroke="#63b8ff" points="160.37,-24.25 151.12,-19.09 155.13,-28.89 160.37,-24.25"/>
</g>
<!-- Node7 -->
<g id="node7" class="node">
<title>Node7</title>
<g id="a_node7"><a xlink:title=" ">
<polygon fill="#e0e0e0" stroke="#999999" points="241.5,-19 183.5,-19 183.5,0 241.5,0 241.5,-19"/>
<text text-anchor="middle" x="212.5" y="-7" font-family="Helvetica,sans-Serif" font-size="10.00">memory</text>
</a>
</g>
</g>
<!-- Node6&#45;&gt;Node7 -->
<g id="edge7" class="edge">
<title>Node6&#45;&gt;Node7</title>
<path fill="none" stroke="#63b8ff" d="M194.13,-54.75C197.08,-47.65 201.33,-37.4 205.01,-28.56"/>
<polygon fill="#63b8ff" stroke="#63b8ff" points="208.33,-29.67 208.93,-19.09 201.87,-26.98 208.33,-29.67"/>
</g>
</g>
</svg>
