<?xml version="1.0" encoding="UTF-8" standalone="no"?>
<!DOCTYPE svg PUBLIC "-//W3C//DTD SVG 1.1//EN"
 "http://www.w3.org/Graphics/SVG/1.1/DTD/svg11.dtd">
<!-- Generated by graphviz version 2.43.0 (0)
 -->
<!-- Title: /home/runner/work/doxygen/doxygen/src/sqlite3gen.cpp Pages: 1 -->
<svg width="556pt" height="258pt"
 viewBox="0.00 0.00 555.50 258.00" xmlns="http://www.w3.org/2000/svg" xmlns:xlink="http://www.w3.org/1999/xlink">
<g id="graph0" class="graph" transform="scale(1 1) rotate(0) translate(4 254)">
<title>/home/runner/work/doxygen/doxygen/src/sqlite3gen.cpp</title>
<!-- Node1 -->
<g id="node1" class="node">
<title>Node1</title>
<g id="a_node1"><a xlink:title=" ">
<polygon fill="#999999" stroke="#666666" points="278.5,-250 124.5,-250 124.5,-220 278.5,-220 278.5,-250"/>
<text text-anchor="start" x="132.5" y="-238" font-family="Helvetica,sans-Serif" font-size="10.00">/home/runner/work/doxygen</text>
<text text-anchor="middle" x="201.5" y="-227" font-family="Helvetica,sans-Serif" font-size="10.00">/doxygen/src/sqlite3gen.cpp</text>
</a>
</g>
</g>
<!-- Node2 -->
<g id="node2" class="node">
<title>Node2</title>
<g id="a_node2"><a xlink:title=" ">
<polygon fill="#e0e0e0" stroke="#999999" points="49,-74 0,-74 0,-55 49,-55 49,-74"/>
<text text-anchor="middle" x="24.5" y="-62" font-family="Helvetica,sans-Serif" font-size="10.00">cstdlib</text>
</a>
</g>
</g>
<!-- Node1&#45;&gt;Node2 -->
<g id="edge1" class="edge">
<title>Node1&#45;&gt;Node2</title>
<path fill="none" stroke="#63b8ff" d="M184.13,-219.93C172.2,-210.11 156.12,-196.57 142.5,-184 104.14,-148.6 61.45,-104.47 39.44,-81.34"/>
<polygon fill="#63b8ff" stroke="#63b8ff" points="41.98,-78.93 32.56,-74.08 36.9,-83.74 41.98,-78.93"/>
</g>
<!-- Node3 -->
<g id="node3" class="node">
<title>Node3</title>
<g id="a_node3"><a xlink:title=" ">
<polygon fill="#e0e0e0" stroke="#999999" points="113.5,-74 67.5,-74 67.5,-55 113.5,-55 113.5,-74"/>
<text text-anchor="middle" x="90.5" y="-62" font-family="Helvetica,sans-Serif" font-size="10.00">cstdio</text>
</a>
</g>
</g>
<!-- Node1&#45;&gt;Node3 -->
<g id="edge2" class="edge">
<title>Node1&#45;&gt;Node3</title>
<path fill="none" stroke="#63b8ff" d="M187.57,-219.79C178.46,-210.13 166.61,-196.82 157.5,-184 133.52,-150.28 111,-107.25 99.16,-83.42"/>
<polygon fill="#63b8ff" stroke="#63b8ff" points="102.18,-81.64 94.64,-74.2 95.9,-84.72 102.18,-81.64"/>
</g>
<!-- Node4 -->
<g id="node4" class="node">
<title>Node4</title>
<g id="a_node4"><a xlink:title=" ">
<polygon fill="#e0e0e0" stroke="#999999" points="310.5,-184 254.5,-184 254.5,-165 310.5,-165 310.5,-184"/>
<text text-anchor="middle" x="282.5" y="-172" font-family="Helvetica,sans-Serif" font-size="10.00">sstream</text>
</a>
</g>
</g>
<!-- Node1&#45;&gt;Node4 -->
<g id="edge3" class="edge">
<title>Node1&#45;&gt;Node4</title>
<path fill="none" stroke="#63b8ff" d="M221.11,-219.84C233.47,-210.91 249.4,-199.41 261.93,-190.35"/>
<polygon fill="#63b8ff" stroke="#63b8ff" points="264.3,-192.96 270.36,-184.27 260.21,-187.28 264.3,-192.96"/>
</g>
<!-- Node5 -->
<g id="node5" class="node">
<title>Node5</title>
<g id="a_node5"><a xlink:title=" ">
<polygon fill="#e0e0e0" stroke="#999999" points="394,-184 329,-184 329,-165 394,-165 394,-184"/>
<text text-anchor="middle" x="361.5" y="-172" font-family="Helvetica,sans-Serif" font-size="10.00">settings.h</text>
</a>
</g>
</g>
<!-- Node1&#45;&gt;Node5 -->
<g id="edge4" class="edge">
<title>Node1&#45;&gt;Node5</title>
<path fill="none" stroke="#63b8ff" d="M239.82,-219.99C266.76,-210.14 302.43,-197.1 328.19,-187.68"/>
<polygon fill="#63b8ff" stroke="#63b8ff" points="329.68,-190.86 337.87,-184.14 327.28,-184.29 329.68,-190.86"/>
</g>
<!-- Node6 -->
<g id="node6" class="node">
<title>Node6</title>
<g id="a_node6"><a xlink:href="../../d2/d0d/message_8h.html" target="_top" xlink:title=" ">
<polygon fill="white" stroke="#666666" points="236.5,-184 166.5,-184 166.5,-165 236.5,-165 236.5,-184"/>
<text text-anchor="middle" x="201.5" y="-172" font-family="Helvetica,sans-Serif" font-size="10.00">message.h</text>
</a>
</g>
</g>
<!-- Node1&#45;&gt;Node6 -->
<g id="edge5" class="edge">
<title>Node1&#45;&gt;Node6</title>
<path fill="none" stroke="#63b8ff" d="M201.5,-219.84C201.5,-212.21 201.5,-202.7 201.5,-194.45"/>
<polygon fill="#63b8ff" stroke="#63b8ff" points="205,-194.27 201.5,-184.27 198,-194.27 205,-194.27"/>
</g>
<!-- Node7 -->
<g id="node7" class="node">
<title>Node7</title>
<g id="a_node7"><a xlink:title=" ">
<polygon fill="#e0e0e0" stroke="#999999" points="321,-129 268,-129 268,-110 321,-110 321,-129"/>
<text text-anchor="middle" x="294.5" y="-117" font-family="Helvetica,sans-Serif" font-size="10.00">cstdarg</text>
</a>
</g>
</g>
<!-- Node6&#45;&gt;Node7 -->
<g id="edge6" class="edge">
<title>Node6&#45;&gt;Node7</title>
<path fill="none" stroke="#63b8ff" d="M216.44,-164.98C231,-156.69 253.37,-143.94 270.43,-134.22"/>
<polygon fill="#63b8ff" stroke="#63b8ff" points="272.33,-137.16 279.29,-129.17 268.86,-131.08 272.33,-137.16"/>
</g>
<!-- Node8 -->
<g id="node8" class="node">
<title>Node8</title>
<g id="a_node8"><a xlink:href="../../d7/d5c/qcstring_8h.html" target="_top" xlink:title=" ">
<polygon fill="white" stroke="#666666" points="250,-129 185,-129 185,-110 250,-110 250,-129"/>
<text text-anchor="middle" x="217.5" y="-117" font-family="Helvetica,sans-Serif" font-size="10.00">qcstring.h</text>
</a>
</g>
</g>
<!-- Node6&#45;&gt;Node8 -->
<g id="edge7" class="edge">
<title>Node6&#45;&gt;Node8</title>
<path fill="none" stroke="#63b8ff" d="M204.14,-164.75C206.26,-157.72 209.31,-147.62 211.96,-138.84"/>
<polygon fill="#63b8ff" stroke="#63b8ff" points="215.37,-139.67 214.91,-129.09 208.67,-137.65 215.37,-139.67"/>
</g>
<!-- Node8&#45;&gt;Node2 -->
<g id="edge13" class="edge">
<title>Node8&#45;&gt;Node2</title>
<path fill="none" stroke="#63b8ff" d="M186.49,-109.98C151.67,-100.42 95.32,-84.95 59.1,-75"/>
<polygon fill="#63b8ff" stroke="#63b8ff" points="59.57,-71.5 49,-72.23 57.72,-78.25 59.57,-71.5"/>
</g>
<!-- Node8&#45;&gt;Node3 -->
<g id="edge12" class="edge">
<title>Node8&#45;&gt;Node3</title>
<path fill="none" stroke="#63b8ff" d="M197.1,-109.98C176.48,-101.38 144.39,-87.99 120.81,-78.15"/>
<polygon fill="#63b8ff" stroke="#63b8ff" points="121.85,-74.79 111.28,-74.17 119.16,-81.25 121.85,-74.79"/>
</g>
<!-- Node9 -->
<g id="node9" class="node">
<title>Node9</title>
<g id="a_node9"><a xlink:title=" ">
<polygon fill="#e0e0e0" stroke="#999999" points="257.5,-19 213.5,-19 213.5,0 257.5,0 257.5,-19"/>
<text text-anchor="middle" x="235.5" y="-7" font-family="Helvetica,sans-Serif" font-size="10.00">string</text>
</a>
</g>
</g>
<!-- Node8&#45;&gt;Node9 -->
<g id="edge8" class="edge">
<title>Node8&#45;&gt;Node9</title>
<path fill="none" stroke="#63b8ff" d="M218.97,-109.66C221.89,-92.17 228.45,-52.8 232.37,-29.27"/>
<polygon fill="#63b8ff" stroke="#63b8ff" points="235.87,-29.6 234.06,-19.16 228.96,-28.45 235.87,-29.6"/>
</g>
<!-- Node10 -->
<g id="node10" class="node">
<title>Node10</title>
<g id="a_node10"><a xlink:title=" ">
<polygon fill="#e0e0e0" stroke="#999999" points="411.5,-74 347.5,-74 347.5,-55 411.5,-55 411.5,-74"/>
<text text-anchor="middle" x="379.5" y="-62" font-family="Helvetica,sans-Serif" font-size="10.00">algorithm</text>
</a>
</g>
</g>
<!-- Node8&#45;&gt;Node10 -->
<g id="edge9" class="edge">
<title>Node8&#45;&gt;Node10</title>
<path fill="none" stroke="#63b8ff" d="M243.53,-109.98C270.61,-101.13 313.21,-87.19 343.51,-77.28"/>
<polygon fill="#63b8ff" stroke="#63b8ff" points="344.85,-80.52 353.27,-74.08 342.68,-73.87 344.85,-80.52"/>
</g>
<!-- Node11 -->
<g id="node11" class="node">
<title>Node11</title>
<g id="a_node11"><a xlink:title=" ">
<polygon fill="#e0e0e0" stroke="#999999" points="479,-74 430,-74 430,-55 479,-55 479,-74"/>
<text text-anchor="middle" x="454.5" y="-62" font-family="Helvetica,sans-Serif" font-size="10.00">cctype</text>
</a>
</g>
</g>
<!-- Node8&#45;&gt;Node11 -->
<g id="edge10" class="edge">
<title>Node8&#45;&gt;Node11</title>
<path fill="none" stroke="#63b8ff" d="M250.26,-111.63C288.49,-103.54 353.83,-89.5 419.52,-74.17"/>
<polygon fill="#63b8ff" stroke="#63b8ff" points="420.7,-77.49 429.64,-71.8 419.1,-70.68 420.7,-77.49"/>
</g>
<!-- Node12 -->
<g id="node12" class="node">
<title>Node12</title>
<g id="a_node12"><a xlink:title=" ">
<polygon fill="#e0e0e0" stroke="#999999" points="547.5,-74 497.5,-74 497.5,-55 547.5,-55 547.5,-74"/>
<text text-anchor="middle" x="522.5" y="-62" font-family="Helvetica,sans-Serif" font-size="10.00">cstring</text>
</a>
</g>
</g>
<!-- Node8&#45;&gt;Node12 -->
<g id="edge11" class="edge">
<title>Node8&#45;&gt;Node12</title>
<path fill="none" stroke="#63b8ff" d="M250.03,-111.77C253.23,-111.15 256.42,-110.55 259.5,-110 357.73,-92.35 385.8,-94.36 487.25,-74.1"/>
<polygon fill="#63b8ff" stroke="#63b8ff" points="488.2,-77.48 497.31,-72.06 486.81,-70.62 488.2,-77.48"/>
</g>
<!-- Node13 -->
<g id="node13" class="node">
<title>Node13</title>
<g id="a_node13"><a xlink:title=" ">
<polygon fill="#e0e0e0" stroke="#999999" points="334.5,-19 284.5,-19 284.5,0 334.5,0 334.5,-19"/>
<text text-anchor="middle" x="309.5" y="-7" font-family="Helvetica,sans-Serif" font-size="10.00">cstdint</text>
</a>
</g>
</g>
<!-- Node8&#45;&gt;Node13 -->
<g id="edge14" class="edge">
<title>Node8&#45;&gt;Node13</title>
<path fill="none" stroke="#63b8ff" d="M247.95,-109.9C266.13,-103.14 288.05,-91.83 300.5,-74 309.57,-61.02 311.34,-42.87 311.12,-29.3"/>
<polygon fill="#63b8ff" stroke="#63b8ff" points="314.61,-28.99 310.59,-19.19 307.62,-29.36 314.61,-28.99"/>
</g>
<!-- Node14 -->
<g id="node14" class="node">
<title>Node14</title>
<g id="a_node14"><a xlink:title=" ">
<polygon fill="#e0e0e0" stroke="#999999" points="189,-74 132,-74 132,-55 189,-55 189,-74"/>
<text text-anchor="middle" x="160.5" y="-62" font-family="Helvetica,sans-Serif" font-size="10.00">ostream</text>
</a>
</g>
</g>
<!-- Node8&#45;&gt;Node14 -->
<g id="edge15" class="edge">
<title>Node8&#45;&gt;Node14</title>
<path fill="none" stroke="#63b8ff" d="M208.34,-109.98C200,-102.23 187.47,-90.58 177.32,-81.14"/>
<polygon fill="#63b8ff" stroke="#63b8ff" points="179.53,-78.42 169.82,-74.17 174.76,-83.54 179.53,-78.42"/>
</g>
<!-- Node15 -->
<g id="node15" class="node">
<title>Node15</title>
<g id="a_node15"><a xlink:href="../../db/d7c/utf8_8h.html" target="_top" xlink:title="Various UTF8 related helper functions.">
<polygon fill="white" stroke="#666666" points="291,-74 246,-74 246,-55 291,-55 291,-74"/>
<text text-anchor="middle" x="268.5" y="-62" font-family="Helvetica,sans-Serif" font-size="10.00">utf8.h</text>
</a>
</g>
</g>
<!-- Node8&#45;&gt;Node15 -->
<g id="edge16" class="edge">
<title>Node8&#45;&gt;Node15</title>
<path fill="none" stroke="#63b8ff" d="M225.92,-109.75C233.27,-102.11 244.13,-90.82 253.04,-81.56"/>
<polygon fill="#63b8ff" stroke="#63b8ff" points="255.82,-83.72 260.24,-74.09 250.78,-78.87 255.82,-83.72"/>
</g>
<!-- Node15&#45;&gt;Node9 -->
<g id="edge18" class="edge">
<title>Node15&#45;&gt;Node9</title>
<path fill="none" stroke="#63b8ff" d="M263.05,-54.75C258.49,-47.42 251.83,-36.73 246.21,-27.7"/>
<polygon fill="#63b8ff" stroke="#63b8ff" points="249.1,-25.73 240.85,-19.09 243.16,-29.43 249.1,-25.73"/>
</g>
<!-- Node15&#45;&gt;Node13 -->
<g id="edge17" class="edge">
<title>Node15&#45;&gt;Node13</title>
<path fill="none" stroke="#63b8ff" d="M275.27,-54.75C281.06,-47.26 289.56,-36.28 296.64,-27.13"/>
<polygon fill="#63b8ff" stroke="#63b8ff" points="299.51,-29.14 302.86,-19.09 293.97,-24.86 299.51,-29.14"/>
</g>
</g>
</svg>
