<?xml version="1.0" encoding="UTF-8" standalone="no"?>
<!DOCTYPE svg PUBLIC "-//W3C//DTD SVG 1.1//EN"
 "http://www.w3.org/Graphics/SVG/1.1/DTD/svg11.dtd">
<!-- Generated by graphviz version 2.43.0 (0)
 -->
<!-- Title: /home/runner/work/doxygen/doxygen/src/markdown.h Pages: 1 -->
<!--zoomable 313 -->
<svg id="main" version="1.1" xmlns="http://www.w3.org/2000/svg" xmlns:xlink="http://www.w3.org/1999/xlink" xml:space="preserve" onload="init(evt)">
<style type="text/css"><![CDATA[
.edge:hover path { stroke: red; }
.edge:hover polygon { stroke: red; fill: red; }
]]></style>
<script type="text/javascript"><![CDATA[
var edges = document.getElementsByTagName('g');
if (edges && edges.length) {
  for (var i=0;i<edges.length;i++) {
    if (edges[i].id.substr(0,4)=='edge') {
      edges[i].setAttribute('class','edge');
    }
  }
}
]]></script>
        <defs>
                <circle id="rim" cx="0" cy="0" r="7"/>
                <circle id="rim2" cx="0" cy="0" r="3.5"/>
                <g id="zoomPlus">
                        <use xlink:href="#rim" fill="#404040">
                                <set attributeName="fill" to="#808080" begin="zoomplus.mouseover" end="zoomplus.mouseout"/>
                        </use>
                        <path d="M-4,0h8M0,-4v8" fill="none" stroke="white" stroke-width="1.5" pointer-events="none"/>
                </g>
                <g id="zoomMin">
                        <use xlink:href="#rim" fill="#404040">
                                <set attributeName="fill" to="#808080" begin="zoomminus.mouseover" end="zoomminus.mouseout"/>
                        </use>
                        <path d="M-4,0h8" fill="none" stroke="white" stroke-width="1.5" pointer-events="none"/>
                </g>
                <g id="dirArrow">
                        <path fill="none" stroke="white" stroke-width="1.5" d="M0,-3.0v7 M-2.5,-0.5L0,-3.0L2.5,-0.5"/>
                </g>
               <g id="resetDef">
                       <use xlink:href="#rim2" fill="#404040">
                               <set attributeName="fill" to="#808080" begin="reset.mouseover" end="reset.mouseout"/>
                       </use>
               </g>
        </defs>

<script type="text/javascript">
var viewWidth = 1174;
var viewHeight = 313;
var sectionId = 'dynsection-0';
</script>
<script xlink:href="../../svgpan.js"/>
<svg id="graph" class="graph">
<g id="viewport">
<title>/home/runner/work/doxygen/doxygen/src/markdown.h</title>
<!-- Node1 -->
<g id="node1" class="node">
<title>Node1</title>
<g id="a_node1"><a xlink:title=" ">
<polygon fill="#999999" stroke="#666666" points="667,-305 513,-305 513,-275 667,-275 667,-305"/>
<text text-anchor="start" x="521" y="-293" font-family="Helvetica,sans-Serif" font-size="10.00">/home/runner/work/doxygen</text>
<text text-anchor="middle" x="590" y="-282" font-family="Helvetica,sans-Serif" font-size="10.00">/doxygen/src/markdown.h</text>
</a>
</g>
</g>
<!-- Node2 -->
<g id="node2" class="node">
<title>Node2</title>
<g id="a_node2"><a xlink:title=" ">
<polygon fill="#e0e0e0" stroke="#999999" points="211.5,-184 146.5,-184 146.5,-165 211.5,-165 211.5,-184"/>
<text text-anchor="middle" x="179" y="-172" font-family="Helvetica,sans-Serif" font-size="10.00">functional</text>
</a>
</g>
</g>
<!-- Node1&#45;&gt;Node2 -->
<g id="edge1" class="edge">
<title>Node1&#45;&gt;Node2</title>
<path fill="none" stroke="#63b8ff" d="M539.19,-274.97C456.83,-252.23 295.8,-207.75 220.13,-186.86"/>
<polygon fill="#63b8ff" stroke="#63b8ff" points="220.61,-183.36 210.04,-184.07 218.75,-190.11 220.61,-183.36"/>
</g>
<!-- Node3 -->
<g id="node3" class="node">
<title>Node3</title>
<g id="a_node3"><a xlink:href="../../d7/d5c/qcstring_8h.html" target="_top" xlink:title=" ">
<polygon fill="white" stroke="#666666" points="769.5,-129 704.5,-129 704.5,-110 769.5,-110 769.5,-129"/>
<text text-anchor="middle" x="737" y="-117" font-family="Helvetica,sans-Serif" font-size="10.00">qcstring.h</text>
</a>
</g>
</g>
<!-- Node1&#45;&gt;Node3 -->
<g id="edge2" class="edge">
<title>Node1&#45;&gt;Node3</title>
<path fill="none" stroke="#63b8ff" d="M602.28,-274.92C629.26,-243.99 693.62,-170.23 722.52,-137.1"/>
<polygon fill="#63b8ff" stroke="#63b8ff" points="725.43,-139.09 729.36,-129.25 720.15,-134.49 725.43,-139.09"/>
</g>
<!-- Node13 -->
<g id="node13" class="node">
<title>Node13</title>
<g id="a_node13"><a xlink:href="../../da/d55/parserintf_8h.html" target="_top" xlink:title=" ">
<polygon fill="white" stroke="#666666" points="533,-239 461,-239 461,-220 533,-220 533,-239"/>
<text text-anchor="middle" x="497" y="-227" font-family="Helvetica,sans-Serif" font-size="10.00">parserintf.h</text>
</a>
</g>
</g>
<!-- Node1&#45;&gt;Node13 -->
<g id="edge14" class="edge">
<title>Node1&#45;&gt;Node13</title>
<path fill="none" stroke="#63b8ff" d="M567.49,-274.84C552.94,-265.68 534.07,-253.82 519.51,-244.66"/>
<polygon fill="#63b8ff" stroke="#63b8ff" points="520.99,-241.46 510.66,-239.09 517.26,-247.38 520.99,-241.46"/>
</g>
<!-- Node23 -->
<g id="node23" class="node">
<title>Node23</title>
<g id="a_node23"><a xlink:href="../../dd/d72/growbuf_8h.html" target="_top" xlink:title=" ">
<polygon fill="white" stroke="#666666" points="1071.5,-129 1006.5,-129 1006.5,-110 1071.5,-110 1071.5,-129"/>
<text text-anchor="middle" x="1039" y="-117" font-family="Helvetica,sans-Serif" font-size="10.00">growbuf.h</text>
</a>
</g>
</g>
<!-- Node1&#45;&gt;Node23 -->
<g id="edge29" class="edge">
<title>Node1&#45;&gt;Node23</title>
<path fill="none" stroke="#63b8ff" d="M627.51,-274.92C713.82,-242.53 925.28,-163.18 1006.5,-132.7"/>
<polygon fill="#63b8ff" stroke="#63b8ff" points="1008.05,-135.85 1016.18,-129.06 1005.59,-129.3 1008.05,-135.85"/>
</g>
<!-- Node4 -->
<g id="node4" class="node">
<title>Node4</title>
<g id="a_node4"><a xlink:title=" ">
<polygon fill="#e0e0e0" stroke="#999999" points="549,-19 505,-19 505,0 549,0 549,-19"/>
<text text-anchor="middle" x="527" y="-7" font-family="Helvetica,sans-Serif" font-size="10.00">string</text>
</a>
</g>
</g>
<!-- Node3&#45;&gt;Node4 -->
<g id="edge3" class="edge">
<title>Node3&#45;&gt;Node4</title>
<path fill="none" stroke="#63b8ff" d="M704.41,-114.86C656.07,-108.83 568.64,-95.28 546,-74 533.83,-62.56 529.35,-43.67 527.76,-29.46"/>
<polygon fill="#63b8ff" stroke="#63b8ff" points="531.23,-29.02 527,-19.3 524.25,-29.53 531.23,-29.02"/>
</g>
<!-- Node5 -->
<g id="node5" class="node">
<title>Node5</title>
<g id="a_node5"><a xlink:title=" ">
<polygon fill="#e0e0e0" stroke="#999999" points="619,-74 555,-74 555,-55 619,-55 619,-74"/>
<text text-anchor="middle" x="587" y="-62" font-family="Helvetica,sans-Serif" font-size="10.00">algorithm</text>
</a>
</g>
</g>
<!-- Node3&#45;&gt;Node5 -->
<g id="edge4" class="edge">
<title>Node3&#45;&gt;Node5</title>
<path fill="none" stroke="#63b8ff" d="M712.9,-109.98C688.12,-101.23 649.3,-87.51 621.31,-77.62"/>
<polygon fill="#63b8ff" stroke="#63b8ff" points="622.13,-74.2 611.54,-74.17 619.8,-80.8 622.13,-74.2"/>
</g>
<!-- Node6 -->
<g id="node6" class="node">
<title>Node6</title>
<g id="a_node6"><a xlink:title=" ">
<polygon fill="#e0e0e0" stroke="#999999" points="761.5,-74 712.5,-74 712.5,-55 761.5,-55 761.5,-74"/>
<text text-anchor="middle" x="737" y="-62" font-family="Helvetica,sans-Serif" font-size="10.00">cctype</text>
</a>
</g>
</g>
<!-- Node3&#45;&gt;Node6 -->
<g id="edge5" class="edge">
<title>Node3&#45;&gt;Node6</title>
<path fill="none" stroke="#63b8ff" d="M737,-109.75C737,-102.8 737,-92.85 737,-84.13"/>
<polygon fill="#63b8ff" stroke="#63b8ff" points="740.5,-84.09 737,-74.09 733.5,-84.09 740.5,-84.09"/>
</g>
<!-- Node7 -->
<g id="node7" class="node">
<title>Node7</title>
<g id="a_node7"><a xlink:title=" ">
<polygon fill="#e0e0e0" stroke="#999999" points="996,-74 946,-74 946,-55 996,-55 996,-74"/>
<text text-anchor="middle" x="971" y="-62" font-family="Helvetica,sans-Serif" font-size="10.00">cstring</text>
</a>
</g>
</g>
<!-- Node3&#45;&gt;Node7 -->
<g id="edge6" class="edge">
<title>Node3&#45;&gt;Node7</title>
<path fill="none" stroke="#63b8ff" d="M769.54,-111.13C813.34,-101.21 890.97,-83.63 936,-73.43"/>
<polygon fill="#63b8ff" stroke="#63b8ff" points="936.92,-76.81 945.9,-71.18 935.38,-69.98 936.92,-76.81"/>
</g>
<!-- Node8 -->
<g id="node8" class="node">
<title>Node8</title>
<g id="a_node8"><a xlink:title=" ">
<polygon fill="#e0e0e0" stroke="#999999" points="826,-74 780,-74 780,-55 826,-55 826,-74"/>
<text text-anchor="middle" x="803" y="-62" font-family="Helvetica,sans-Serif" font-size="10.00">cstdio</text>
</a>
</g>
</g>
<!-- Node3&#45;&gt;Node8 -->
<g id="edge7" class="edge">
<title>Node3&#45;&gt;Node8</title>
<path fill="none" stroke="#63b8ff" d="M747.6,-109.98C757.46,-102.07 772.35,-90.11 784.22,-80.58"/>
<polygon fill="#63b8ff" stroke="#63b8ff" points="786.6,-83.16 792.2,-74.17 782.21,-77.7 786.6,-83.16"/>
</g>
<!-- Node9 -->
<g id="node9" class="node">
<title>Node9</title>
<g id="a_node9"><a xlink:title=" ">
<polygon fill="#e0e0e0" stroke="#999999" points="1063.5,-74 1014.5,-74 1014.5,-55 1063.5,-55 1063.5,-74"/>
<text text-anchor="middle" x="1039" y="-62" font-family="Helvetica,sans-Serif" font-size="10.00">cstdlib</text>
</a>
</g>
</g>
<!-- Node3&#45;&gt;Node9 -->
<g id="edge8" class="edge">
<title>Node3&#45;&gt;Node9</title>
<path fill="none" stroke="#63b8ff" d="M769.75,-113.93C818.62,-106.92 913.73,-92.56 1004.29,-74"/>
<polygon fill="#63b8ff" stroke="#63b8ff" points="1005.09,-77.41 1014.17,-71.95 1003.67,-70.55 1005.09,-77.41"/>
</g>
<!-- Node10 -->
<g id="node10" class="node">
<title>Node10</title>
<g id="a_node10"><a xlink:title=" ">
<polygon fill="#e0e0e0" stroke="#999999" points="917,-19 867,-19 867,0 917,0 917,-19"/>
<text text-anchor="middle" x="892" y="-7" font-family="Helvetica,sans-Serif" font-size="10.00">cstdint</text>
</a>
</g>
</g>
<!-- Node3&#45;&gt;Node10 -->
<g id="edge9" class="edge">
<title>Node3&#45;&gt;Node10</title>
<path fill="none" stroke="#63b8ff" d="M769.65,-114.21C812.3,-107.87 883.39,-94.47 899,-74 908.75,-61.21 905.21,-42.53 900.3,-28.74"/>
<polygon fill="#63b8ff" stroke="#63b8ff" points="903.49,-27.28 896.48,-19.33 897,-29.91 903.49,-27.28"/>
</g>
<!-- Node11 -->
<g id="node11" class="node">
<title>Node11</title>
<g id="a_node11"><a xlink:title=" ">
<polygon fill="#e0e0e0" stroke="#999999" points="694.5,-74 637.5,-74 637.5,-55 694.5,-55 694.5,-74"/>
<text text-anchor="middle" x="666" y="-62" font-family="Helvetica,sans-Serif" font-size="10.00">ostream</text>
</a>
</g>
</g>
<!-- Node3&#45;&gt;Node11 -->
<g id="edge10" class="edge">
<title>Node3&#45;&gt;Node11</title>
<path fill="none" stroke="#63b8ff" d="M725.59,-109.98C714.89,-102 698.66,-89.88 685.84,-80.31"/>
<polygon fill="#63b8ff" stroke="#63b8ff" points="687.72,-77.35 677.61,-74.17 683.53,-82.96 687.72,-77.35"/>
</g>
<!-- Node12 -->
<g id="node12" class="node">
<title>Node12</title>
<g id="a_node12"><a xlink:href="../../db/d7c/utf8_8h.html" target="_top" xlink:title="Various UTF8 related helper functions.">
<polygon fill="white" stroke="#666666" points="889.5,-74 844.5,-74 844.5,-55 889.5,-55 889.5,-74"/>
<text text-anchor="middle" x="867" y="-62" font-family="Helvetica,sans-Serif" font-size="10.00">utf8.h</text>
</a>
</g>
</g>
<!-- Node3&#45;&gt;Node12 -->
<g id="edge11" class="edge">
<title>Node3&#45;&gt;Node12</title>
<path fill="none" stroke="#63b8ff" d="M757.89,-109.98C779.08,-101.34 812.13,-87.87 836.3,-78.02"/>
<polygon fill="#63b8ff" stroke="#63b8ff" points="837.79,-81.19 845.73,-74.17 835.15,-74.7 837.79,-81.19"/>
</g>
<!-- Node12&#45;&gt;Node4 -->
<g id="edge13" class="edge">
<title>Node12&#45;&gt;Node4</title>
<path fill="none" stroke="#63b8ff" d="M844.35,-57.14C841.22,-56.36 838.04,-55.62 835,-55 735.29,-34.63 615.57,-20.14 559.26,-13.91"/>
<polygon fill="#63b8ff" stroke="#63b8ff" points="559.51,-10.42 549.19,-12.81 558.75,-17.38 559.51,-10.42"/>
</g>
<!-- Node12&#45;&gt;Node10 -->
<g id="edge12" class="edge">
<title>Node12&#45;&gt;Node10</title>
<path fill="none" stroke="#63b8ff" d="M871.13,-54.75C874.51,-47.57 879.42,-37.18 883.62,-28.27"/>
<polygon fill="#63b8ff" stroke="#63b8ff" points="886.85,-29.63 887.95,-19.09 880.52,-26.64 886.85,-29.63"/>
</g>
<!-- Node13&#45;&gt;Node2 -->
<g id="edge15" class="edge">
<title>Node13&#45;&gt;Node2</title>
<path fill="none" stroke="#63b8ff" d="M460.59,-222.71C408.53,-214.4 309.87,-198.47 226,-184 224.54,-183.75 223.06,-183.49 221.57,-183.23"/>
<polygon fill="#63b8ff" stroke="#63b8ff" points="222.06,-179.76 211.6,-181.47 220.84,-186.66 222.06,-179.76"/>
</g>
<!-- Node13&#45;&gt;Node4 -->
<g id="edge18" class="edge">
<title>Node13&#45;&gt;Node4</title>
<path fill="none" stroke="#63b8ff" d="M498.18,-219.95C502.58,-187.95 518.17,-74.68 524.4,-29.4"/>
<polygon fill="#63b8ff" stroke="#63b8ff" points="527.9,-29.61 525.8,-19.22 520.97,-28.65 527.9,-29.61"/>
</g>
<!-- Node14 -->
<g id="node14" class="node">
<title>Node14</title>
<g id="a_node14"><a xlink:title=" ">
<polygon fill="#e0e0e0" stroke="#999999" points="583,-184 525,-184 525,-165 583,-165 583,-184"/>
<text text-anchor="middle" x="554" y="-172" font-family="Helvetica,sans-Serif" font-size="10.00">memory</text>
</a>
</g>
</g>
<!-- Node13&#45;&gt;Node14 -->
<g id="edge16" class="edge">
<title>Node13&#45;&gt;Node14</title>
<path fill="none" stroke="#63b8ff" d="M506.16,-219.98C514.5,-212.23 527.03,-200.58 537.18,-191.14"/>
<polygon fill="#63b8ff" stroke="#63b8ff" points="539.74,-193.54 544.68,-184.17 534.97,-188.42 539.74,-193.54"/>
</g>
<!-- Node15 -->
<g id="node15" class="node">
<title>Node15</title>
<g id="a_node15"><a xlink:title=" ">
<polygon fill="#e0e0e0" stroke="#999999" points="38,-129 0,-129 0,-110 38,-110 38,-129"/>
<text text-anchor="middle" x="19" y="-117" font-family="Helvetica,sans-Serif" font-size="10.00">map</text>
</a>
</g>
</g>
<!-- Node13&#45;&gt;Node15 -->
<g id="edge17" class="edge">
<title>Node13&#45;&gt;Node15</title>
<path fill="none" stroke="#63b8ff" d="M460.92,-224.77C413.79,-219.21 329.16,-206.88 260,-184 241.69,-177.94 239.23,-171.28 221,-165 148.39,-140 126.76,-146.58 52,-129 50.74,-128.7 49.45,-128.39 48.15,-128.08"/>
<polygon fill="#63b8ff" stroke="#63b8ff" points="48.71,-124.61 38.16,-125.58 47.01,-131.4 48.71,-124.61"/>
</g>
<!-- Node16 -->
<g id="node16" class="node">
<title>Node16</title>
<g id="a_node16"><a xlink:href="../../d9/d49/types_8h.html" target="_top" xlink:title="This file contains a number of basic enums and types.">
<polygon fill="white" stroke="#666666" points="669.5,-184 616.5,-184 616.5,-165 669.5,-165 669.5,-184"/>
<text text-anchor="middle" x="643" y="-172" font-family="Helvetica,sans-Serif" font-size="10.00">types.h</text>
</a>
</g>
</g>
<!-- Node13&#45;&gt;Node16 -->
<g id="edge19" class="edge">
<title>Node13&#45;&gt;Node16</title>
<path fill="none" stroke="#63b8ff" d="M520.46,-219.98C544.58,-211.23 582.37,-197.51 609.6,-187.62"/>
<polygon fill="#63b8ff" stroke="#63b8ff" points="610.91,-190.87 619.12,-184.17 608.52,-184.29 610.91,-190.87"/>
</g>
<!-- Node17 -->
<g id="node17" class="node">
<title>Node17</title>
<g id="a_node17"><a xlink:href="../../d5/d75/containers_8h.html" target="_top" xlink:title=" ">
<polygon fill="white" stroke="#666666" points="345.5,-184 268.5,-184 268.5,-165 345.5,-165 345.5,-184"/>
<text text-anchor="middle" x="307" y="-172" font-family="Helvetica,sans-Serif" font-size="10.00">containers.h</text>
</a>
</g>
</g>
<!-- Node13&#45;&gt;Node17 -->
<g id="edge21" class="edge">
<title>Node13&#45;&gt;Node17</title>
<path fill="none" stroke="#63b8ff" d="M466.47,-219.98C434.3,-211.01 383.44,-196.82 347.83,-186.89"/>
<polygon fill="#63b8ff" stroke="#63b8ff" points="348.34,-183.4 337.77,-184.08 346.46,-190.14 348.34,-183.4"/>
</g>
<!-- Node16&#45;&gt;Node3 -->
<g id="edge20" class="edge">
<title>Node16&#45;&gt;Node3</title>
<path fill="none" stroke="#63b8ff" d="M658.1,-164.98C672.82,-156.69 695.42,-143.94 712.67,-134.22"/>
<polygon fill="#63b8ff" stroke="#63b8ff" points="714.63,-137.13 721.62,-129.17 711.19,-131.03 714.63,-137.13"/>
</g>
<!-- Node17&#45;&gt;Node4 -->
<g id="edge23" class="edge">
<title>Node17&#45;&gt;Node4</title>
<path fill="none" stroke="#63b8ff" d="M268.26,-167C206.43,-156.45 91.78,-136.06 86,-129 80.65,-122.47 80.73,-116.6 86,-110 137.51,-45.58 401.7,-19.87 494.62,-12.73"/>
<polygon fill="#63b8ff" stroke="#63b8ff" points="495.12,-16.2 504.83,-11.97 494.6,-9.22 495.12,-16.2"/>
</g>
<!-- Node17&#45;&gt;Node15 -->
<g id="edge25" class="edge">
<title>Node17&#45;&gt;Node15</title>
<path fill="none" stroke="#63b8ff" d="M268.41,-167.15C207.71,-157.1 92.63,-137.76 52,-129 50.73,-128.73 49.44,-128.44 48.13,-128.14"/>
<polygon fill="#63b8ff" stroke="#63b8ff" points="48.68,-124.67 38.13,-125.7 47.02,-131.47 48.68,-124.67"/>
</g>
<!-- Node18 -->
<g id="node18" class="node">
<title>Node18</title>
<g id="a_node18"><a xlink:title=" ">
<polygon fill="#e0e0e0" stroke="#999999" points="141.5,-129 94.5,-129 94.5,-110 141.5,-110 141.5,-129"/>
<text text-anchor="middle" x="118" y="-117" font-family="Helvetica,sans-Serif" font-size="10.00">vector</text>
</a>
</g>
</g>
<!-- Node17&#45;&gt;Node18 -->
<g id="edge22" class="edge">
<title>Node17&#45;&gt;Node18</title>
<path fill="none" stroke="#63b8ff" d="M276.63,-164.98C242.44,-155.4 187.05,-139.86 151.59,-129.92"/>
<polygon fill="#63b8ff" stroke="#63b8ff" points="152.28,-126.48 141.71,-127.15 150.39,-133.22 152.28,-126.48"/>
</g>
<!-- Node19 -->
<g id="node19" class="node">
<title>Node19</title>
<g id="a_node19"><a xlink:title=" ">
<polygon fill="#e0e0e0" stroke="#999999" points="192,-129 160,-129 160,-110 192,-110 192,-129"/>
<text text-anchor="middle" x="176" y="-117" font-family="Helvetica,sans-Serif" font-size="10.00">set</text>
</a>
</g>
</g>
<!-- Node17&#45;&gt;Node19 -->
<g id="edge24" class="edge">
<title>Node17&#45;&gt;Node19</title>
<path fill="none" stroke="#63b8ff" d="M285.95,-164.98C262.94,-155.67 226.07,-140.76 201.45,-130.8"/>
<polygon fill="#63b8ff" stroke="#63b8ff" points="202.62,-127.5 192.04,-126.99 200,-133.98 202.62,-127.5"/>
</g>
<!-- Node20 -->
<g id="node20" class="node">
<title>Node20</title>
<g id="a_node20"><a xlink:title=" ">
<polygon fill="#e0e0e0" stroke="#999999" points="296,-129 210,-129 210,-110 296,-110 296,-129"/>
<text text-anchor="middle" x="253" y="-117" font-family="Helvetica,sans-Serif" font-size="10.00">unordered_set</text>
</a>
</g>
</g>
<!-- Node17&#45;&gt;Node20 -->
<g id="edge26" class="edge">
<title>Node17&#45;&gt;Node20</title>
<path fill="none" stroke="#63b8ff" d="M298.08,-164.75C290.22,-157.03 278.57,-145.6 269.08,-136.28"/>
<polygon fill="#63b8ff" stroke="#63b8ff" points="271.34,-133.6 261.75,-129.09 266.44,-138.59 271.34,-133.6"/>
</g>
<!-- Node21 -->
<g id="node21" class="node">
<title>Node21</title>
<g id="a_node21"><a xlink:title=" ">
<polygon fill="#e0e0e0" stroke="#999999" points="407.5,-129 314.5,-129 314.5,-110 407.5,-110 407.5,-129"/>
<text text-anchor="middle" x="361" y="-117" font-family="Helvetica,sans-Serif" font-size="10.00">unordered_map</text>
</a>
</g>
</g>
<!-- Node17&#45;&gt;Node21 -->
<g id="edge27" class="edge">
<title>Node17&#45;&gt;Node21</title>
<path fill="none" stroke="#63b8ff" d="M315.92,-164.75C323.78,-157.03 335.43,-145.6 344.92,-136.28"/>
<polygon fill="#63b8ff" stroke="#63b8ff" points="347.56,-138.59 352.25,-129.09 342.66,-133.6 347.56,-138.59"/>
</g>
<!-- Node22 -->
<g id="node22" class="node">
<title>Node22</title>
<g id="a_node22"><a xlink:title=" ">
<polygon fill="#e0e0e0" stroke="#999999" points="468.5,-129 425.5,-129 425.5,-110 468.5,-110 468.5,-129"/>
<text text-anchor="middle" x="447" y="-117" font-family="Helvetica,sans-Serif" font-size="10.00">stack</text>
</a>
</g>
</g>
<!-- Node17&#45;&gt;Node22 -->
<g id="edge28" class="edge">
<title>Node17&#45;&gt;Node22</title>
<path fill="none" stroke="#63b8ff" d="M329.49,-164.98C352.93,-156.11 389.83,-142.14 416.02,-132.23"/>
<polygon fill="#63b8ff" stroke="#63b8ff" points="417.37,-135.46 425.48,-128.65 414.89,-128.91 417.37,-135.46"/>
</g>
<!-- Node23&#45;&gt;Node4 -->
<g id="edge33" class="edge">
<title>Node23&#45;&gt;Node4</title>
<path fill="none" stroke="#63b8ff" d="M1049.75,-109.84C1064.73,-96.77 1088.43,-71.73 1073,-55 1038.1,-17.14 671.59,-11.49 559.43,-10.65"/>
<polygon fill="#63b8ff" stroke="#63b8ff" points="559.12,-7.15 549.1,-10.58 559.07,-14.15 559.12,-7.15"/>
</g>
<!-- Node23&#45;&gt;Node7 -->
<g id="edge32" class="edge">
<title>Node23&#45;&gt;Node7</title>
<path fill="none" stroke="#63b8ff" d="M1028.07,-109.98C1017.92,-102.07 1002.58,-90.11 990.35,-80.58"/>
<polygon fill="#63b8ff" stroke="#63b8ff" points="992.16,-77.56 982.12,-74.17 987.86,-83.08 992.16,-77.56"/>
</g>
<!-- Node23&#45;&gt;Node9 -->
<g id="edge31" class="edge">
<title>Node23&#45;&gt;Node9</title>
<path fill="none" stroke="#63b8ff" d="M1039,-109.75C1039,-102.8 1039,-92.85 1039,-84.13"/>
<polygon fill="#63b8ff" stroke="#63b8ff" points="1042.5,-84.09 1039,-74.09 1035.5,-84.09 1042.5,-84.09"/>
</g>
<!-- Node24 -->
<g id="node24" class="node">
<title>Node24</title>
<g id="a_node24"><a xlink:title=" ">
<polygon fill="#e0e0e0" stroke="#999999" points="1165.5,-74 1120.5,-74 1120.5,-55 1165.5,-55 1165.5,-74"/>
<text text-anchor="middle" x="1143" y="-62" font-family="Helvetica,sans-Serif" font-size="10.00">utility</text>
</a>
</g>
</g>
<!-- Node23&#45;&gt;Node24 -->
<g id="edge30" class="edge">
<title>Node23&#45;&gt;Node24</title>
<path fill="none" stroke="#63b8ff" d="M1055.71,-109.98C1072.21,-101.57 1097.7,-88.59 1116.88,-78.81"/>
<polygon fill="#63b8ff" stroke="#63b8ff" points="1118.67,-81.83 1125.99,-74.17 1115.49,-75.59 1118.67,-81.83"/>
</g>
</g>
</svg>
        <g id="navigator" transform="translate(0 0)" fill="#404254">
                <rect fill="#f2f5e9" fill-opacity="0.5" stroke="#606060" stroke-width=".5" x="0" y="0" width="60" height="60"/>
                <use id="zoomplus" xlink:href="#zoomPlus" x="17" y="9" onmousedown="handleZoom(evt,'in')"/>
                <use id="zoomminus" xlink:href="#zoomMin" x="42" y="9" onmousedown="handleZoom(evt,'out')"/>
                <use id="reset" xlink:href="#resetDef" x="30" y="36" onmousedown="handleReset()"/>
                <g id="arrowUp" xlink:href="#dirArrow" transform="translate(30 24)" onmousedown="handlePan(0,-1)">
                  <use xlink:href="#rim" fill="#404040">
                        <set attributeName="fill" to="#808080" begin="arrowUp.mouseover" end="arrowUp.mouseout"/>
                  </use>
                  <path fill="none" stroke="white" stroke-width="1.5" d="M0,-3.0v7 M-2.5,-0.5L0,-3.0L2.5,-0.5"/>
                </g>
                <g id="arrowRight" xlink:href="#dirArrow" transform="rotate(90) translate(36 -43)" onmousedown="handlePan(1,0)">
                  <use xlink:href="#rim" fill="#404040">
                        <set attributeName="fill" to="#808080" begin="arrowRight.mouseover" end="arrowRight.mouseout"/>
                  </use>
                  <path fill="none" stroke="white" stroke-width="1.5" d="M0,-3.0v7 M-2.5,-0.5L0,-3.0L2.5,-0.5"/>
                </g>
                <g id="arrowDown" xlink:href="#dirArrow" transform="rotate(180) translate(-30 -48)" onmousedown="handlePan(0,1)">
                  <use xlink:href="#rim" fill="#404040">
                        <set attributeName="fill" to="#808080" begin="arrowDown.mouseover" end="arrowDown.mouseout"/>
                  </use>
                  <path fill="none" stroke="white" stroke-width="1.5" d="M0,-3.0v7 M-2.5,-0.5L0,-3.0L2.5,-0.5"/>
                </g>
                <g id="arrowLeft" xlink:href="#dirArrow" transform="rotate(270) translate(-36 17)" onmousedown="handlePan(-1,0)">
                  <use xlink:href="#rim" fill="#404040">
                        <set attributeName="fill" to="#808080" begin="arrowLeft.mouseover" end="arrowLeft.mouseout"/>
                  </use>
                  <path fill="none" stroke="white" stroke-width="1.5" d="M0,-3.0v7 M-2.5,-0.5L0,-3.0L2.5,-0.5"/>
                </g>
        </g>
        <svg viewBox="0 0 15 15" width="100%" height="30px" preserveAspectRatio="xMaxYMin meet">
         <g id="arrow_out" transform="scale(0.3 0.3)">
          <a xlink:href="markdown_8h__incl_org.svg" target="_base">
           <rect id="button" ry="5" rx="5" y="6" x="6" height="38" width="38"
                fill="#f2f5e9" fill-opacity="0.5" stroke="#606060" stroke-width="1.0"/>
           <path id="arrow"
             d="M 11.500037,31.436501 C 11.940474,20.09759 22.043105,11.32322 32.158766,21.979434 L 37.068811,17.246167 C 37.068811,17.246167 37.088388,32 37.088388,32 L 22.160133,31.978069 C 22.160133,31.978069 26.997745,27.140456 26.997745,27.140456 C 18.528582,18.264221 13.291696,25.230495 11.500037,31.436501 z"
             style="fill:#404040;"/>
          </a>
         </g>
        </svg>
</svg>
