<?xml version="1.0" encoding="UTF-8" standalone="no"?>
<!DOCTYPE svg PUBLIC "-//W3C//DTD SVG 1.1//EN"
 "http://www.w3.org/Graphics/SVG/1.1/DTD/svg11.dtd">
<!-- Generated by graphviz version 2.43.0 (0)
 -->
<!-- Title: /home/runner/work/doxygen/doxygen/src/qcstring.cpp Pages: 1 -->
<svg width="611pt" height="203pt"
 viewBox="0.00 0.00 611.00 203.00" xmlns="http://www.w3.org/2000/svg" xmlns:xlink="http://www.w3.org/1999/xlink">
<g id="graph0" class="graph" transform="scale(1 1) rotate(0) translate(4 199)">
<title>/home/runner/work/doxygen/doxygen/src/qcstring.cpp</title>
<!-- Node1 -->
<g id="node1" class="node">
<title>Node1</title>
<g id="a_node1"><a xlink:title=" ">
<polygon fill="#999999" stroke="#666666" points="511.5,-195 357.5,-195 357.5,-165 511.5,-165 511.5,-195"/>
<text text-anchor="start" x="365.5" y="-183" font-family="Helvetica,sans-Serif" font-size="10.00">/home/runner/work/doxygen</text>
<text text-anchor="middle" x="434.5" y="-172" font-family="Helvetica,sans-Serif" font-size="10.00">/doxygen/src/qcstring.cpp</text>
</a>
</g>
</g>
<!-- Node2 -->
<g id="node2" class="node">
<title>Node2</title>
<g id="a_node2"><a xlink:href="../../d7/d5c/qcstring_8h.html" target="_top" xlink:title=" ">
<polygon fill="white" stroke="#666666" points="317,-129 252,-129 252,-110 317,-110 317,-129"/>
<text text-anchor="middle" x="284.5" y="-117" font-family="Helvetica,sans-Serif" font-size="10.00">qcstring.h</text>
</a>
</g>
</g>
<!-- Node1&#45;&gt;Node2 -->
<g id="edge1" class="edge">
<title>Node1&#45;&gt;Node2</title>
<path fill="none" stroke="#63b8ff" d="M398.57,-164.99C373.43,-155.18 340.17,-142.21 316.05,-132.81"/>
<polygon fill="#63b8ff" stroke="#63b8ff" points="317.24,-129.51 306.65,-129.14 314.7,-136.03 317.24,-129.51"/>
</g>
<!-- Node5 -->
<g id="node5" class="node">
<title>Node5</title>
<g id="a_node5"><a xlink:title=" ">
<polygon fill="#e0e0e0" stroke="#999999" points="49,-74 0,-74 0,-55 49,-55 49,-74"/>
<text text-anchor="middle" x="24.5" y="-62" font-family="Helvetica,sans-Serif" font-size="10.00">cctype</text>
</a>
</g>
</g>
<!-- Node1&#45;&gt;Node5 -->
<g id="edge17" class="edge">
<title>Node1&#45;&gt;Node5</title>
<path fill="none" stroke="#63b8ff" d="M378.93,-164.98C340.54,-155.18 288.32,-141.64 242.5,-129 177.42,-111.05 101.84,-88.7 58.95,-75.86"/>
<polygon fill="#63b8ff" stroke="#63b8ff" points="59.87,-72.49 49.28,-72.97 57.86,-79.19 59.87,-72.49"/>
</g>
<!-- Node7 -->
<g id="node7" class="node">
<title>Node7</title>
<g id="a_node7"><a xlink:title=" ">
<polygon fill="#e0e0e0" stroke="#999999" points="478.5,-74 432.5,-74 432.5,-55 478.5,-55 478.5,-74"/>
<text text-anchor="middle" x="455.5" y="-62" font-family="Helvetica,sans-Serif" font-size="10.00">cstdio</text>
</a>
</g>
</g>
<!-- Node1&#45;&gt;Node7 -->
<g id="edge15" class="edge">
<title>Node1&#45;&gt;Node7</title>
<path fill="none" stroke="#63b8ff" d="M434.41,-164.83C434.57,-150.77 435.54,-128.68 439.5,-110 441.39,-101.06 444.66,-91.49 447.75,-83.52"/>
<polygon fill="#63b8ff" stroke="#63b8ff" points="451.04,-84.74 451.59,-74.16 444.56,-82.09 451.04,-84.74"/>
</g>
<!-- Node8 -->
<g id="node8" class="node">
<title>Node8</title>
<g id="a_node8"><a xlink:title=" ">
<polygon fill="#e0e0e0" stroke="#999999" points="546,-74 497,-74 497,-55 546,-55 546,-74"/>
<text text-anchor="middle" x="521.5" y="-62" font-family="Helvetica,sans-Serif" font-size="10.00">cstdlib</text>
</a>
</g>
</g>
<!-- Node1&#45;&gt;Node8 -->
<g id="edge14" class="edge">
<title>Node1&#45;&gt;Node8</title>
<path fill="none" stroke="#63b8ff" d="M440.55,-164.96C447.2,-150.4 458.77,-127.39 472.5,-110 481.09,-99.12 492.47,-88.61 502.1,-80.54"/>
<polygon fill="#63b8ff" stroke="#63b8ff" points="504.44,-83.15 510,-74.13 500.03,-77.71 504.44,-83.15"/>
</g>
<!-- Node12 -->
<g id="node12" class="node">
<title>Node12</title>
<g id="a_node12"><a xlink:title=" ">
<polygon fill="#e0e0e0" stroke="#999999" points="531.5,-129 481.5,-129 481.5,-110 531.5,-110 531.5,-129"/>
<text text-anchor="middle" x="506.5" y="-117" font-family="Helvetica,sans-Serif" font-size="10.00">climits</text>
</a>
</g>
</g>
<!-- Node1&#45;&gt;Node12 -->
<g id="edge13" class="edge">
<title>Node1&#45;&gt;Node12</title>
<path fill="none" stroke="#63b8ff" d="M451.93,-164.84C462.81,-156 476.8,-144.63 487.89,-135.62"/>
<polygon fill="#63b8ff" stroke="#63b8ff" points="490.16,-138.29 495.71,-129.27 485.74,-132.86 490.16,-138.29"/>
</g>
<!-- Node13 -->
<g id="node13" class="node">
<title>Node13</title>
<g id="a_node13"><a xlink:title=" ">
<polygon fill="#e0e0e0" stroke="#999999" points="603,-129 550,-129 550,-110 603,-110 603,-129"/>
<text text-anchor="middle" x="576.5" y="-117" font-family="Helvetica,sans-Serif" font-size="10.00">cstdarg</text>
</a>
</g>
</g>
<!-- Node1&#45;&gt;Node13 -->
<g id="edge16" class="edge">
<title>Node1&#45;&gt;Node13</title>
<path fill="none" stroke="#63b8ff" d="M468.51,-164.99C492.1,-155.27 523.24,-142.44 546.02,-133.06"/>
<polygon fill="#63b8ff" stroke="#63b8ff" points="547.62,-136.18 555.53,-129.14 544.95,-129.71 547.62,-136.18"/>
</g>
<!-- Node3 -->
<g id="node3" class="node">
<title>Node3</title>
<g id="a_node3"><a xlink:title=" ">
<polygon fill="#e0e0e0" stroke="#999999" points="250.5,-19 206.5,-19 206.5,0 250.5,0 250.5,-19"/>
<text text-anchor="middle" x="228.5" y="-7" font-family="Helvetica,sans-Serif" font-size="10.00">string</text>
</a>
</g>
</g>
<!-- Node2&#45;&gt;Node3 -->
<g id="edge2" class="edge">
<title>Node2&#45;&gt;Node3</title>
<path fill="none" stroke="#63b8ff" d="M279.92,-109.66C270.72,-91.93 249.88,-51.73 237.74,-28.32"/>
<polygon fill="#63b8ff" stroke="#63b8ff" points="240.7,-26.42 232.99,-19.16 234.49,-29.65 240.7,-26.42"/>
</g>
<!-- Node4 -->
<g id="node4" class="node">
<title>Node4</title>
<g id="a_node4"><a xlink:title=" ">
<polygon fill="#e0e0e0" stroke="#999999" points="346.5,-74 282.5,-74 282.5,-55 346.5,-55 346.5,-74"/>
<text text-anchor="middle" x="314.5" y="-62" font-family="Helvetica,sans-Serif" font-size="10.00">algorithm</text>
</a>
</g>
</g>
<!-- Node2&#45;&gt;Node4 -->
<g id="edge3" class="edge">
<title>Node2&#45;&gt;Node4</title>
<path fill="none" stroke="#63b8ff" d="M289.45,-109.75C293.56,-102.49 299.53,-91.95 304.6,-82.98"/>
<polygon fill="#63b8ff" stroke="#63b8ff" points="307.76,-84.52 309.64,-74.09 301.67,-81.07 307.76,-84.52"/>
</g>
<!-- Node2&#45;&gt;Node5 -->
<g id="edge4" class="edge">
<title>Node2&#45;&gt;Node5</title>
<path fill="none" stroke="#63b8ff" d="M251.89,-112.1C208.74,-103.6 130.34,-88.01 63.5,-74 62.06,-73.7 60.59,-73.39 59.1,-73.07"/>
<polygon fill="#63b8ff" stroke="#63b8ff" points="59.76,-69.63 49.24,-70.96 58.29,-76.48 59.76,-69.63"/>
</g>
<!-- Node6 -->
<g id="node6" class="node">
<title>Node6</title>
<g id="a_node6"><a xlink:title=" ">
<polygon fill="#e0e0e0" stroke="#999999" points="414.5,-74 364.5,-74 364.5,-55 414.5,-55 414.5,-74"/>
<text text-anchor="middle" x="389.5" y="-62" font-family="Helvetica,sans-Serif" font-size="10.00">cstring</text>
</a>
</g>
</g>
<!-- Node2&#45;&gt;Node6 -->
<g id="edge5" class="edge">
<title>Node2&#45;&gt;Node6</title>
<path fill="none" stroke="#63b8ff" d="M301.37,-109.98C318.11,-101.54 344,-88.47 363.39,-78.68"/>
<polygon fill="#63b8ff" stroke="#63b8ff" points="364.97,-81.8 372.32,-74.17 361.82,-75.55 364.97,-81.8"/>
</g>
<!-- Node2&#45;&gt;Node7 -->
<g id="edge6" class="edge">
<title>Node2&#45;&gt;Node7</title>
<path fill="none" stroke="#63b8ff" d="M311.97,-109.98C342.13,-100.64 390.52,-85.64 422.66,-75.68"/>
<polygon fill="#63b8ff" stroke="#63b8ff" points="423.96,-78.94 432.48,-72.63 421.89,-72.25 423.96,-78.94"/>
</g>
<!-- Node2&#45;&gt;Node8 -->
<g id="edge7" class="edge">
<title>Node2&#45;&gt;Node8</title>
<path fill="none" stroke="#63b8ff" d="M317.26,-111.63C355.49,-103.54 420.83,-89.5 486.52,-74.17"/>
<polygon fill="#63b8ff" stroke="#63b8ff" points="487.7,-77.49 496.64,-71.8 486.1,-70.68 487.7,-77.49"/>
</g>
<!-- Node9 -->
<g id="node9" class="node">
<title>Node9</title>
<g id="a_node9"><a xlink:title=" ">
<polygon fill="#e0e0e0" stroke="#999999" points="158.5,-19 108.5,-19 108.5,0 158.5,0 158.5,-19"/>
<text text-anchor="middle" x="133.5" y="-7" font-family="Helvetica,sans-Serif" font-size="10.00">cstdint</text>
</a>
</g>
</g>
<!-- Node2&#45;&gt;Node9 -->
<g id="edge8" class="edge">
<title>Node2&#45;&gt;Node9</title>
<path fill="none" stroke="#63b8ff" d="M251.6,-115.54C202.95,-110.4 115.49,-98.01 96.5,-74 84.48,-58.8 99.74,-39.29 114.15,-25.93"/>
<polygon fill="#63b8ff" stroke="#63b8ff" points="116.63,-28.41 121.89,-19.2 112.04,-23.12 116.63,-28.41"/>
</g>
<!-- Node10 -->
<g id="node10" class="node">
<title>Node10</title>
<g id="a_node10"><a xlink:title=" ">
<polygon fill="#e0e0e0" stroke="#999999" points="163,-74 106,-74 106,-55 163,-55 163,-74"/>
<text text-anchor="middle" x="134.5" y="-62" font-family="Helvetica,sans-Serif" font-size="10.00">ostream</text>
</a>
</g>
</g>
<!-- Node2&#45;&gt;Node10 -->
<g id="edge9" class="edge">
<title>Node2&#45;&gt;Node10</title>
<path fill="none" stroke="#63b8ff" d="M260.4,-109.98C235.62,-101.23 196.8,-87.51 168.81,-77.62"/>
<polygon fill="#63b8ff" stroke="#63b8ff" points="169.63,-74.2 159.04,-74.17 167.3,-80.8 169.63,-74.2"/>
</g>
<!-- Node11 -->
<g id="node11" class="node">
<title>Node11</title>
<g id="a_node11"><a xlink:href="../../db/d7c/utf8_8h.html" target="_top" xlink:title="Various UTF8 related helper functions.">
<polygon fill="white" stroke="#666666" points="226,-74 181,-74 181,-55 226,-55 226,-74"/>
<text text-anchor="middle" x="203.5" y="-62" font-family="Helvetica,sans-Serif" font-size="10.00">utf8.h</text>
</a>
</g>
</g>
<!-- Node2&#45;&gt;Node11 -->
<g id="edge10" class="edge">
<title>Node2&#45;&gt;Node11</title>
<path fill="none" stroke="#63b8ff" d="M271.49,-109.98C259.04,-101.84 240.04,-89.41 225.29,-79.76"/>
<polygon fill="#63b8ff" stroke="#63b8ff" points="227.04,-76.72 216.75,-74.17 223.2,-82.57 227.04,-76.72"/>
</g>
<!-- Node11&#45;&gt;Node3 -->
<g id="edge12" class="edge">
<title>Node11&#45;&gt;Node3</title>
<path fill="none" stroke="#63b8ff" d="M207.63,-54.75C211.01,-47.57 215.92,-37.18 220.12,-28.27"/>
<polygon fill="#63b8ff" stroke="#63b8ff" points="223.35,-29.63 224.45,-19.09 217.02,-26.64 223.35,-29.63"/>
</g>
<!-- Node11&#45;&gt;Node9 -->
<g id="edge11" class="edge">
<title>Node11&#45;&gt;Node9</title>
<path fill="none" stroke="#63b8ff" d="M192.25,-54.98C181.7,-47 165.7,-34.88 153.06,-25.31"/>
<polygon fill="#63b8ff" stroke="#63b8ff" points="155.04,-22.42 144.95,-19.17 150.81,-28 155.04,-22.42"/>
</g>
</g>
</svg>
